<?xml version="1.0" standalone="no"?>
<!DOCTYPE svg PUBLIC "-//W3C//DTD SVG 20010904//EN"
 "http://www.w3.org/TR/2001/REC-SVG-20010904/DTD/svg10.dtd">
<svg version="1.0" xmlns="http://www.w3.org/2000/svg"
 width="640.000000pt" height="400.000000pt" viewBox="0 0 640.000000 400.000000"
 preserveAspectRatio="xMidYMid meet">
<metadata>
Created by potrace 1.15, written by Peter Selinger 2001-2017
</metadata>
<g transform="translate(0.000000,400.000000) scale(0.100000,-0.100000)"
fill="#000000" stroke="none">
<path d="M3120 3409 c-220 -20 -404 -74 -615 -179 -321 -159 -593 -431 -754
-755 -107 -216 -170 -465 -171 -672 l0 -83 280 0 280 0 0 105 0 105 60 0 60 0
0 -105 0 -106 108 3 107 3 3 103 c3 101 3 102 27 102 25 0 25 0 25 -105 l0
-105 110 0 110 0 0 105 0 105 125 0 125 0 0 -105 0 -105 110 0 110 0 0 105 0
105 25 0 25 0 0 -105 0 -105 121 0 c121 0 121 0 115 23 -28 100 -28 236 0 348
55 221 228 401 454 471 98 30 282 32 375 4 177 -55 328 -176 404 -324 l21 -42
70 0 c42 0 70 4 70 10 0 6 -16 55 -36 108 -113 305 -337 596 -598 778 l-85 59
0 48 c-1 59 -24 107 -52 107 -24 0 -87 -26 -109 -44 -24 -21 -96 15 -105 52
-7 33 -61 102 -79 102 -7 0 -31 -16 -53 -34 l-40 -35 -54 14 c-162 42 -397 60
-569 44z m828 -353 c36 -19 78 -65 91 -99 28 -73 -5 -162 -73 -202 -131 -77
-289 33 -262 180 8 42 58 103 101 121 40 18 109 17 143 0z"/>
<path d="M2916 1574 c-64 -23 -103 -60 -138 -131 -32 -66 -33 -71 -33 -193 0
-140 16 -194 78 -259 94 -99 280 -111 410 -25 l37 24 0 135 0 135 -131 0 -130
0 3 -47 3 -48 68 -3 67 -3 0 -57 c0 -69 -15 -82 -99 -89 -72 -6 -117 17 -151
78 -23 40 -25 54 -25 164 0 102 3 125 20 154 31 53 68 75 124 75 61 0 99 -24
119 -75 l15 -39 59 0 c54 0 58 2 58 23 0 40 -49 123 -88 150 -69 47 -185 61
-266 31z"/>
<path d="M3514 1576 c-58 -19 -101 -54 -124 -101 -25 -51 -25 -88 -1 -141 25
-54 83 -94 197 -134 106 -37 132 -55 140 -96 13 -68 -79 -114 -170 -84 -42 13
-76 53 -76 86 0 23 -3 24 -65 24 -59 0 -65 -2 -65 -20 0 -32 28 -92 58 -123
54 -57 97 -72 207 -72 88 0 105 3 145 25 63 35 90 80 90 147 0 31 -7 71 -17
90 -21 46 -97 94 -200 127 -89 29 -133 62 -133 98 0 107 202 114 223 8 6 -29
8 -30 67 -30 57 0 60 1 60 24 0 60 -45 122 -115 158 -50 26 -163 33 -221 14z"/>
<path d="M1580 1250 l0 -332 178 4 c175 3 179 3 220 31 103 67 111 229 15 293
l-32 21 23 12 c37 20 60 70 59 128 0 66 -27 111 -84 143 -41 23 -55 25 -211
28 l-168 4 0 -332z m283 219 c60 -16 77 -89 32 -134 -22 -22 -32 -25 -105 -25
l-80 0 0 85 0 85 58 0 c31 0 74 -5 95 -11z m42 -284 c25 -24 34 -81 19 -120
-12 -29 -60 -45 -139 -45 l-75 0 0 95 0 95 85 0 c78 0 88 -2 110 -25z"/>
<path d="M2152 1323 c3 -254 3 -259 28 -303 16 -28 43 -55 73 -74 42 -26 60
-30 135 -34 80 -3 92 -1 142 25 36 18 65 43 85 71 l30 44 3 264 3 264 -60 0
-60 0 -3 -242 c-3 -208 -6 -248 -20 -275 -33 -60 -145 -70 -197 -19 l-26 26
-3 255 -3 255 -65 0 -65 0 3 -257z"/>
<path d="M3940 1250 l0 -330 220 0 220 0 0 50 0 50 -155 0 -155 0 0 95 0 95
130 0 130 0 0 50 0 50 -130 0 -130 0 0 85 0 85 155 0 155 0 0 50 0 50 -220 0
-220 0 0 -330z"/>
<path d="M4460 1250 l0 -330 220 0 220 0 0 50 0 50 -155 0 -155 0 0 95 0 95
130 0 130 0 0 50 0 50 -130 0 -130 0 0 85 0 85 155 0 155 0 0 50 0 50 -220 0
-220 0 0 -330z"/>
</g>
</svg>
