<?xml version="1.0" standalone="no"?>
<!DOCTYPE svg PUBLIC "-//W3C//DTD SVG 20010904//EN"
 "http://www.w3.org/TR/2001/REC-SVG-20010904/DTD/svg10.dtd">
<svg version="1.0" xmlns="http://www.w3.org/2000/svg"
 width="947.000000pt" height="155.000000pt" viewBox="0 0 947.000000 155.000000"
 preserveAspectRatio="xMidYMid meet">
<metadata>
Created by potrace 1.15, written by Peter Selinger 2001-2017
</metadata>
<g transform="translate(0.000000,155.000000) scale(0.100000,-0.100000)"
fill="#000000" stroke="none">
<path d="M4280 670 l0 -490 35 0 35 0 0 490 0 490 -35 0 -35 0 0 -490z"/>
<path d="M6640 715 l0 -415 40 0 40 0 0 168 c0 92 5 187 11 211 13 58 44 100
86 117 29 13 37 12 64 -1 53 -28 62 -66 67 -295 l4 -206 35 4 34 4 -3 232 c-3
204 -5 236 -22 270 -26 52 -68 76 -134 76 -56 0 -83 -10 -119 -43 l-23 -20 0
156 0 157 -40 0 -40 0 0 -415z"/>
<path d="M7950 715 l0 -415 40 0 40 0 0 415 0 415 -40 0 -40 0 0 -415z"/>
<path d="M350 695 l0 -395 160 0 c88 0 163 0 168 0 4 0 8 15 10 35 l3 35 -130
0 -131 0 0 145 0 145 115 0 115 0 0 35 0 34 -112 3 -113 3 -3 138 -3 137 126
0 125 0 0 40 0 40 -165 0 -165 0 0 -395z"/>
<path d="M820 696 l0 -396 133 1 c144 1 172 7 241 56 90 64 136 179 137 347 0
140 -22 222 -81 288 -67 76 -110 91 -282 96 l-148 4 0 -396z m300 283 c91 -50
137 -162 127 -314 -11 -188 -118 -295 -294 -295 l-53 0 0 321 0 321 88 -4 c69
-3 97 -9 132 -29z"/>
<path d="M1670 1050 l0 -40 90 0 90 0 0 -354 0 -354 40 -4 40 -4 0 358 0 358
95 0 95 0 0 40 0 40 -225 0 -225 0 0 -40z"/>
<path d="M4720 1077 c0 -7 43 -119 95 -249 l95 -236 0 -146 0 -146 40 0 40 0
0 139 0 138 105 249 c58 136 105 252 105 256 0 4 -19 8 -43 8 l-44 0 -68 -167
c-37 -93 -73 -178 -79 -190 -10 -20 -20 -2 -85 167 l-74 190 -44 0 c-29 0 -43
-4 -43 -13z"/>
<path d="M7430 696 l0 -395 117 -3 c127 -3 169 5 210 44 44 39 63 95 63 181 0
89 -22 145 -68 174 -15 9 -29 18 -31 19 -1 2 12 21 30 44 31 39 34 48 37 125
4 73 1 89 -19 124 -36 65 -81 81 -222 81 l-117 0 0 -394z m248 281 c23 -24 27
-35 27 -86 0 -94 -47 -141 -143 -144 l-47 -2 -3 134 -3 133 71 -4 c60 -3 74
-7 98 -31z m-37 -317 c58 -16 90 -58 95 -126 9 -103 -40 -153 -156 -162 l-70
-5 0 152 0 151 48 0 c26 0 63 -5 83 -10z"/>
<path d="M6373 1018 c-21 -10 -23 -18 -23 -80 l0 -68 -40 0 -40 0 0 -40 c0
-40 0 -40 39 -40 l40 0 3 -212 c2 -176 6 -218 20 -244 27 -49 91 -68 152 -44
21 8 26 16 26 45 l0 36 -47 -3 c-69 -4 -73 7 -73 235 l0 187 60 0 60 0 0 40 0
40 -60 0 -60 0 0 80 c0 87 -5 93 -57 68z"/>
<path d="M2476 855 c-34 -23 -36 -23 -36 -5 0 17 -7 20 -40 20 l-40 0 0 -285
0 -285 39 0 39 0 4 198 c3 177 5 201 24 237 12 22 35 48 52 58 27 16 35 17 59
5 55 -26 63 -61 63 -290 l0 -208 40 0 40 0 0 173 c0 197 12 256 59 301 67 64
134 16 145 -105 2 -30 5 -125 5 -211 l1 -158 35 0 35 0 0 228 c0 256 -8 293
-72 332 -63 38 -161 22 -206 -35 l-20 -25 -40 40 c-37 37 -44 40 -94 40 -42 0
-64 -6 -92 -25z"/>
<path d="M3235 864 c-47 -24 -82 -62 -107 -118 -20 -44 -23 -67 -23 -171 0
-109 2 -125 26 -176 16 -34 42 -68 65 -85 34 -26 45 -29 118 -29 67 0 88 4
124 24 39 23 42 28 42 68 0 51 -11 54 -60 18 -96 -71 -189 -38 -225 81 -27 90
-37 84 151 84 l167 0 -7 73 c-12 132 -42 197 -106 229 -43 22 -125 23 -165 2z
m115 -69 c33 -17 55 -53 69 -114 l9 -41 -119 0 c-113 0 -119 1 -119 20 0 44
58 128 100 143 24 9 29 8 60 -8z"/>
<path d="M3670 862 c-54 -27 -80 -74 -80 -146 0 -77 22 -115 87 -152 115 -66
141 -98 121 -155 -7 -21 -22 -36 -45 -45 -30 -13 -38 -13 -77 5 -24 10 -47 24
-50 30 -16 25 -34 10 -38 -31 -5 -53 14 -74 77 -84 93 -13 153 7 199 70 16 21
21 42 21 91 0 78 -18 106 -96 152 -121 73 -146 120 -95 179 27 33 80 37 121
10 42 -28 55 -21 55 28 0 40 -3 45 -31 55 -48 16 -129 13 -169 -7z"/>
<path d="M5385 862 c-90 -43 -128 -121 -132 -272 -2 -92 1 -112 22 -164 44
-108 113 -152 225 -144 149 11 232 165 201 375 -13 89 -41 144 -94 187 -34 27
-47 31 -110 34 -55 2 -82 -2 -112 -16z m165 -80 c62 -44 93 -179 64 -288 -19
-74 -44 -108 -95 -128 -40 -16 -43 -16 -88 6 -58 29 -91 90 -98 181 -15 180
105 307 217 229z"/>
<path d="M8275 861 c-90 -41 -128 -120 -132 -271 -2 -92 1 -112 22 -164 44
-108 113 -152 224 -144 84 6 131 39 170 120 36 76 47 165 31 262 -17 106 -64
179 -133 205 -44 17 -137 13 -182 -8z m165 -79 c63 -45 93 -179 64 -289 -19
-73 -52 -116 -100 -131 -35 -10 -44 -9 -84 11 -67 33 -95 95 -95 207 0 68 5
94 24 132 43 90 121 118 191 70z"/>
<path d="M8810 869 c-62 -26 -109 -94 -130 -190 -14 -63 -9 -201 10 -262 14
-47 65 -106 107 -123 65 -28 152 -13 206 34 15 14 17 13 17 -4 0 -42 -32 -140
-53 -162 -54 -58 -124 -67 -203 -27 -27 14 -52 25 -56 25 -5 0 -8 -20 -8 -43
0 -42 2 -45 42 -63 30 -13 65 -19 118 -19 91 1 142 23 183 81 45 64 54 137 56
462 l2 292 -40 0 c-35 0 -41 -3 -41 -20 0 -20 -1 -20 -30 2 -35 25 -137 35
-180 17z m140 -88 c39 -27 64 -88 68 -165 8 -131 -30 -221 -106 -253 -111 -46
-200 156 -143 325 21 60 44 89 86 108 33 15 58 11 95 -15z"/>
<path d="M2140 585 l0 -285 40 0 40 0 0 285 0 285 -40 0 -40 0 0 -285z"/>
<path d="M5811 642 c4 -220 5 -229 29 -276 31 -60 75 -86 146 -86 38 0 61 6
88 25 44 30 46 30 46 7 0 -15 6 -17 35 -14 l35 4 0 284 0 284 -34 0 -34 0 -4
-197 c-3 -188 -5 -200 -28 -243 -50 -90 -133 -97 -175 -15 -18 35 -20 64 -23
248 l-3 207 -41 0 -40 0 3 -228z"/>
<path d="M167 24 c-4 -4 -4 -11 -1 -15 3 -5 910 -9 2030 -9 1792 0 2024 2
2024 15 0 13 -231 15 -2023 15 -1113 0 -2027 -3 -2030 -6z"/>
<path d="M4540 15 c0 -13 215 -15 1993 -14 1421 1 1981 4 1952 12 -27 7 -662
12 -1992 14 -1743 3 -1953 2 -1953 -12z"/>
</g>
</svg>
