<svg width="1039" height="967" xmlns="http://www.w3.org/2000/svg" preserveAspectRatio="xMidYMid meet">
 <metadata>Created by potrace 1.15, written by Peter Selinger 2001-2017</metadata>

 <g>
  <title>background</title>
  <rect x="-1" y="-1" width="1041" height="969" id="canvas_background" fill="none"/>
 </g>
 <g>
  <title>Layer 1</title>
  <g transform="translate(0,967) scale(0.10000000149011612,-0.10000000149011612) " fill="#000000" id="svg_1">
   <path d="m5130,9613c-23,-27 -53,-70 -67,-98c-55,-109 -104,-184 -153,-233c-34,-34 -50,-59 -50,-76c0,-38 -132,-292 -218,-420c-41,-61 -81,-128 -88,-150c-18,-50 -18,-100 1,-116c8,-6 128,-42 267,-78c251,-65 254,-66 388,-66c119,0 155,5 302,37c219,49 295,73 325,104c22,21 25,31 20,66c-11,80 -166,364 -301,549c-19,26 -44,78 -56,114c-14,41 -36,81 -57,103c-18,20 -60,82 -93,138c-57,97 -119,173 -141,173c-6,0 -1,-13 10,-29c12,-16 21,-31 21,-33c0,-11 91,-162 101,-169c9,-5 8,-15 -4,-40l-16,-34l-11,29c-6,16 -8,36 -6,43c7,18 -41,110 -67,128c-11,7 -17,20 -14,27c2,8 -2,23 -10,33c-15,19 -15,19 -10,-2c3,-13 1,-23 -4,-23c-9,0 -13,21 -11,53c3,28 -14,20 -58,-30zm240,-243c6,-12 8,-30 4,-42c-5,-17 -3,-20 10,-15c14,6 16,3 11,-16c-5,-17 -4,-18 4,-7c5,8 11,12 13,10c25,-39 98,-174 98,-182c0,-17 -18,-7 -23,12c-3,11 -10,20 -16,20c-6,0 -8,-7 -5,-15c4,-9 0,-15 -10,-15c-11,0 -16,-9 -16,-31c0,-17 4,-28 10,-24c6,3 10,-1 10,-11c0,-13 3,-14 15,-4c12,10 15,10 15,-4c0,-9 -8,-16 -20,-16c-11,0 -20,5 -20,12c0,6 -3,8 -7,5c-4,-4 -15,10 -24,30c-21,45 -23,53 -8,53c5,0 7,-4 4,-10c-10,-16 5,-12 23,6c13,13 14,22 5,45c-6,16 -7,27 -2,23c12,-7 11,-2 -6,37c-15,32 -16,32 -10,5c5,-26 4,-27 -10,-13c-8,9 -15,20 -15,26c0,5 -4,13 -10,16c-6,3 -7,-1 -4,-12c5,-17 5,-17 -6,0c-6,9 -18,17 -26,17c-23,0 -34,43 -22,84c13,41 23,45 38,16zm199,-339c17,-27 41,-70 52,-95c11,-25 23,-46 27,-46c5,0 23,-30 42,-67c19,-38 38,-69 42,-71c5,-2 8,-8 8,-12c0,-5 22,-46 50,-92c50,-82 59,-105 40,-93c-5,3 -10,1 -10,-5c0,-6 -5,-8 -12,-4c-9,6 -9,9 0,12c7,2 12,8 12,13c0,6 -8,5 -20,-1c-11,-6 -18,-15 -15,-21c11,-16 -12,-10 -26,8c-10,11 -10,14 -1,9c6,-4 12,-2 12,4c0,6 10,15 23,20c18,7 19,9 3,9c-13,1 -17,6 -13,20c3,13 0,18 -8,15c-7,-3 -10,-15 -7,-30c3,-15 0,-24 -8,-24c-7,0 -10,8 -7,20c3,11 1,22 -4,25c-4,3 -5,13 -2,22c5,12 3,14 -7,8c-9,-6 -12,-4 -8,6c3,8 9,21 12,29c3,8 -3,26 -14,40c-17,21 -21,23 -29,10c-6,-8 -14,-11 -18,-6c-4,5 -2,11 5,13c17,6 15,35 -4,59c-13,16 -15,16 -10,2c3,-12 0,-18 -10,-18c-11,0 -12,4 -4,19c13,25 13,44 -1,36c-6,-4 -13,2 -16,14c-7,27 -18,27 -20,0c-1,-12 -4,-24 -7,-27c-12,-11 -14,4 -7,38c5,25 2,48 -12,83c-18,43 -37,62 -37,37c0,-5 5,-10 10,-10c6,0 10,-13 10,-28c0,-15 5,-33 10,-38c16,-16 0,-44 -24,-43c-16,1 -17,2 -3,6c13,3 16,11 11,31c-10,47 -12,51 -32,45c-14,-3 -18,-11 -15,-26c4,-18 3,-19 -6,-7c-14,19 -14,97 -1,105c6,4 7,11 4,17c-4,7 -2,8 4,4c9,-5 9,-13 2,-26c-13,-24 -13,-33 1,-24c8,4 9,0 4,-15c-3,-12 -2,-21 4,-21c11,0 9,85 -2,96c-7,7 -10,24 -4,24c2,0 18,-22 36,-49zm-942,-460c-3,-14 -1,-18 9,-14c8,3 11,10 8,15c-4,6 4,4 17,-3l24,-14l-25,-4c-17,-2 7,-12 75,-30c85,-23 103,-25 121,-14c18,11 23,10 39,-7c10,-11 31,-20 47,-20c17,0 27,-4 23,-10c-3,-5 1,-10 10,-10c10,0 13,5 9,13c-4,6 2,4 13,-6c15,-13 29,-16 49,-12c23,5 26,4 14,-5c-12,-10 -11,-11 8,-7c12,3 20,1 17,-3c-6,-10 70,-24 85,-15c5,3 11,-2 11,-12c1,-17 2,-17 6,0c7,27 41,59 47,44c3,-9 8,-8 15,3c9,13 11,13 11,-1c0,-18 20,-29 48,-28c14,0 13,2 -3,10c-15,7 -9,8 20,4c29,-4 36,-3 25,4c-9,6 -10,11 -3,11c6,0 20,3 30,6c15,5 15,4 3,-5c-12,-8 -8,-11 20,-10c29,0 32,2 15,10c-15,7 -12,8 15,4c19,-3 29,-2 23,1c-21,9 -15,27 7,21c13,-3 20,0 20,9c0,8 4,14 10,14c5,0 7,-7 4,-15c-4,-8 -1,-15 5,-15c15,0 14,-16 -1,-18c-36,-4 -158,-34 -192,-48c-21,-8 -41,-12 -44,-10c-3,3 -11,1 -19,-6c-7,-6 -17,-8 -21,-4c-4,4 4,15 16,24l23,18l-26,2c-21,1 -25,-3 -25,-23c0,-18 -5,-25 -19,-25c-11,0 -21,4 -23,10c-1,5 -19,11 -38,13c-19,2 -42,7 -50,10c-36,14 -134,36 -142,31c-4,-3 -8,0 -8,6c0,7 -8,9 -19,5c-10,-3 -24,1 -31,10c-7,8 -18,15 -24,15c-6,0 -4,-5 4,-10c19,-13 -30,-3 -75,15c-16,6 -63,20 -102,29c-74,18 -78,22 -67,50c9,23 17,20 11,-3z" id="svg_2"/>
   <path d="m40,9491c0,-17 5,-33 10,-36c6,-4 8,-11 5,-16c-4,-5 -2,-9 3,-9c6,0 12,-18 14,-40c2,-22 0,-40 -5,-40c-4,0 -6,-30 -2,-67c7,-86 7,-77 2,-218c-3,-73 -1,-110 4,-95c6,16 6,11 1,-15c-8,-46 -8,-680 0,-740c4,-29 4,-32 -2,-10c-4,17 -7,-21 -6,-92c1,-69 5,-119 10,-115c5,3 6,0 2,-7c-5,-7 -9,-45 -11,-84c-1,-40 0,-61 4,-47l7,25l7,-28c9,-32 -1,-57 -14,-36c-13,22 -23,-19 -11,-46c8,-17 24,-26 64,-34c123,-26 1474,-387 2158,-576c151,-42 356,-99 455,-126c99,-27 221,-58 270,-68l90,-18l14,-39c11,-31 13,-133 12,-509c-1,-482 -11,-749 -30,-797c-9,-23 -16,-28 -46,-28c-50,0 -396,90 -1120,290c-1106,306 -1281,350 -1388,350l-55,0l-6,-302c-3,-167 -9,-551 -12,-854l-6,-550l148,-39c200,-51 774,-206 1534,-415c344,-94 699,-189 790,-211c91,-22 173,-42 182,-45c17,-5 18,-45 17,-667c0,-662 -5,-814 -28,-841c-9,-11 -20,-12 -44,-5c-56,17 -995,273 -1497,409c-267,73 -660,180 -875,240c-498,137 -622,167 -638,151c-8,-8 -7,-15 7,-29c11,-9 15,-11 11,-3c-6,10 -2,11 16,6c13,-5 65,-18 114,-31c50,-13 133,-35 185,-50c52,-14 106,-28 120,-32c26,-5 42,-21 34,-34c-5,-8 -44,10 -56,27c-4,6 -8,2 -8,-7c0,-10 -6,-18 -14,-18c-7,0 -28,-3 -46,-7c-28,-5 -32,-4 -27,10c4,10 2,17 -3,17c-6,0 -10,-5 -10,-12c0,-6 -3,-8 -7,-4c-5,4 0,13 10,21c15,11 16,14 2,25c-9,7 -18,10 -22,6c-3,-3 -1,-6 5,-6c17,0 15,-17 -4,-24c-8,-3 -13,-2 -9,3c7,13 -22,41 -43,41c-9,0 -28,3 -42,5c-20,4 -21,4 -6,-3c20,-9 32,-42 15,-42c-5,0 -9,7 -9,16c0,10 -6,14 -15,10c-8,-3 -15,-2 -15,2c0,4 -26,8 -58,9c-52,2 -55,1 -33,-11l24,-13l-32,-5c-22,-3 -31,-1 -31,10c0,8 -6,12 -15,8c-18,-6 -18,-5 -6,27c8,20 6,27 -5,31c-22,9 -24,8 -24,-10c0,-8 4,-12 10,-9c5,3 10,-1 10,-10c0,-9 -5,-13 -10,-10c-12,7 -11,49 -11,-875c-1,-587 -3,-679 -14,-645l-13,40l-1,-42c-1,-25 5,-48 15,-57c14,-15 14,-17 0,-22c-24,-9 -19,-21 14,-32c22,-8 33,-8 43,1c20,19 36,18 47,-3c8,-15 8,-20 -2,-21c-7,-1 1,-4 17,-8c28,-7 66,-2 110,14c16,5 17,5 5,-4c-13,-9 -13,-11 0,-11c9,-1 6,-6 -10,-16l-25,-15l27,5c16,4 28,1 31,-7c4,-9 6,-9 6,0c1,9 8,10 26,3c14,-5 27,-5 30,0c3,4 24,11 48,15c23,4 50,9 60,11c9,1 17,-1 17,-7c0,-5 -4,-9 -10,-9c-5,0 -10,-9 -10,-19c0,-11 -3,-21 -8,-24c-4,-2 -1,-2 7,0c9,2 11,-2 7,-13c-5,-12 -2,-15 10,-10c8,3 20,6 25,6c6,0 7,5 4,10c-9,14 6,12 35,-6l25,-15l-27,6c-16,3 -28,1 -28,-5c0,-11 33,-13 67,-4c15,4 20,11 15,22c-5,14 -4,15 10,2c14,-14 14,-16 -6,-28c-20,-13 -20,-13 4,-7c63,17 70,17 70,5c0,-7 -6,-10 -14,-7c-8,3 -22,-1 -33,-9c-10,-9 -13,-13 -6,-9c7,3 26,-1 42,-9c28,-15 29,-14 24,4c-4,14 0,20 10,20c9,0 18,6 20,13c2,6 3,-1 1,-18c-4,-28 -4,-28 10,-10c14,20 14,20 36,0c12,-11 24,-19 26,-17c13,8 21,-1 17,-16c-4,-17 1,-18 53,-14c44,4 55,2 49,-8c-8,-13 11,-30 35,-30c13,0 13,1 0,10c-8,5 -10,10 -4,10c6,0 14,-3 18,-7c4,-5 23,-8 42,-8c25,-1 34,3 34,16c0,20 25,28 72,23c31,-3 32,-3 14,11c-11,8 -15,15 -9,15c14,0 34,-25 26,-33c-3,-4 2,-7 11,-7c13,0 17,6 13,20c-4,16 0,20 21,20c20,0 23,-3 14,-12c-7,-7 -12,-22 -12,-35c0,-24 -14,-31 -25,-13c-4,6 -10,8 -15,5c-5,-3 -11,-1 -14,3c-3,5 -18,7 -32,4c-19,-3 -25,-1 -20,7c4,6 2,11 -3,11c-6,0 -11,-9 -11,-21c0,-11 -4,-17 -10,-14c-5,3 -10,0 -10,-9c0,-8 -6,-16 -12,-19c-7,-2 4,-7 25,-11c20,-4 41,-4 46,-1c12,7 42,-5 36,-15c-3,-4 7,-10 22,-13c26,-5 26,-4 8,9c-16,12 -16,14 -2,14c11,0 14,5 10,17c-4,11 -3,14 6,9c6,-4 10,-15 9,-23c-2,-9 11,-24 29,-34c31,-18 33,-18 45,0c7,10 27,21 43,25c23,5 27,4 15,-5c-12,-9 -11,-10 8,-6c18,4 25,0 33,-21c8,-21 12,-23 19,-12c6,8 10,10 10,4c0,-5 -5,-15 -12,-22c-20,-20 12,-15 35,5c11,10 17,13 14,6c-4,-6 -3,-14 3,-18c5,-3 10,-1 10,4c0,6 6,11 13,11c6,-1 1,-10 -13,-22c-18,-16 -20,-19 -6,-14c10,3 25,1 32,-5c16,-13 48,-4 39,11c-3,5 -12,10 -18,10c-7,0 -6,-4 3,-10c8,-5 11,-10 5,-10c-5,0 -17,4 -25,10c-23,14 13,24 39,10c12,-6 21,-8 21,-5c0,4 18,-4 40,-16c23,-13 36,-26 29,-29c-6,-5 -3,-9 9,-12c15,-4 19,-2 15,8c-4,10 3,14 23,13c16,0 23,-3 16,-6c-15,-6 -16,-36 0,-31c15,5 19,37 7,61c-14,25 -4,33 16,13c9,-9 20,-14 24,-12c4,3 8,-4 8,-15c1,-10 -4,-19 -10,-19c-7,0 -13,-8 -14,-18c-1,-15 5,-17 35,-15c29,2 33,1 17,-6c-23,-11 -21,-12 22,-14c24,-2 29,1 21,11c-8,9 -6,12 6,12c9,0 16,4 16,9c0,5 7,12 16,15c8,3 12,2 9,-4c-12,-19 5,-31 27,-19c15,8 23,8 32,-1c6,-6 7,-11 1,-10c-31,6 -42,-1 -38,-23c4,-18 11,-24 33,-24c16,0 27,4 24,9c-3,4 -1,8 3,8c5,0 14,-9 21,-20c13,-21 32,-27 32,-10c0,6 -7,10 -15,10c-8,0 -15,4 -15,8c0,5 17,7 38,5c20,-2 57,-4 82,-4c34,-1 40,-3 25,-9c-11,-5 -15,-9 -10,-10c6,0 -1,-7 -15,-15c-31,-17 -81,-13 -185,15c-44,12 -120,32 -170,46c-49,13 -121,33 -160,44c-38,11 -130,36 -204,55c-74,20 -140,40 -146,45c-7,6 -14,8 -17,5c-3,-3 -85,17 -184,44c-98,27 -210,56 -249,66c-81,19 -236,65 -250,73c-5,3 -23,7 -40,9c-16,2 -77,16 -135,33c-192,54 -289,80 -294,80c-3,0 -6,-8 -6,-18c0,-15 16,-23 77,-40c43,-11 258,-70 478,-130c220,-61 537,-147 705,-192c331,-88 439,-122 485,-150c17,-10 66,-23 110,-28c110,-15 493,-112 1170,-297c314,-86 719,-196 900,-245c182,-49 435,-118 564,-154c255,-72 367,-96 443,-96c63,0 54,15 -17,30c-30,6 -57,16 -61,21c-3,5 -10,7 -15,4c-5,-4 -9,-3 -9,2c0,4 -15,8 -32,7c-18,0 -38,4 -45,9c-7,5 -28,10 -48,12c-19,2 -49,11 -66,19c-35,18 -52,21 -29,6c8,-5 11,-10 5,-10c-5,1 -19,7 -29,15c-11,8 -28,15 -38,15c-10,0 -18,5 -18,10c0,6 -5,10 -11,10c-5,0 -7,-5 -3,-11c5,-8 1,-8 -14,0c-11,6 -33,11 -49,11c-23,0 -25,2 -13,11c11,8 7,9 -19,5c-27,-5 -31,-3 -22,7c8,11 5,13 -19,9c-19,-3 -30,0 -30,7c0,7 4,10 8,7c5,-3 22,-1 38,4l29,10l-32,-5c-22,-3 -39,2 -55,16c-19,17 -20,19 -3,11c11,-5 33,-9 48,-8c16,1 31,-2 33,-6c3,-4 10,-8 15,-8c6,0 7,5 3,12c-4,7 -3,8 4,4c17,-10 15,-26 -3,-26c-8,0 -15,-5 -15,-11c0,-6 7,-9 15,-6c8,4 17,2 20,-3c8,-13 81,-13 104,0c16,8 20,5 25,-20c3,-17 10,-30 16,-30c6,0 8,6 4,13c-6,9 -5,9 8,0c8,-7 18,-10 21,-7c4,4 17,7 29,8c13,0 23,6 23,13c0,6 4,15 9,20c5,5 7,-1 3,-15c-4,-15 1,-27 16,-37c21,-14 21,-15 2,-16c-20,0 -20,-1 0,-9c29,-13 57,-12 49,1c-4,8 0,8 15,0c11,-7 21,-9 21,-5c0,3 7,1 15,-6c13,-11 18,-11 28,-1c9,10 9,12 -3,10c-15,-2 -70,17 -70,25c0,7 23,1 40,-9c8,-5 25,-9 37,-10c12,0 25,-4 30,-8c4,-5 4,-8 -2,-7c-24,5 -27,-1 -10,-20c23,-26 35,-26 28,0c-3,11 0,20 6,20c5,0 8,-7 5,-15c-4,-9 0,-15 7,-15c11,0 11,-3 -1,-11c-12,-9 -13,-10 0,-7c10,3 13,18 11,56c-2,35 1,52 9,52c8,0 11,-15 8,-45c-3,-44 -3,-44 34,-50c21,-4 38,-11 38,-16c0,-5 -11,-4 -26,1c-31,12 -44,13 -44,1c0,-5 15,-12 34,-15c19,-4 37,-12 39,-19c3,-7 5,1812 4,4041c-2,3185 1,4052 10,4052c10,0 12,-866 10,-4050c-2,-3235 1,-4050 11,-4050c14,0 16,1021 5,5341l-6,2826l-96,23c-99,23 -136,38 -184,74c-26,19 -40,21 -164,19c-75,-2 -137,-4 -138,-5c-1,-2 -10,-1569 -20,-3483c-9,-1914 -18,-3481 -19,-3482c-1,-1 -47,10 -104,25l-102,27l2,3475c3,3356 2,3477 -15,3504c-29,43 -120,79 -397,156c-140,39 -347,98 -460,130c-113,32 -300,84 -417,114c-117,31 -360,97 -540,147c-558,154 -790,217 -1774,478c-311,83 -573,151 -582,151c-12,0 -17,-9 -17,-29zm857,-234c7,-5 19,-7 27,-4c8,3 26,-3 39,-13c19,-15 27,-16 36,-7c9,9 14,9 19,0c4,-6 27,-16 52,-23c25,-7 51,-17 59,-23c12,-9 13,-9 7,0c-5,9 -2,11 8,7c9,-3 13,-11 9,-18c-4,-7 -1,-6 9,2c12,10 20,10 40,0c13,-7 24,-17 24,-23c0,-5 9,-11 20,-13c16,-3 17,-1 4,8c-12,9 -9,10 15,4c17,-4 43,-8 58,-10c15,-1 34,-8 42,-14c8,-7 23,-10 34,-7c38,10 61,-27 38,-64c-10,-16 -14,-16 -38,-4c-14,8 -29,11 -33,8c-3,-4 -6,1 -6,10c0,11 -8,17 -22,16c-13,0 -17,-3 -10,-6c24,-10 11,-24 -20,-22c-18,2 -43,-3 -55,-9c-17,-9 -24,-9 -35,1c-20,20 -41,25 -59,16c-20,-10 -47,15 -29,26c5,3 10,3 10,-2c0,-4 21,-9 47,-9c33,-1 51,3 60,15c18,24 16,31 -12,31c-14,0 -41,6 -60,14c-18,8 -36,12 -39,8c-3,-3 -6,-1 -6,4c0,13 -68,49 -77,41c-4,-4 2,-14 13,-22c18,-13 18,-14 -4,-8c-29,7 -38,23 -21,34c10,6 8,9 -8,9c-17,0 -21,-4 -16,-17c5,-12 1,-11 -15,5c-24,24 -52,29 -53,10c0,-10 -2,-10 -6,0c-2,6 -16,12 -29,12c-14,0 -22,-4 -19,-10c3,-5 -3,-10 -14,-10c-10,0 -28,-2 -38,-5c-10,-3 4,5 31,18c36,18 44,26 31,31c-29,11 -45,7 -38,-10c5,-14 3,-15 -18,-3c-14,7 -19,14 -11,17c6,2 12,10 12,18c0,14 23,10 47,-9zm1563,-422c25,-7 57,-17 71,-23c15,-6 29,-9 31,-6c3,2 23,-2 46,-10c23,-8 72,-22 109,-31c38,-9 77,-20 88,-25c21,-9 54,-16 114,-25c19,-3 40,-10 45,-14c12,-10 200,-60 251,-67c17,-2 46,-11 66,-18c20,-8 39,-13 42,-10c3,3 19,-2 35,-10c17,-9 37,-13 46,-10c8,3 23,-3 33,-13c10,-10 31,-18 46,-17c15,1 30,-3 33,-7c3,-5 -1,-9 -8,-9c-10,0 -9,-3 2,-10c12,-8 12,-10 -3,-16c-9,-3 -24,-4 -32,0c-19,7 -31,4 -27,-7c1,-5 -2,-6 -8,-2c-5,3 -10,14 -10,23c0,15 -2,15 -11,2c-7,-11 -9,-7 -5,18c2,18 0,32 -6,32c-6,0 -8,-7 -4,-15c3,-8 1,-15 -4,-15c-6,0 -10,5 -10,10c0,6 -11,10 -25,10c-14,0 -25,-6 -25,-12c0,-10 -2,-10 -8,-1c-6,10 -93,36 -98,30c0,-1 -6,-11 -13,-22c-10,-17 -11,-15 -7,15l6,35l-13,-28c-7,-15 -16,-25 -20,-21c-3,4 -2,15 4,25c8,15 5,20 -16,25c-14,3 -31,4 -39,1c-8,-3 -17,-3 -20,1c-7,7 -25,11 -73,19c-18,3 -33,9 -33,14c0,4 10,6 23,3c69,-13 89,-13 42,1c-27,8 -58,12 -67,9c-10,-3 -18,-1 -18,5c0,5 -13,9 -30,9c-16,-1 -30,-5 -30,-10c0,-4 -7,-8 -15,-8c-18,0 -20,27 -2,33c6,2 1,2 -11,0c-13,-2 -21,0 -18,6c3,5 -2,12 -11,15c-9,4 -20,1 -25,-6c-6,-10 -8,-10 -8,0c0,6 -8,12 -18,12c-10,0 -24,-6 -31,-12c-11,-11 -12,-9 -3,7c9,19 7,21 -21,22c-30,1 -30,1 -7,-7l25,-8l-25,-1c-20,-1 -22,-3 -10,-11c23,-15 -2,-12 -32,4c-16,8 -28,11 -28,5c0,-5 -4,-9 -10,-9c-5,0 -10,7 -10,15c0,10 11,15 33,16c30,1 29,2 -13,12c-25,6 -48,15 -52,21c-5,7 -8,4 -8,-6c0,-10 -4,-18 -10,-18c-5,0 -10,8 -10,18c0,14 -2,15 -10,2c-8,-13 -11,-11 -16,8c-6,23 -26,32 -20,10c1,-7 1,-10 -1,-6c-2,4 -10,5 -16,3c-35,-10 -77,-14 -72,-5c3,5 -3,13 -12,19c-17,10 -17,10 0,11c9,0 17,-4 17,-8c0,-5 7,-9 15,-9c33,0 12,16 -37,27c-29,7 -59,17 -65,23c-9,6 -13,6 -13,-2c0,-6 13,-14 28,-17c16,-3 29,-12 29,-19c0,-8 -5,-11 -11,-7c-6,4 -20,8 -31,9c-48,6 -65,10 -72,18c-5,4 -2,5 5,1c6,-4 12,-2 12,4c0,7 6,10 14,7c8,-3 17,1 20,10c4,10 12,13 24,8c9,-4 37,-13 62,-20zm1120,-300c6,3 10,2 10,-3c0,-4 53,-21 118,-36c64,-15 126,-32 137,-37c11,-5 31,-11 45,-13c46,-9 235,-59 262,-70c15,-6 32,-21 37,-34c8,-16 11,-1074 11,-3517c0,-2789 3,-3495 13,-3496c44,-5 57,-7 90,-18c47,-16 50,-40 5,-32c-32,4 -32,5 -8,11c23,6 23,7 -11,13c-43,9 -69,1 -70,-22c0,-10 -2,-11 -6,-3c-7,17 -33,15 -33,-2c0,-22 -13,-26 -40,-10l-25,14l24,-3c13,-1 26,4 29,12c3,8 0,11 -7,7c-6,-4 -16,-4 -22,0c-19,11 13,24 34,12c25,-13 34,-3 16,18c-12,15 -14,541 -14,3521c0,3494 0,3503 -20,3509c-11,4 -23,12 -27,18c-5,7 -8,4 -8,-6c0,-10 7,-18 15,-18c8,0 15,-4 15,-10c0,-13 -6,-13 -31,1c-12,6 -18,17 -15,25c6,17 -13,18 -34,3c-13,-9 -12,-10 3,-5c9,3 17,1 17,-3c0,-5 3,-18 6,-28c5,-17 5,-17 -6,0c-6,9 -15,15 -19,13c-4,-3 -20,6 -36,20c-24,21 -26,24 -9,25c15,1 13,3 -6,9c-36,12 -59,12 -42,1c11,-7 10,-9 -3,-14c-9,-4 -14,-3 -11,2c7,11 -22,36 -31,27c-3,-3 -1,-6 6,-6c7,0 9,-4 6,-10c-3,-5 -21,-9 -40,-8c-19,1 -32,4 -30,8c3,4 -5,11 -18,15c-12,3 -17,9 -10,11c7,3 20,1 30,-5c12,-6 25,-6 34,0c7,5 12,9 9,10c-3,0 -20,2 -39,5c-19,2 -40,9 -48,15c-9,8 -17,8 -26,0c-9,-7 -17,-7 -23,-1c-7,7 -17,5 -30,-5c-19,-15 -19,-15 1,-9c15,4 17,4 6,-4c-16,-11 -70,-7 -83,6c-6,6 -3,16 6,25c14,14 14,16 0,21c-8,3 -24,1 -34,-4c-29,-16 -38,-11 -10,5c31,18 20,19 -23,2c-28,-11 -37,-10 -67,5c-19,10 -29,18 -22,18c9,0 11,7 7,21c-6,19 -5,20 14,9c12,-6 26,-8 31,-5zm970,-275c-13,-9 -13,-10 0,-10c12,0 12,-2 2,-9c-8,-4 -13,-11 -12,-14c1,-4 5,-20 10,-37c5,-17 5,-32 -1,-35c-5,-4 -10,-1334 -11,-3408l-3,-3402l-5,3440l-5,3440l-3,-3436c-1,-2628 1,-3438 10,-3447c9,-9 9,-17 -1,-36c-8,-13 -11,-29 -7,-34c3,-5 -2,-16 -11,-23c-9,-8 -14,-9 -11,-4c4,6 -13,9 -45,6c-43,-3 -53,0 -70,20c-14,19 -17,20 -13,5c5,-14 2,-17 -9,-12c-9,3 -13,2 -10,-4c3,-5 1,-19 -5,-31c-11,-20 -12,-20 -31,-3c-11,10 -19,12 -19,6c0,-7 -9,-12 -20,-12c-18,0 -25,11 -17,25c1,2 -7,10 -17,18c-11,8 -16,19 -12,26c6,9 11,9 21,1c24,-20 77,-31 92,-19c7,6 10,15 7,20c-8,14 19,11 41,-4c11,-8 41,-15 68,-16l47,-2l0,3491c0,2790 3,3490 13,3484c8,-5 8,-2 -2,9c-12,15 -10,17 15,17c22,0 26,-3 14,-10zm-390,-3468l0,-3437l-21,-14c-19,-11 -21,-11 -15,4c3,9 6,1562 6,3451c0,3046 2,3434 15,3434c13,0 15,-389 15,-3438zm870,-723c0,-2205 -3,-4009 -7,-4009c-5,0 -7,1802 -6,4005c1,2489 -1,4005 -7,4005c-6,0 -10,-818 -9,-2151c0,-1183 -2,-2154 -5,-2157c-8,-7 -8,4292 0,4312c3,8 12,12 20,9c12,-4 14,-564 14,-4014zm-1954,2971c15,0 23,-4 19,-10c-4,-6 -15,-8 -26,-5c-10,4 -19,2 -19,-4c0,-5 15,-8 33,-6c25,4 29,2 17,-6c-12,-8 -10,-9 10,-5c14,3 31,6 38,6c7,0 11,4 7,9c-3,5 -1,12 5,16c5,3 10,2 10,-3c0,-5 10,-9 23,-8c21,1 47,-15 47,-29c0,-4 -9,-5 -19,-2c-19,5 -20,-7 -3,-36c2,-5 5,-331 6,-725c0,-393 0,-708 -2,-699c-4,20 -13,22 -30,5c-15,-15 -28,-3 -14,14c10,13 16,52 12,73c-1,6 -6,-1 -10,-15c-7,-22 -8,-21 -9,13c-1,28 2,36 12,31c9,-6 9,-4 -1,8c-11,13 -13,141 -10,656l3,640l-47,21c-26,11 -65,24 -88,27c-22,4 -38,9 -36,13c2,3 -16,6 -40,7c-24,0 -54,5 -66,12c-13,6 -32,13 -43,15c-11,3 -3,5 17,6c20,0 40,-3 43,-9c11,-18 23,-10 17,12c-3,14 -2,19 6,14c7,-4 12,-13 12,-19c0,-7 15,-12 38,-12c32,0 38,3 41,25l4,25l9,-27c7,-21 16,-28 34,-28zm-2546,-839c0,-5 -6,-11 -12,-14c-8,-2 -9,-8 -4,-13c5,-5 11,-4 13,3c2,7 12,9 21,6c14,-4 15,-3 2,6c-8,5 -11,13 -8,16c10,10 28,-4 28,-21c0,-8 8,-14 18,-14c15,0 15,2 2,11c-11,8 -8,9 14,4c15,-3 41,-9 57,-12c16,-3 29,-9 29,-14c0,-5 7,-6 15,-3c8,4 15,2 15,-3c0,-5 12,-8 28,-7c15,1 40,-5 55,-13c16,-8 34,-12 41,-10c7,3 19,1 27,-4c11,-7 11,-9 -3,-9c-10,0 -18,-8 -18,-17c0,-13 9,-19 35,-20c20,-2 35,2 35,8c0,6 8,8 18,5c14,-5 14,-4 -2,9c-24,18 -16,19 18,4c14,-7 23,-15 21,-20c-3,-4 4,-5 15,-2c11,3 28,2 37,-3c10,-4 23,-9 28,-9c23,-4 50,-21 53,-34c2,-11 -2,-10 -22,3c-27,17 -76,22 -76,7c0,-5 12,-11 27,-13c19,-2 28,-9 30,-23c1,-12 0,-14 -3,-4c-5,17 -104,42 -101,26c4,-18 -21,-18 -38,-1c-10,10 -27,19 -38,19c-25,2 -60,43 -50,59c3,6 -3,2 -15,-8c-22,-19 -22,-19 -20,5c2,19 -2,25 -22,27c-24,2 -24,2 -6,-13c14,-11 16,-15 5,-15c-12,0 -12,-2 1,-11c12,-8 11,-10 -5,-7c-11,2 -21,9 -21,16c-1,6 -2,20 -3,30c-1,15 -4,15 -20,-4c-17,-21 -19,-21 -44,-6c-15,9 -25,22 -22,29c2,7 0,13 -5,13c-6,0 -10,-8 -10,-17c0,-15 -2,-16 -9,-3c-6,8 -7,18 -5,22c3,4 -2,8 -11,8c-9,0 -14,-4 -11,-9c4,-5 -2,-7 -11,-5c-17,5 -18,-34 -13,-750c3,-415 4,-776 2,-803c-3,-40 -8,-50 -28,-60c-21,-10 -28,-8 -43,8c-10,11 -22,34 -25,51c-3,17 -6,372 -6,789c0,584 3,759 12,759c9,0 9,3 1,11c-14,14 -5,49 13,49c8,0 14,-4 14,-9zm690,-192c-11,-7 -4,-8 24,-3c27,5 37,3 32,-4c-4,-6 4,-16 16,-23c21,-11 22,-11 9,4c-12,15 -11,17 12,15c14,-1 24,-6 21,-10c-2,-4 4,-7 13,-7c40,-2 69,-8 90,-19c12,-7 29,-12 37,-12c9,0 16,-7 16,-15c0,-8 8,-15 18,-15c14,0 15,2 2,10c-21,14 -12,12 51,-6c30,-9 65,-18 79,-20c41,-5 127,-33 104,-33c-12,-1 -40,6 -63,14c-40,14 -41,14 -31,-5c6,-11 7,-20 3,-20c-4,-1 6,-7 22,-14c30,-13 30,-13 -17,-12c-27,1 -48,5 -48,9c0,4 -9,3 -21,-3c-11,-6 -25,-9 -32,-6c-7,2 -4,5 6,5c10,1 16,5 13,10c-3,5 6,12 21,16c17,4 29,2 34,-7c5,-7 9,-8 9,-3c0,20 -18,37 -30,30c-9,-5 -11,-4 -6,3c5,8 -3,12 -24,12c-18,0 -29,4 -25,10c10,16 -21,12 -35,-5c-7,-8 -16,-12 -21,-9c-5,3 -9,-1 -10,-8c0,-10 -2,-10 -6,0c-7,18 -23,15 -23,-5c0,-9 -3,-13 -7,-10c-3,4 -12,2 -20,-5c-11,-9 -12,-7 -4,16c8,19 7,26 -1,26c-6,0 -9,2 -7,5c3,2 20,1 37,-4c20,-6 32,-6 32,0c0,5 -10,9 -22,10c-22,0 -22,1 -3,9c25,10 -141,7 -170,-4c-11,-4 -7,0 10,10c16,9 42,17 57,16c16,0 26,4 23,9c-9,13 -37,11 -76,-5c-41,-16 -66,-11 -48,10c9,11 9,14 0,14c-7,0 -9,5 -6,10c3,6 1,10 -4,10c-6,0 -11,-4 -11,-9c0,-5 -11,-8 -24,-7c-20,1 -22,4 -15,19c5,9 15,17 22,17c8,0 7,-4 -3,-11zm-555,-1479c-17,-6 -16,-8 8,-14c29,-7 51,0 42,13c-2,5 7,6 20,3c14,-2 25,-8 25,-12c0,-11 107,-33 119,-26c5,4 13,2 16,-4c4,-6 16,-8 28,-5c21,6 22,6 3,-9c-20,-16 -20,-16 0,-16c11,0 25,5 32,12c9,9 15,9 24,0c17,-17 29,-15 22,3c-8,19 5,19 29,1c17,-13 16,-15 -13,-21c-17,-4 -29,-12 -27,-18c4,-14 91,-28 95,-16c6,15 20,10 25,-8c4,-15 5,-14 6,2c0,12 -4,26 -11,33c-7,7 -8,12 -2,12c5,0 18,-11 28,-25c19,-25 43,-35 30,-12c-4,6 2,4 13,-5c11,-10 24,-18 29,-18c5,0 2,4 -6,10c-8,5 -11,12 -7,16c4,4 13,1 20,-8c6,-9 19,-19 27,-22c8,-3 5,-4 -7,-2c-12,2 -27,-2 -33,-9c-14,-17 -96,-9 -139,14c-11,6 -29,11 -40,11c-11,0 -26,7 -35,15c-8,8 -23,15 -33,15c-15,0 -16,-2 -3,-10c8,-5 10,-10 4,-10c-5,0 -19,7 -30,15c-10,8 -30,15 -44,15c-23,1 -23,2 -5,10c19,8 19,9 -2,9c-13,1 -23,-4 -23,-9c0,-6 -11,-5 -27,3c-16,8 -34,12 -41,10c-7,-3 -18,0 -25,6c-7,5 -31,15 -52,20c-22,6 -65,17 -95,24l-55,14l65,0c35,0 56,-3 45,-7zm1125,-301c0,11 4,9 15,-5c10,-12 14,-14 12,-4c-2,8 -2,12 0,7c3,-4 8,-5 13,-2c5,3 20,1 34,-5c17,-6 26,-6 26,0c0,6 5,10 11,10c5,0 8,-4 4,-9c-3,-5 -1,-12 4,-15c5,-4 12,-2 16,4c3,5 16,10 28,9c20,-1 20,-2 -3,-9c-25,-8 -25,-8 5,-10l30,-2l-30,-7c-26,-6 -27,-8 -10,-13c11,-4 49,-7 84,-7c52,-1 69,-6 92,-26c19,-15 24,-25 16,-29c-6,-2 4,-4 23,-3c25,1 34,-2 32,-11c-1,-8 2,-12 8,-10c20,6 16,23 -7,33c-13,5 -23,13 -23,17c0,4 11,2 25,-4c22,-10 29,-20 27,-39c-1,-3 4,-6 11,-6c7,0 22,-3 35,-7c30,-10 28,2 -3,14c-38,14 -31,30 7,19c18,-5 34,-9 36,-9c2,0 1,-4 -2,-9c-5,-7 8,-13 44,-22c3,0 10,-5 17,-10c7,-7 14,-6 18,1c8,13 35,13 35,-1c0,-6 -6,-9 -13,-6c-8,3 -14,-1 -14,-9c0,-7 4,-11 9,-8c5,3 16,0 25,-8c12,-9 15,-9 9,0c-4,6 -2,12 3,12c6,0 11,-4 11,-10c0,-5 20,-8 45,-7c25,1 45,4 45,7c0,3 11,5 25,5c24,0 36,-14 15,-16c-5,-1 -14,-3 -20,-4c-5,-1 -17,-3 -26,-4c-8,0 -12,-6 -9,-12c4,-5 12,-8 18,-6c7,2 28,-3 47,-11c26,-10 32,-11 23,-1c-17,17 -16,29 2,29c8,0 15,5 15,10c0,11 44,-30 46,-42c1,-5 2,-12 3,-16c1,-9 111,4 121,14c3,3 -20,4 -51,1c-59,-5 -70,4 -38,35c16,15 20,15 57,-3c60,-30 60,-45 -1,-54l-52,-8l40,-9c22,-5 55,-13 74,-19c29,-10 36,-8 54,10c13,12 16,21 9,21c-7,0 -15,-7 -18,-15c-4,-8 -12,-15 -20,-15c-22,0 -16,17 7,23c13,4 18,10 14,17c-5,8 0,8 16,-1c13,-7 28,-12 32,-11c5,1 6,-2 2,-8c-3,-6 -11,-8 -16,-5c-5,4 -9,2 -9,-3c0,-5 17,-9 37,-10c21,-1 39,-6 41,-12c2,-6 9,-7 15,-3c7,4 6,-1 -2,-10c-12,-15 -12,-17 3,-11c9,3 16,10 16,15c0,5 8,9 18,9c15,0 15,-2 2,-11c-12,-9 -11,-10 8,-6c12,3 20,1 16,-4c-6,-11 10,-12 20,-1c11,10 30,9 38,-3c5,-6 8,-6 8,3c0,6 5,12 10,12c6,0 10,-7 10,-15c0,-21 20,-19 21,3c1,17 16,-26 23,-63c1,-11 9,-20 17,-20c8,0 13,6 11,13c-1,8 2,11 7,7c6,-3 8,-12 4,-20c-3,-9 1,-15 8,-15c11,0 11,-3 -1,-10c-13,-8 -12,-10 3,-10c9,0 17,-5 17,-11c0,-6 -8,-9 -17,-7c-17,5 -18,-36 -18,-751c0,-492 3,-759 10,-763c6,-4 -1,-8 -15,-8c-19,0 -22,-2 -10,-10c11,-7 8,-11 -15,-20c-30,-11 -37,-10 -73,16c-13,10 -22,13 -20,8c2,-5 -1,-9 -7,-9c-5,0 -9,2 -8,5c2,8 -70,5 -89,-4c-9,-4 -26,-3 -37,4c-12,6 -27,8 -34,4c-7,-5 -7,-1 2,10c17,20 7,31 -34,39c-16,4 -24,4 -17,1c6,-3 10,-10 6,-15c-3,-5 -14,-5 -25,2c-21,11 -41,3 -24,-9c6,-4 11,-14 13,-22c1,-10 -3,-9 -13,5c-9,11 -25,20 -37,20c-12,0 -23,5 -25,12c-3,8 7,11 28,10c44,-3 47,16 4,29c-28,9 -33,8 -24,-2c13,-16 -28,-31 -44,-15c-8,8 -6,11 6,11c9,0 17,5 17,10c0,7 -6,7 -19,0c-11,-5 -27,-7 -37,-3c-13,5 -15,3 -9,-7c6,-10 4,-11 -6,-4c-8,4 -30,9 -49,10c-19,1 -53,5 -75,8c-29,4 -33,3 -15,-3c20,-6 14,-8 -26,-7c-34,1 -47,4 -40,11c10,12 99,12 132,1c17,-6 20,-3 20,18c0,13 -4,22 -8,20c-5,-3 -6,-10 -3,-15c4,-5 -3,-9 -14,-9c-11,0 -22,9 -26,20c-4,12 -15,20 -28,19l-22,0l23,-9c39,-16 24,-20 -19,-5c-22,8 -43,14 -47,14c-25,-4 -34,2 -24,14c8,10 6,13 -9,14c-12,1 -17,-3 -13,-10c3,-7 -1,-4 -9,5c-13,16 -15,16 -32,0c-17,-15 -17,-15 -6,0c8,11 9,18 1,23c-5,3 -10,1 -10,-6c0,-7 -7,-4 -15,7c-14,18 -14,18 -8,-3c3,-14 1,-23 -6,-23c-7,0 -9,5 -6,10c10,16 -23,24 -40,10c-12,-10 -13,-16 -3,-29c11,-14 11,-14 -3,-4c-9,7 -18,11 -21,8c-3,-3 -11,1 -18,10c-7,8 -23,15 -36,15c-13,0 -24,5 -24,10c0,12 33,14 44,3c4,-5 13,-8 19,-8c7,-1 11,-7 9,-15c-2,-8 -1,-13 1,-10c3,3 6,10 7,15c1,6 11,15 23,22c20,10 18,11 -15,9c-21,-2 -38,0 -38,5c0,4 -13,4 -29,-1c-16,-4 -33,-5 -37,-2c-4,4 -4,1 1,-7c5,-9 3,-12 -6,-9c-8,3 -21,1 -31,-3c-12,-7 -15,-5 -13,9c2,9 4,20 4,25c1,4 6,7 12,7c8,0 7,-6 -2,-17c-9,-11 -10,-14 -2,-9c7,4 17,15 23,25c8,16 6,19 -14,17c-13,0 -22,-4 -19,-8c2,-5 0,-8 -6,-8c-6,0 -15,9 -21,20c-13,25 -30,26 -30,3c0,-15 -2,-16 -9,-3c-6,8 -7,19 -3,25c3,5 -1,5 -9,-2c-8,-6 -36,-14 -62,-18c-38,-6 -52,-4 -66,9c-10,9 -25,14 -34,11c-10,-4 -18,1 -23,17c-4,13 -7,26 -6,31c1,4 -7,7 -18,7c-11,0 -20,-4 -20,-8c0,-4 -10,-8 -22,-9l-23,-2l23,13c12,6 20,15 16,19c-4,3 -16,0 -28,-8c-11,-8 -27,-15 -36,-15c-9,1 -6,6 9,14l25,14l-32,7c-17,3 -41,4 -52,0c-11,-3 -20,-3 -20,2c0,4 -12,8 -27,9c-16,0 -36,4 -46,8c-14,7 -16,5 -10,-10c4,-12 3,-15 -6,-10c-7,5 -11,17 -8,27c3,12 0,19 -10,19c-8,0 -12,-4 -9,-9c3,-5 -1,-11 -9,-15c-19,-7 -31,14 -14,25c18,11 11,11 -29,0c-32,-10 -41,-4 -22,15c6,6 1,10 -16,12c-14,1 -34,7 -45,12c-11,7 -19,7 -19,1c0,-5 6,-12 13,-14c7,-3 5,-6 -5,-6c-10,-1 -18,6 -18,14c0,8 -9,15 -20,15c-26,0 -25,-14 3,-32c14,-10 29,-12 42,-7c33,13 48,11 34,-3c-10,-11 -55,-16 -76,-8c-12,4 -26,8 -40,9c-7,0 -13,9 -13,20c0,13 -10,21 -32,26c-29,6 -31,8 -13,15c11,5 15,9 8,9c-6,1 -19,4 -27,7c-12,5 -15,2 -10,-10c3,-9 2,-16 -2,-17c-5,-1 -21,-2 -37,-3c-15,-2 -35,-10 -45,-19c-23,-21 -36,-21 -52,-2c-11,14 -10,14 14,6c17,-7 26,-7 26,-1c0,6 -5,10 -11,10c-5,0 -7,5 -4,11c4,6 -3,13 -16,16c-22,6 -22,7 -3,14c26,10 53,11 37,1c-7,-4 7,-9 32,-10c24,-1 47,3 50,9c4,6 -3,7 -20,3c-15,-4 -30,-2 -34,3c-8,12 -74,26 -67,14c10,-16 -78,-19 -90,-3c-6,9 -18,12 -27,9c-9,-3 -19,-2 -22,4c-4,5 -11,6 -17,3c-7,-4 -8,-2 -4,4c4,7 1,12 -6,12c-8,1 -6,6 6,15c26,19 3,19 -34,0c-26,-14 -29,-14 -24,0c3,8 9,13 13,11c4,-3 13,-1 21,5c10,6 -2,9 -38,9c-33,0 -51,4 -47,10c3,6 -4,10 -17,10c-18,0 -20,-2 -8,-10c12,-8 11,-10 -7,-10c-12,0 -29,-7 -37,-16c-15,-14 -16,-14 -16,0c0,9 5,16 11,16c5,0 7,4 4,10c-3,6 1,7 9,4c9,-3 16,-2 16,4c0,11 -24,22 -48,22c-15,0 -15,-2 -2,-10c20,-13 8,-13 -25,0c-23,9 -26,8 -21,-5c4,-11 -2,-15 -25,-15c-17,0 -28,-4 -24,-10c4,-6 -2,-7 -16,-1c-13,4 -25,14 -27,21c-3,8 0,10 7,6c15,-9 25,18 14,38c-6,10 -13,12 -23,6c-13,-8 -12,-10 3,-10c9,0 17,-5 17,-10c0,-7 -6,-7 -19,-1c-10,6 -21,8 -24,5c-3,-3 -14,-1 -24,6c-16,10 -16,10 3,5c14,-4 24,0 28,10c3,8 2,15 -2,15c-4,0 -18,3 -32,6c-20,4 -22,3 -10,-5c13,-9 13,-11 -2,-11c-9,0 -22,-8 -28,-17c-9,-15 -10,-14 -4,7c4,14 7,31 7,38c0,7 7,10 16,8c9,-3 70,-19 136,-37c66,-17 152,-40 190,-51c39,-11 104,-28 145,-39c70,-18 156,-43 190,-56c8,-3 22,-7 30,-8c53,-6 119,-28 113,-38c-3,-6 -1,-7 6,-3c13,8 179,-30 198,-46c7,-6 13,-8 13,-5c0,5 175,-40 515,-133c105,-28 233,-63 285,-77c52,-14 142,-38 200,-53c58,-16 157,-43 220,-60c63,-17 122,-33 130,-37c8,-3 22,-7 30,-8c8,-1 55,-14 104,-28c82,-23 91,-24 113,-10c27,18 29,31 7,40c-13,5 -13,7 -2,14c9,6 10,9 1,9c-10,0 -13,159 -13,724c0,681 1,726 17,735c11,6 13,11 5,11c-7,0 -18,11 -24,25c-7,16 -19,25 -35,25c-12,0 -23,5 -23,11c0,5 -4,8 -8,5c-11,-7 -206,45 -210,56c-2,4 -7,6 -11,4c-7,-5 -196,43 -396,99c-49,14 -111,30 -137,37c-26,6 -45,15 -43,19c3,4 -3,5 -12,3c-10,-3 -58,7 -108,22c-49,14 -114,32 -144,39c-29,7 -57,18 -61,25c-4,6 -23,12 -43,13c-20,1 -37,6 -37,10c0,4 -6,7 -12,6c-7,-1 -24,3 -38,10c-25,11 -24,11 5,6c17,-3 39,-9 50,-12c16,-5 18,-3 8,8c-7,9 -29,14 -60,13c-64,-2 -83,4 -83,24c0,15 2,15 10,2c8,-13 10,-13 10,-1zm580,-3404c0,-8 -7,-15 -15,-15c-25,0 -17,-30 8,-31c12,0 16,-3 9,-6c-7,-3 -19,-2 -27,1c-9,3 -19,6 -23,7c-4,1 -17,5 -29,10c-15,6 -23,5 -23,-2c0,-6 -7,-9 -15,-5c-8,3 -15,1 -15,-5c0,-7 10,-9 26,-5c19,5 37,0 63,-17c20,-13 45,-26 56,-30c17,-6 16,-3 -5,15c-24,21 -24,21 -2,15c12,-3 20,-1 16,4c-3,6 5,7 20,3c14,-3 37,-7 50,-8c16,0 22,-4 15,-11c-6,-6 1,-18 18,-33c22,-18 35,-22 63,-18c30,5 32,4 11,-4c-28,-12 -94,-2 -85,12c4,6 -1,8 -13,4c-10,-3 -43,1 -73,10c-30,9 -65,17 -77,17c-13,1 -23,5 -23,9c0,4 -18,11 -40,14c-22,4 -37,10 -34,15c2,4 -8,8 -23,7c-35,-1 -90,9 -115,23c-10,5 -24,7 -30,3c-7,-4 -8,-3 -4,4c9,16 39,15 54,0c10,-10 15,-10 22,2c6,9 13,11 18,5c4,-5 14,-12 22,-14c24,-6 89,-3 103,6c6,4 19,6 28,5c9,-2 19,4 22,13c8,19 47,20 47,0z" id="svg_3"/>
   <path d="m533,6163c-10,-4 -13,-169 -13,-781c0,-427 3,-787 6,-799c11,-41 24,-24 17,24c-4,34 -3,44 6,39c6,-4 9,-12 5,-17c-9,-15 5,-61 17,-54c6,5 5,12 -3,23c-10,12 -10,14 0,8c9,-6 12,150 12,763c0,507 -3,771 -10,771c-5,0 -9,5 -7,11c2,13 -13,19 -30,12z" id="svg_4"/>
   <path d="m10195,9483c-44,-10 -1503,-408 -1685,-460c-271,-76 -1096,-301 -1776,-483l-572,-153l-6,-3361c-4,-1849 -10,-3431 -14,-3516l-7,-155l-78,-22c-42,-12 -93,-25 -112,-29l-35,-6l0,3078c0,2856 -7,3711 -28,3854c-7,42 -9,45 -40,48c-49,5 -250,-39 -474,-104c-11,-3 -18,-15 -18,-29c0,-22 3,-24 26,-15c32,12 37,12 29,1c-3,-5 -1,-12 4,-16c5,-3 14,2 19,11c6,11 11,13 16,5c5,-8 13,-8 26,-1c15,8 18,7 14,-3c-3,-8 2,-17 11,-21c17,-6 31,16 20,34c-3,6 3,10 15,10c13,0 19,4 14,11c-4,8 0,8 15,0c12,-7 21,-8 21,-2c0,14 36,23 60,16c11,-4 17,-11 14,-17c-5,-7 -2,-8 6,-3c10,6 9,11 -6,22c-17,13 -16,14 17,8c23,-4 39,-3 43,4c12,19 34,12 38,-14c3,-13 1,-22 -4,-19c-4,3 -7,-15 -6,-40c0,-25 5,-46 10,-46c9,0 11,-6566 2,-6659c-5,-41 -11,-61 -20,-61c-12,0 -14,540 -16,3361l-3,3361l-137,-1c-87,-1 -137,2 -140,9c-1,5 -2,-430 0,-968c1,-650 -2,-1054 -9,-1206c-9,-175 -9,-231 -1,-234c15,-5 17,-162 2,-162c-6,0 -10,-60 -10,-160c0,-100 4,-160 10,-160c7,0 10,-331 10,-972c0,-632 -4,-968 -10,-958c-7,10 -10,-9 -10,-62c0,-42 5,-80 10,-83c15,-9 14,-1122 -2,-1131c-8,-5 -9,-126 -2,-488c5,-265 9,-587 10,-716c0,-129 1,-306 2,-392l2,-158l40,0c22,0 40,-4 40,-10c0,-5 -19,-10 -42,-10c-40,-1 -42,-2 -24,-15c11,-8 16,-15 10,-15c-5,0 -1,-5 10,-11c15,-9 16,-13 5,-21c-11,-7 -11,-11 -1,-15c17,-7 15,-23 -4,-23c-21,0 -75,-58 -60,-64c6,-2 0,-5 -13,-5c-13,-1 -22,-4 -18,-7c3,-3 21,-3 39,1c28,7 30,9 13,15c-18,7 -18,9 -3,15c10,4 26,0 38,-8c20,-14 20,-15 -14,-21c-20,-4 -36,-10 -36,-14c0,-4 -13,-9 -30,-10c-16,-1 -30,3 -30,8c0,6 -4,8 -10,5c-5,-3 -10,-1 -10,4c0,6 6,11 13,11c8,0 7,3 -3,10c-19,12 -7,23 24,23l25,-1l3,322c2,176 3,1978 3,4003c0,2026 3,3683 8,3683c4,0 7,5 7,10c0,6 -8,5 -20,-2c-10,-7 -23,-9 -27,-5c-4,5 -1,12 7,17c18,11 8,23 -12,15c-13,-5 -16,-333 -21,-2753c-4,-1511 -10,-3335 -14,-4053l-6,-1306l160,-2c151,-2 165,-1 219,22c112,47 568,179 1339,387c248,67 731,198 1075,291c666,182 842,225 942,236c37,3 80,15 103,28c90,52 890,281 1095,315c36,5 80,13 98,16c30,5 32,7 32,46l0,40l-24,-16c-17,-10 -27,-12 -31,-5c-4,6 2,13 14,16c12,3 21,10 21,15c0,13 -49,1 -102,-24c-26,-13 -44,-16 -46,-10c-2,6 -10,8 -19,5c-13,-5 -13,-2 2,20c9,14 14,31 10,37c-4,6 9,10 34,10c37,0 41,3 41,24c0,30 -19,38 -42,18c-16,-13 -18,-13 -27,9c-7,20 -5,25 11,27c10,2 25,-1 33,-8c7,-6 15,-7 17,-1c3,8 57,20 97,21c11,0 13,91 9,573c-4,393 -9,581 -17,600c-6,17 -7,26 -1,22c12,-7 14,304 2,320c-4,6 -14,11 -22,13c-11,2 -11,-1 3,-11c22,-18 24,-87 2,-87c-9,0 -15,-9 -15,-25c0,-14 -4,-25 -10,-25c-5,0 -10,9 -10,19c0,27 -8,30 -74,33c-31,1 -56,6 -56,10c0,4 9,8 19,8c11,0 22,4 25,9c4,5 -10,5 -31,0c-21,-4 -39,-13 -41,-18c-6,-17 -32,-13 -32,5c0,8 4,13 9,9c5,-3 12,-1 15,4c4,5 1,11 -6,14c-7,2 0,2 15,0c16,-3 40,0 55,6c15,6 43,12 62,14c42,4 63,15 54,28c-3,6 3,13 15,16c18,5 32,43 15,43c-11,0 -623,-165 -1784,-480c-1138,-309 -1181,-320 -1270,-320l-37,0l-6,67c-8,85 -7,1157 2,1312l6,114l305,84c168,46 607,164 975,263c369,98 767,206 885,240c118,33 275,75 349,93l133,32l-6,795c-3,437 -9,814 -12,837c-4,29 -10,41 -18,36c-6,-4 -5,1 2,10c14,17 8,57 -9,57c-20,0 -452,-113 -794,-209c-990,-275 -1744,-474 -1784,-469c-22,3 -27,10 -34,48c-10,54 -5,1305 5,1315c8,9 138,45 813,229c832,228 1217,326 1351,344c39,6 90,20 114,32c65,33 100,44 410,131c157,44 311,82 342,86c32,3 63,12 69,19c9,11 8,51 -1,157c-6,79 -15,429 -20,778c-7,572 -12,704 -25,717c-2,2 -3,-30 -1,-72c1,-42 1,-78 -1,-80c-2,-2 -5,-318 -5,-702c-1,-385 -3,-689 -5,-676c-3,12 -7,22 -11,22c-11,0 -12,-73 -1,-86c7,-8 -1,-9 -33,-4c-24,5 -46,7 -49,5c-3,-2 -23,-5 -43,-7c-21,-1 -40,-6 -42,-10c-3,-5 12,-6 33,-2c21,3 49,1 63,-5c23,-10 23,-11 -7,-5c-20,3 -33,1 -33,-5c0,-6 -12,-8 -29,-5c-23,5 -32,2 -42,-14c-12,-19 -14,-19 -27,-4c-13,16 -13,16 -8,-1c5,-15 2,-16 -14,-7c-27,14 -25,34 5,54c34,22 37,21 30,-16c-5,-25 -4,-29 4,-18c6,8 11,23 11,33c0,10 4,16 9,13c4,-3 17,1 27,9c10,8 30,15 44,15c23,1 24,2 7,14c-14,11 -15,15 -5,19c8,3 5,6 -6,6c-16,1 -17,4 -8,13c9,9 12,185 12,731l0,718l-59,-6c-34,-4 -62,-2 -65,4c-3,5 -17,8 -31,7c-13,-2 -22,1 -19,5c8,13 -60,11 -73,-2c-7,-7 -13,-7 -17,-1c-3,5 15,15 41,22c33,8 49,8 51,1c4,-13 42,-15 42,-2c0,5 -8,11 -17,13c-10,3 1,8 24,12c25,5 49,3 60,-3c10,-6 12,-11 6,-11c-15,0 -18,-20 -4,-20c17,0 20,29 5,45c-9,8 -12,15 -7,15c5,0 14,-5 20,-11c7,-7 23,-7 54,2c36,9 40,13 24,19c-16,6 -13,8 18,14c20,4 37,11 37,15c0,18 -47,25 -95,14zm-326,-161c18,3 35,0 39,-6c10,-17 12,-76 3,-76c-10,0 -9,-19 2,-37c17,-27 -59,-40 -80,-14c-11,14 -12,14 -13,0c0,-12 -8,-16 -29,-15c-16,1 -33,5 -37,9c-4,4 -41,7 -82,7c-50,0 -83,5 -101,16c-26,15 -30,15 -57,0l-29,-17l35,6c26,4 30,3 15,-4c-23,-11 -77,-14 -99,-5c-20,8 -21,24 -1,24c8,0 15,-4 15,-10c0,-5 5,-10 11,-10c8,0 7,5 -2,16c-11,13 -9,15 17,9c27,-5 28,-5 6,6c-17,9 -28,9 -47,1c-14,-6 -25,-8 -25,-3c0,14 53,23 80,13c16,-6 38,-3 72,10c26,10 66,18 88,18c22,0 40,5 40,10c0,12 -13,12 -64,1c-23,-6 -35,-6 -29,0c5,5 30,13 55,18c37,6 48,5 52,-5c3,-8 11,-14 17,-14c8,0 8,4 -1,15c-10,13 -9,15 10,15c17,0 21,-4 16,-17c-5,-16 -4,-16 6,-3c7,8 24,14 38,12c24,-4 25,-3 5,12l-20,16l20,-7c11,-3 24,-11 28,-17c5,-6 6,2 3,19c-5,20 -4,25 3,16c5,-9 20,-12 40,-9zm-659,-168c-11,-12 -10,-18 4,-32c17,-16 18,-16 11,6c-3,12 -2,22 4,22c5,0 16,3 24,6c8,3 17,-2 21,-11c3,-9 2,-14 -3,-11c-5,3 -7,-19 -6,-49c1,-29 -1,-58 -4,-62c-8,-11 -61,-13 -61,-2c0,5 -54,9 -120,9c-66,0 -120,-4 -120,-8c0,-5 -36,-9 -81,-9c-73,-1 -78,0 -55,12c14,7 33,15 43,18c10,3 3,5 -15,6c-23,1 -31,-3 -26,-11c5,-8 -2,-9 -26,-5c-25,6 -30,4 -22,-6c8,-10 8,-39 -1,-138c-1,-13 -16,-18 -68,-22c-73,-6 -112,0 -106,16c2,6 -5,19 -15,29c-11,11 -17,26 -13,37c4,15 1,17 -20,13c-15,-2 -25,0 -25,7c0,7 -6,9 -12,5c-7,-4 -9,-3 -5,1c4,5 13,10 20,11c7,1 29,9 50,18c28,12 37,13 37,4c1,-8 6,-6 14,5c14,19 36,23 36,7c0,-5 -6,-10 -14,-10c-8,0 -16,-7 -20,-15c-3,-8 -10,-15 -16,-15c-6,0 -8,5 -5,10c4,7 -3,8 -22,4c-42,-10 -64,-25 -27,-18c19,4 36,1 45,-8c8,-7 20,-13 27,-12c6,1 29,3 50,4l37,2l-27,11c-16,6 -28,14 -28,19c0,12 24,10 38,-4c18,-18 14,3 -4,23c-15,17 -13,18 23,28c21,6 47,11 58,11c67,1 113,13 108,26c-6,16 13,19 23,3c3,-6 17,-8 33,-4c14,4 34,8 43,10c29,6 59,26 53,36c-4,5 0,9 8,9c10,0 14,-8 11,-22c-2,-13 -2,-17 2,-10c3,6 11,9 16,6c7,-4 8,-2 4,4c-4,7 0,12 11,13c16,0 16,1 -2,9l-20,9l20,0c11,1 38,8 60,16c55,20 71,20 55,-1zm-715,-184c-3,-5 -3,-10 2,-11c49,-4 78,-18 56,-26c-16,-6 -17,-39 -2,-49c7,-4 7,-10 1,-16c-11,-11 -164,1 -157,12c7,12 -20,19 -35,10c-10,-6 -8,-9 6,-12c15,-4 13,-6 -10,-13c-20,-6 -31,-4 -34,3c-2,7 -8,10 -13,6c-5,-3 -9,-1 -9,5c0,5 5,13 10,16c6,3 10,1 10,-4c0,-6 5,-11 10,-11c6,0 10,7 10,15c0,8 7,15 16,15c10,0 14,6 10,15c-3,9 0,15 9,15c8,0 15,-7 15,-15c0,-12 3,-12 18,3c11,9 16,22 13,27c-2,6 2,5 10,-2c9,-8 20,-9 29,-3c12,8 11,10 -5,11c-14,1 -10,4 10,9c17,4 31,8 33,9c2,0 0,-3 -3,-9zm-421,-117c11,-11 35,-12 42,-2c10,17 33,-25 27,-48c-9,-37 3,-56 25,-42c15,10 23,8 45,-11c15,-13 27,-27 27,-30c0,-13 -152,-21 -166,-9c-8,6 -26,8 -45,4c-18,-4 -69,-9 -113,-11c-45,-2 -98,-6 -119,-8c-31,-4 -37,-1 -35,12c2,10 -5,17 -17,19c-18,3 -18,2 -2,-5c11,-4 -16,-8 -65,-8c-51,-1 -73,2 -58,7c25,7 25,7 -5,9c-24,2 -25,4 -8,7c12,2 31,0 41,-6c13,-7 31,-7 58,1c43,13 50,14 77,16c10,1 16,6 12,11c-6,10 -33,7 -99,-10c-21,-6 -40,-8 -43,-6c-2,3 20,10 49,17c29,7 58,16 64,21c6,5 19,1 32,-11c11,-11 33,-22 48,-24c15,-3 30,-10 34,-16c12,-19 33,17 26,45c-5,21 -11,24 -39,20c-20,-3 -12,2 23,14c30,10 57,15 58,10c5,-13 22,-11 20,2c-2,6 3,14 11,16c10,4 11,-1 6,-18c-7,-22 -7,-22 9,-6c10,9 25,17 34,17c9,0 24,5 32,11c11,8 6,9 -20,5c-26,-5 -30,-4 -15,3c25,12 40,13 49,4zm-734,-203c-13,-8 -13,-10 2,-10c9,0 24,-3 34,-7c11,-4 15,-2 11,4c-4,6 3,9 16,8c12,-1 28,-3 35,-4c7,0 10,-5 7,-11c-3,-5 3,-10 14,-10c12,0 29,-8 39,-18c10,-10 24,-16 30,-14c7,2 12,0 12,-5c0,-5 30,-10 67,-11c65,-3 81,-7 72,-16c-4,-5 -176,-9 -292,-7c-43,1 -66,5 -62,11c3,6 1,10 -4,10c-6,0 -11,-4 -11,-10c0,-14 -121,-12 -153,3c-15,6 -27,15 -27,20c0,12 24,8 48,-8c18,-13 21,-13 16,-2c-3,8 -20,19 -37,25l-32,10l40,0c22,1 49,3 60,6c11,2 28,5 37,5c11,1 15,6 12,16c-4,10 0,15 11,15c9,0 13,-4 10,-10c-3,-5 1,-10 9,-10c10,0 13,6 10,15c-5,11 1,15 17,15c19,0 21,-2 9,-10zm-274,-75c-4,-12 0,-14 17,-10c12,3 34,1 47,-5l25,-10l-27,5c-28,5 -39,-9 -15,-18c6,-3 -7,-6 -30,-6c-25,-1 -43,4 -46,12c-2,6 -5,1 -5,-13c-1,-44 -13,-134 -18,-139c-3,-3 -10,1 -15,9c-8,11 -12,12 -16,3c-6,-16 -129,-18 -168,-3c-15,6 -24,6 -20,1c3,-6 -20,-8 -56,-6c-34,1 -56,-1 -49,-5c14,-9 -49,-5 -72,5c-17,7 -26,45 -10,45c4,0 18,3 31,7c17,4 22,3 17,-5c-4,-7 -2,-12 3,-12c6,0 11,7 11,15c0,28 35,12 43,-20c3,-12 5,-4 6,18c1,36 3,38 29,35c27,-3 45,14 20,20c-9,2 -8,0 2,-8c13,-10 12,-11 -3,-6c-10,3 -26,6 -35,7c-9,0 -4,5 11,9c27,8 71,0 109,-20c9,-5 33,-6 54,-3c34,6 35,7 19,19c-21,16 -16,27 9,18c9,-3 16,-14 17,-23c0,-10 2,-12 6,-3c3,7 -3,24 -12,38c-16,25 -16,26 2,20c10,-3 38,1 63,9c35,10 39,14 20,15l-25,2l25,8c38,12 43,11 36,-5zm-748,-194c9,-5 32,-16 50,-23c33,-13 43,-42 17,-52c-8,-3 -15,-15 -15,-26c0,-11 7,-23 15,-26c30,-12 14,-24 -29,-24c-25,0 -48,-4 -51,-10c-9,-15 -54,-12 -71,5c-13,12 -12,15 5,24c13,7 20,8 23,1c2,-6 12,-3 24,6c19,16 20,19 5,36c-8,10 -22,18 -31,18c-8,0 -22,5 -30,10c-11,7 -7,9 15,6c17,-2 24,-1 17,1c-10,4 -10,8 -1,19c14,17 -2,19 -31,4c-11,-6 -21,-6 -24,-1c-7,11 59,24 84,16c22,-7 28,10 8,18c-7,3 -10,6 -5,6c4,1 15,-3 25,-8zm-486,-3539c-1,-1863 1,-3415 6,-3448c9,-72 5,-88 -25,-91c-18,-2 -23,2 -23,21c0,14 4,26 10,28c6,2 11,1173 13,3433c2,1887 5,3436 7,3443c2,6 6,9 9,6c3,-3 5,-1530 3,-3392zm3855,2899c7,-26 49,-30 47,-5c-1,7 16,12 41,12c35,1 44,-3 53,-22c10,-23 7,-36 -10,-36c-4,0 -9,10 -9,23l-2,22l-4,-22c-5,-24 -7,-25 -103,-28c-80,-3 -107,-6 -92,-12c6,-2 12,-14 12,-24c0,-18 -5,-19 -43,-15c-24,3 -52,8 -63,12c-18,6 -18,6 1,-9c20,-16 20,-16 -6,-17c-14,0 -45,-13 -67,-30c-44,-31 -73,-41 -50,-16c7,8 17,11 22,8c9,-5 2,86 -10,141c-5,23 -3,27 15,27c11,0 21,-5 21,-12c0,-9 3,-9 12,0c18,18 45,14 51,-8c5,-20 27,-28 27,-10c0,6 4,10 9,10c5,0 8,-11 7,-25c-2,-13 1,-22 5,-19c5,3 9,0 9,-5c0,-6 4,-11 9,-11c15,0 24,41 12,53c-23,23 -10,34 45,36c49,2 56,0 61,-18zm-685,-145c-3,-5 1,-7 9,-4c15,6 81,-3 133,-17c21,-6 27,-5 22,4c-4,6 -1,11 6,11c8,0 15,-11 16,-23c1,-19 -5,-26 -33,-34c-19,-6 -53,-10 -75,-8c-22,2 -40,-1 -40,-6c0,-5 -8,-9 -17,-10c-15,0 -15,-2 2,-8c16,-7 11,-11 -30,-23c-51,-15 -71,-14 -45,2c12,8 9,10 -10,11c-23,0 -23,1 -5,9c17,7 17,9 3,9c-19,1 -26,21 -8,21c6,0 10,13 10,28c0,15 5,33 11,39c13,13 60,12 51,-1zm-533,-162c31,-7 32,-8 26,-45c-6,-34 -4,-39 12,-39c10,0 24,-4 31,-9c11,-7 10,-9 -3,-14c-9,-4 -13,-3 -10,3c8,13 -4,13 -82,-2c-58,-11 -66,-10 -75,5c-5,9 -14,17 -20,17c-7,0 -7,-4 1,-13c6,-8 8,-17 4,-20c-12,-13 -23,-7 -23,13c0,23 -1,24 -35,8c-17,-8 -29,-8 -36,-1c-6,6 -3,9 10,9c11,-1 19,3 18,9c-1,5 -15,11 -30,11c-30,2 -64,24 -36,24c8,0 20,10 28,22c12,20 14,20 23,4c8,-14 12,-15 25,-4c8,7 36,15 62,19c68,9 75,10 110,3zm-285,-133c11,-17 -6,-43 -25,-38c-12,3 -16,0 -12,-9c6,-17 5,-17 39,1c16,8 36,15 44,14c10,0 8,-3 -5,-9c-14,-6 -16,-9 -5,-10c8,-1 -10,-8 -40,-15c-30,-7 -57,-11 -59,-9c-2,2 1,4 7,4c7,0 12,5 12,10c0,7 -6,7 -18,1c-10,-5 -29,-11 -43,-13c-13,-2 -30,-8 -38,-12c-11,-7 -13,-5 -8,7c3,10 2,17 -3,17c-6,0 -10,-11 -10,-24c0,-22 -4,-24 -27,-19c-16,3 -32,6 -38,7c-5,1 -16,5 -22,9c-8,5 -13,4 -13,-2c0,-6 -11,-11 -25,-11c-14,0 -25,-5 -25,-11c0,-6 7,-9 15,-5c26,10 16,-3 -15,-19c-43,-22 -73,-20 -65,5c7,23 -10,28 -19,5c-4,-11 -13,-14 -32,-9c-23,6 -26,4 -21,-10c4,-10 1,-16 -9,-16c-8,0 -26,-11 -40,-25c-14,-14 -30,-25 -37,-25c-8,0 -7,4 3,10c15,9 16,52 4,133l-6,37l46,0c46,0 46,0 46,-34c0,-36 14,-56 23,-32c3,8 16,12 31,11c16,-2 24,1 20,7c-4,6 -8,23 -10,37c-3,25 0,27 39,29c23,1 50,-1 60,-4c17,-5 17,-8 3,-29c-18,-27 -6,-41 22,-26c10,5 28,7 40,4c18,-4 21,-1 17,17c-4,21 -2,22 45,16c39,-5 50,-3 50,8c0,10 10,14 36,11c23,-1 37,2 41,11c6,16 19,18 27,5zm-979,-201c-3,-5 -1,-10 4,-10c6,0 11,5 11,10c0,6 13,10 29,10c24,0 28,-3 24,-20c-3,-11 -8,-20 -12,-20c-3,0 -7,-12 -7,-26c-2,-30 -4,-33 -32,-37c-12,-2 -25,-7 -29,-12c-5,-4 3,-5 15,-2c22,5 23,3 17,-21c-4,-15 -8,-32 -8,-39c0,-7 -4,-10 -8,-7c-9,5 -6,-34 5,-58c4,-10 6,-23 3,-30c-3,-7 -6,-3 -6,10c-1,12 -5,22 -11,22c-7,0 -10,-206 -10,-598c0,-591 0,-598 -20,-599c-20,-2 -20,4 -18,600c0,331 4,584 8,562c5,-26 6,-14 3,33c-3,40 -1,78 4,85c12,16 14,57 3,57c-5,0 -11,-8 -13,-17c-4,-14 -5,-12 -6,5c-1,14 5,22 15,22c8,0 12,5 9,10c-8,12 16,80 28,80c4,0 5,-4 2,-10zm2466,-974c15,9 67,-6 73,-22c4,-9 -3,-18 -17,-24c-18,-7 -19,-9 -3,-9c13,-1 16,-6 12,-17c-4,-9 -2,-22 3,-28c5,-6 11,-21 15,-32c6,-21 4,-22 -110,-23c-72,-1 -122,3 -130,10c-13,10 -126,14 -171,5c-46,-9 -117,-15 -93,-8c15,5 20,11 13,15c-6,4 -19,4 -30,1c-14,-5 -15,-4 -7,5c9,9 21,10 48,3c20,-6 36,-9 36,-7c0,2 3,11 6,20c7,17 -15,18 -27,1c-4,-5 -19,-4 -35,3c-19,7 -22,10 -9,9c11,0 29,2 40,6c11,4 31,12 45,17c21,8 23,7 9,-4c-14,-10 -15,-17 -5,-35c12,-22 27,-21 22,1c-2,7 -1,9 1,5c3,-5 19,-8 36,-8c30,1 31,2 13,15c-10,8 -23,12 -27,9c-18,-11 -8,9 14,27c23,19 42,25 33,10c-3,-4 7,-8 22,-9c15,0 46,-4 68,-9c25,-6 48,-6 58,-1c10,5 24,5 38,-2c21,-10 21,-10 6,3c-22,17 -23,31 -3,23c8,-3 15,-1 15,4c0,6 -4,10 -10,10c-5,0 -10,5 -10,10c0,6 9,10 21,10c11,0 18,4 14,9c-3,6 -17,6 -36,-1c-24,-8 -27,-13 -18,-24c6,-8 8,-14 3,-14c-5,0 -20,-3 -34,-6c-24,-6 -25,-6 -5,10c19,16 18,16 -20,10c-22,-4 -45,-10 -50,-15c-6,-4 -16,-4 -23,0c-8,5 22,17 75,31c48,12 92,26 98,31c5,6 13,3 18,-6c4,-9 13,-13 18,-9zm185,-103c-15,-61 -18,-115 -6,-108c9,6 9,2 0,-15c-7,-13 -10,-43 -6,-73c3,-38 3,-44 -3,-22c-5,17 -8,-220 -7,-530l1,-560l5,480l5,480l5,-485c5,-612 7,-574 -27,-567c-18,3 -21,1 -14,-6c15,-15 14,-27 -4,-27c-8,0 -15,-4 -15,-10c0,-16 40,-12 46,5c8,19 44,40 44,25c0,-5 -7,-10 -15,-10c-8,0 -15,-4 -15,-9c0,-17 20,-23 35,-11c9,7 15,8 15,2c0,-14 -30,-25 -58,-23c-13,2 -30,-5 -37,-16c-9,-10 -14,-13 -15,-5c0,17 -20,15 -20,-3c0,-8 -4,-15 -10,-15c-5,0 -10,7 -10,15c0,17 -16,20 -24,6c-4,-5 0,-12 6,-15c15,-6 -49,2 -73,10c-9,2 -22,-2 -29,-11c-7,-8 -17,-12 -22,-9c-16,10 31,36 52,29c14,-4 23,1 35,22c14,24 15,25 12,6c-3,-13 -1,-25 3,-28c17,-10 30,34 30,99c0,52 3,66 15,66c12,0 15,16 15,80c0,47 4,80 10,80c7,0 10,167 10,480c0,313 -3,480 -10,480c-6,0 -10,33 -10,80l0,80l34,0c30,0 35,4 41,30c4,17 9,30 12,30c3,0 2,-12 -1,-27zm-863,-99c4,-8 15,-14 23,-14c12,0 13,-8 8,-37c-4,-21 -8,-39 -9,-41c-4,-5 -130,-6 -215,-2c-51,2 -68,6 -55,11c17,8 17,8 -5,6c-18,-1 -24,-7 -22,-19c2,-15 -5,-18 -38,-18c-22,0 -40,4 -40,9c0,5 -8,12 -17,14c-14,4 -12,5 5,6c12,0 22,-3 22,-9c0,-5 8,-10 18,-9c10,0 12,3 4,6c-18,7 -4,23 21,23c29,1 81,29 54,30c-10,0 -27,-5 -38,-11c-11,-5 -45,-14 -75,-19c-31,-5 -66,-12 -77,-16c-12,-4 -19,-4 -16,0c4,4 54,19 112,35c74,20 109,25 116,18c6,-6 14,-7 18,-2c5,4 2,10 -5,12c-17,6 -5,23 16,23c13,0 14,-2 4,-9c-10,-6 -10,-10 2,-20c8,-7 17,-8 20,-2c9,13 47,1 39,-13c-3,-6 -2,-8 2,-3c14,12 16,47 2,48c-6,0 -3,4 8,9c28,12 35,12 35,-1c0,-5 -6,-7 -12,-3c-7,4 -10,3 -5,-1c12,-14 48,-13 43,1c-2,6 -2,15 1,18c9,9 47,-5 56,-20zm-553,-134c8,-5 11,-10 7,-10c-4,0 -2,-6 5,-14c7,-8 16,-12 20,-9c4,2 5,-3 2,-11c-4,-10 -1,-16 9,-16c8,0 17,-7 21,-15c7,-19 -3,-47 -15,-40c-4,3 -6,12 -3,19c3,8 1,17 -5,21c-6,3 -11,0 -11,-7c0,-7 -5,-20 -10,-28c-9,-13 -11,-13 -20,0c-7,11 -12,12 -17,3c-6,-7 -50,-11 -138,-11c-71,1 -121,3 -110,5c41,10 34,20 -12,19c-26,0 -40,-2 -30,-4c9,-2 17,-8 17,-12c0,-6 -11,-5 -26,1c-15,5 -29,7 -32,4c-3,-3 0,-5 7,-5c7,0 10,-4 6,-9c-3,-5 9,-12 27,-14c18,-2 -4,-5 -50,-5c-50,-1 -81,2 -77,7c3,6 -3,14 -12,20c-14,8 -15,11 -3,11c8,1 23,3 33,5c9,2 15,0 12,-5c-3,-4 4,-10 15,-13c11,-3 18,-1 15,3c-3,5 -2,10 2,13c5,2 2,2 -4,1c-7,-2 -13,0 -13,5c0,5 25,7 56,6c37,-1 68,4 90,16c19,9 34,13 34,8c0,-9 5,-7 67,24c31,15 33,15 48,-6c12,-18 15,-18 15,-4c0,14 8,16 48,13c26,-2 37,-2 25,1c-13,2 -23,9 -23,14c0,6 5,7 10,4c6,-3 10,-1 10,4c0,6 -17,11 -37,11c-27,0 -34,-3 -23,-9c8,-6 18,-7 24,-4c5,3 6,1 3,-4c-4,-6 -18,-8 -32,-5c-20,3 -23,7 -14,18c13,16 67,18 89,4zm-458,-138c-15,-10 -10,-54 6,-60c7,-2 12,-21 12,-42c0,-41 -13,-49 -71,-42c-22,3 -25,8 -21,33c5,32 -23,53 -38,29c-5,-8 -15,-15 -23,-16c-20,-3 -9,44 12,49c9,3 6,5 -9,6c-14,0 -32,-4 -40,-10c-13,-9 -12,-10 3,-5c9,3 17,1 17,-4c0,-11 -11,-13 -34,-4c-9,3 -14,10 -11,14c3,5 1,11 -5,15c-5,3 -10,-3 -10,-13c0,-11 -7,-25 -15,-32c-8,-7 -15,-19 -15,-27c0,-11 9,-13 38,-9c34,6 73,-6 61,-18c-3,-3 -63,-8 -135,-10c-71,-3 -160,-8 -199,-11c-45,-4 -65,-3 -57,3c11,7 9,10 -7,15c-12,3 -21,11 -21,19c0,9 3,9 8,2c8,-12 52,-26 52,-17c0,3 -8,12 -17,19c-17,12 -16,13 4,14c12,0 30,3 40,6c15,5 16,4 3,-5c-12,-10 -11,-11 10,-9c14,2 24,8 23,14c-1,7 8,9 22,6c29,-5 33,-19 8,-25c-16,-4 -16,-5 -1,-6c24,-1 34,20 16,33c-12,9 -5,12 31,14c74,4 125,18 116,33c-3,5 1,6 9,3c9,-3 16,-2 16,3c0,5 16,14 35,20c19,6 33,7 29,2c-3,-5 -12,-9 -21,-9c-9,0 -14,-2 -11,-5c2,-3 27,-1 54,4c30,6 55,6 66,0c14,-7 20,-6 24,6c3,8 10,13 14,10c5,-3 11,-1 15,5c3,5 12,10 18,10c9,0 8,-3 -1,-8zm-724,-156c23,0 42,-4 42,-8c0,-5 -22,-8 -50,-8c-27,0 -50,-4 -50,-8c0,-13 99,-5 116,9c12,10 12,14 2,20c-7,5 -8,9 -2,9c17,0 33,-22 27,-38c-4,-10 -2,-13 5,-8c7,4 12,1 12,-9c0,-9 -4,-13 -10,-10c-5,3 -10,1 -10,-4c0,-6 -14,-11 -31,-11c-16,0 -28,3 -26,8c3,4 -8,8 -24,9c-17,1 -27,-2 -24,-8c4,-5 10,-7 15,-4c5,3 15,-1 23,-9c8,-8 17,-13 19,-10c3,2 18,-1 34,-8c20,-9 30,-21 32,-39c3,-26 2,-26 -59,-28c-94,-2 -132,7 -126,30c4,14 0,19 -14,19c-14,0 -19,7 -19,30c0,17 -4,30 -10,30c-5,0 -10,5 -10,12c0,6 10,2 23,-10c13,-12 25,-22 28,-22c4,0 8,24 9,63c1,14 5,17 18,11c9,-5 36,-8 60,-8zm-1881,-2343c-1,-290 -2,-55 -2,522c0,578 1,815 2,528c2,-287 2,-759 0,-1050zm4162,1398c19,-6 37,-9 39,-6c3,3 10,-5 16,-18c8,-15 21,-22 44,-23c45,-1 54,-14 10,-14c-20,0 -38,-3 -41,-7c-2,-5 -2,-2 -1,5c4,13 -18,17 -30,5c-10,-10 -35,-12 -41,-3c-6,10 -55,0 -55,-12c0,-5 -5,-6 -12,-2c-7,4 -8,3 -4,-4c5,-8 0,-12 -13,-12c-14,0 -19,5 -15,15c4,8 1,15 -5,15c-12,0 -14,-11 -5,-33c4,-12 12,-13 37,-6c18,5 39,9 47,8c8,0 -6,-6 -31,-13c-35,-10 -58,-10 -103,-2c-31,7 -54,15 -50,19c4,4 0,7 -9,7c-10,0 -14,-5 -11,-15c5,-13 -1,-12 -37,3c-23,10 -45,24 -47,32c-3,7 0,10 7,6c7,-5 11,3 11,23l0,31l63,2c34,0 72,0 85,-1c12,-1 30,2 39,8c19,10 63,7 112,-8zm-429,-151c-11,-7 -5,-10 25,-11l40,-2l-40,-7c-37,-7 -38,-7 -10,-10c17,-2 38,-4 47,-4c9,0 15,-3 12,-8c-3,-4 -24,-5 -47,-2c-31,4 -38,3 -27,-5c13,-9 13,-11 -2,-11c-9,0 -18,6 -20,12c-4,10 -10,10 -31,1c-23,-11 -27,-10 -27,2c0,8 -4,15 -9,15c-18,0 -41,-12 -41,-22c0,-6 7,-5 15,2c9,7 18,10 21,7c3,-3 -4,-10 -15,-17c-12,-6 -19,-14 -17,-19c3,-4 -9,-6 -27,-3c-21,2 -28,0 -19,-6c9,-6 1,-12 -29,-21c-22,-7 -44,-10 -47,-7c-3,3 2,6 11,6c9,0 18,4 21,9c3,5 -5,8 -19,7c-14,0 -25,-5 -25,-10c0,-4 -7,-6 -15,-2c-8,3 -15,1 -15,-4c0,-6 8,-10 18,-11c9,0 12,-3 5,-5c-7,-3 -28,2 -48,12c-20,9 -39,14 -42,10c-3,-3 2,-6 12,-6c27,0 11,-11 -24,-16c-21,-4 -31,-1 -31,8c0,8 -5,5 -11,-5c-6,-10 -9,-27 -6,-38c3,-10 1,-17 -4,-13c-5,3 -9,12 -9,20c0,17 -16,19 -23,2c-3,-7 -6,1 -7,17c-1,17 -4,24 -7,18c-7,-20 -22,-15 -16,5c2,10 -3,24 -11,31c-9,8 -16,26 -16,42l0,28l118,1c174,1 312,7 319,14c4,3 25,6 47,6c30,0 37,-3 26,-10zm-718,-183c5,-9 10,-9 20,1c15,15 29,16 26,0c-2,-7 -27,-24 -56,-39c-28,-14 -49,-29 -45,-32c3,-4 -5,-7 -18,-6c-13,0 -18,3 -11,6c24,9 11,23 -22,23c-20,0 -36,-6 -39,-14c-6,-15 -30,-18 -79,-9c-25,4 -28,9 -28,43l0,39l123,0c80,-1 124,-5 129,-12zm-425,-139c-2,-7 -11,-12 -20,-12c-9,1 -14,-2 -11,-7c3,-5 -4,-9 -15,-9c-11,0 -23,-5 -27,-12c-5,-8 -10,-6 -16,8c-6,14 -7,12 -3,-8c3,-16 1,-28 -5,-28c-5,0 -10,5 -10,10c0,6 -5,10 -11,10c-6,0 -8,-7 -5,-16c4,-10 2,-14 -6,-11c-7,2 -12,10 -10,16c4,20 -13,12 -23,-11c-6,-12 -17,-23 -25,-26c-12,-3 -12,-2 -1,6c18,13 -3,25 -29,17c-23,-7 -26,-21 -7,-28c6,-2 -1,-2 -18,1c-16,2 -35,8 -40,13c-6,4 -17,3 -25,-3c-12,-8 -11,-8 5,-3c16,5 17,4 8,-6c-10,-10 -18,-10 -38,-1c-36,16 -44,14 -20,-5c19,-15 19,-15 -10,-9c-24,5 -27,4 -12,-5c10,-6 32,-8 50,-5l32,6l-28,-11c-21,-8 -36,-8 -52,-1c-24,11 -66,5 -76,-11c-10,-14 -29,1 -22,18c3,9 -1,15 -8,16c-8,0 13,8 46,17c47,14 60,21 60,37c0,23 30,32 50,15c11,-9 15,-9 15,-1c0,6 -10,16 -22,21c-18,7 -11,9 35,11c120,4 159,1 152,-11c-3,-5 3,-10 14,-10c12,0 21,4 21,10c0,5 13,7 30,4c23,-5 30,-3 30,10c0,11 9,16 26,16c16,0 24,-5 21,-12zm-592,-158c-3,-5 -2,-10 4,-10c5,0 13,5 16,10c3,6 11,10 18,10c17,0 -23,-26 -53,-34c-18,-5 -21,-5 -10,3c8,5 12,13 8,16c-7,7 -58,-34 -58,-46c0,-4 9,-5 21,-2c16,5 18,8 7,15c-9,7 -8,8 5,4c10,-3 24,-6 30,-7c7,0 -4,-6 -23,-13c-35,-13 -64,-6 -82,19c-4,6 -8,1 -8,-10c0,-17 -2,-17 -10,-5c-8,13 -10,13 -10,-1c0,-9 -7,-22 -15,-29c-18,-15 -21,-65 -3,-54c8,5 9,2 3,-12c-5,-10 -8,-38 -8,-61c1,-24 -2,-43 -7,-43c-15,0 -13,-1345 1,-1372c6,-11 9,-22 6,-24c-8,-8 -38,27 -32,37c4,5 -1,6 -10,3c-15,-6 -16,56 -13,715c2,396 0,721 -4,721c-5,0 -9,-289 -10,-642l-3,-643l-2,643c-3,561 -5,642 -18,642c-12,0 -15,16 -15,80l0,80l68,-1c37,0 61,-3 55,-6c-7,-2 -13,-9 -13,-14c0,-5 10,-4 23,3c21,12 29,14 62,21c8,2 18,6 21,10c11,11 66,8 59,-3zm2503,-1006c15,-4 22,-14 22,-30c0,-13 5,-24 11,-24c8,0 8,-4 1,-13c-7,-8 -7,-18 -2,-27c7,-10 10,-11 10,-2c0,6 5,12 10,12c6,0 10,-8 10,-18c0,-17 -11,-19 -135,-20c-74,-1 -135,2 -135,6c0,4 -11,8 -25,8c-14,1 -25,-2 -25,-7c0,-5 -27,-8 -60,-7c-33,1 -60,6 -60,10c0,4 10,8 22,8c12,0 19,3 15,6c-9,10 -59,-5 -52,-15c5,-10 -42,-8 -51,2c-3,2 18,10 46,17c52,12 86,8 75,-10c-4,-6 5,-10 22,-9c25,0 26,1 8,9l-20,9l20,1c11,2 26,2 33,1c6,-1 12,3 12,9c0,5 8,10 19,10c30,0 81,21 75,31c-3,5 2,9 10,9c9,0 16,5 16,10c0,6 8,10 18,9c10,0 12,-3 5,-6c-20,-7 -15,-19 8,-19c14,0 19,5 16,18c-3,10 -1,18 4,18c9,0 13,-15 10,-33c-1,-5 3,-6 9,-2c6,3 8,11 5,16c-4,5 1,9 10,9c9,0 13,5 10,10c-7,11 0,12 33,4zm-463,-115c-4,-5 1,-26 10,-45c14,-31 15,-36 1,-56c-18,-25 -21,-42 -6,-33c12,7 13,-25 2,-41c-7,-10 -142,-11 -187,0c-11,2 -26,5 -32,5c-7,1 -13,10 -13,21c0,12 -7,20 -17,21c-10,0 -28,2 -40,3c-25,3 -31,-9 -10,-17c7,-3 5,-6 -5,-6c-10,-1 -18,-6 -18,-12c0,-8 -18,-10 -56,-6c-55,5 -87,17 -47,17c22,0 37,25 26,43c-3,7 2,4 13,-5c13,-11 24,-14 30,-8c12,12 66,16 83,6c9,-6 12,-3 9,10c-3,15 -12,19 -38,17c-31,-2 -32,-1 -12,7c29,12 75,2 65,-14c-4,-6 0,-6 9,2c9,7 29,14 46,15c25,2 29,5 21,20c-13,24 3,22 19,-3c7,-11 22,-19 35,-19c22,2 22,2 0,6c-12,2 -24,11 -27,19c-7,19 34,36 52,21c7,-5 16,-7 19,-3c4,4 1,11 -7,16c-8,6 -10,10 -4,10c5,0 15,-5 20,-10c7,-7 18,-4 34,10c25,22 35,26 25,9zm-631,-211c-3,-13 -11,-28 -16,-35c-6,-7 -5,-14 3,-19c8,-4 9,-3 5,4c-4,7 -2,12 3,12c6,0 12,8 12,18c1,16 2,16 6,0c2,-10 11,-18 19,-18c21,0 17,-18 -11,-46c-14,-14 -25,-31 -25,-38c0,-13 -49,-18 -60,-6c-16,17 -50,29 -55,19c-4,-6 -57,-9 -133,-8c-87,1 -127,-2 -130,-10c-2,-6 -22,-10 -45,-10c-39,1 -40,2 -12,8c26,6 27,8 10,13c-11,3 -29,9 -39,14c-15,5 -17,4 -11,-6c5,-9 4,-11 -3,-6c-7,4 -12,11 -12,15c0,8 70,32 109,37c13,2 29,8 34,13c16,16 27,13 21,-3c-3,-8 -26,-17 -53,-21c-65,-9 -77,-18 -40,-32c26,-10 29,-10 19,3c-8,9 -9,14 -2,14c6,0 14,-4 17,-10c3,-5 16,-10 28,-9c20,1 20,2 -3,8c-30,8 -17,19 31,25c19,2 42,7 52,11c10,4 17,3 17,-4c0,-6 9,-11 21,-11c12,0 19,5 16,13c-2,6 -11,11 -18,9c-8,-1 -5,4 5,13c15,11 16,15 5,16c-8,1 4,5 26,10c21,5 43,15 48,22c6,8 7,6 3,-5c-3,-10 -1,-18 5,-18c6,0 8,-4 5,-9c-4,-5 3,-7 15,-4c11,3 16,9 10,12c-5,4 -7,11 -3,16c10,14 42,18 42,5c0,-5 -6,-10 -12,-11c-7,0 -4,-4 7,-9c27,-12 43,-12 25,0c-12,7 -11,10 5,15c11,4 27,10 35,15c25,15 32,11 24,-12zm-648,-143c-15,-11 -16,-15 -5,-15c8,0 15,-9 15,-19c0,-11 -5,-17 -11,-14c-5,4 -2,-3 8,-14c12,-14 15,-23 7,-28c-6,-3 -9,-14 -8,-23c2,-13 -6,-18 -34,-20c-44,-4 -82,14 -74,34c3,8 1,14 -4,14c-5,0 -7,7 -3,16c4,12 1,15 -12,13c-10,-2 -20,-10 -23,-17c-2,-7 2,-11 8,-10c7,2 14,-2 17,-9c3,-8 -8,-10 -32,-9c-37,3 -58,16 -39,23c6,2 20,11 30,19c18,14 18,15 -3,9c-13,-4 -23,-2 -23,3c0,11 113,8 132,-4c9,-6 9,-3 -1,9c-12,15 -10,16 20,11c19,-4 31,-4 27,1c-4,4 -24,9 -45,12c-50,7 -55,13 -10,13c20,0 39,5 42,10c3,6 14,10 23,10c15,-1 15,-2 -2,-15zm-516,-135c-13,-9 -13,-11 -1,-19c8,-5 19,-7 26,-5c9,4 35,-34 35,-51c0,-3 -18,-5 -40,-5c-29,0 -42,-5 -50,-20c-6,-11 -9,-24 -6,-28c3,-4 1,-14 -3,-21c-11,-16 -164,-19 -183,-3c-9,7 -19,8 -28,2c-8,-6 -49,-9 -90,-8c-41,1 -67,3 -57,5c9,3 17,10 17,17c0,7 7,21 16,32c14,18 15,18 8,-6c-6,-23 -5,-23 8,-7c13,17 30,24 73,27c20,1 20,2 0,9c-17,7 -15,8 10,14c17,3 39,8 50,11c11,4 7,0 -10,-8l-30,-14l33,0c17,1 32,5 32,10c0,5 5,6 12,2c8,-5 9,-2 5,9c-5,14 -2,16 20,11c17,-5 24,-3 19,4c-7,12 12,19 68,26c21,3 44,10 49,15c6,6 16,11 22,11c5,0 3,-5 -5,-10zm2241,-964c18,-9 32,-10 44,-3c10,5 53,7 96,5c54,-3 79,-1 79,6c0,7 18,11 41,11c22,0 35,-1 29,-3c-9,-3 -8,-7 1,-13c10,-6 3,-9 -21,-10c-19,-1 -48,-5 -65,-10c-22,-6 -17,-7 20,-3c28,3 47,3 43,-1c-9,-9 -78,-27 -105,-27c-13,0 -21,-4 -18,-8c3,-5 -4,-6 -16,-3c-12,3 -24,1 -28,-5c-4,-6 -23,-12 -43,-14c-21,-1 -35,-4 -32,-7c3,-3 22,-4 42,-3c27,1 16,-4 -38,-19c-103,-29 -125,-30 -124,-2c0,12 -5,24 -11,27c-8,3 -11,-7 -9,-32c2,-29 0,-33 -7,-19c-6,9 -7,22 -3,28c3,6 0,15 -7,20c-10,6 -11,9 -1,9c7,0 12,14 12,38c0,21 5,43 11,49c14,14 72,8 110,-11zm-3641,-58c-24,-20 -24,-21 -3,-16c21,6 22,4 11,-15c-6,-12 -11,-23 -10,-24c1,-2 2,-12 2,-23c0,-19 -7,-20 -110,-20c-67,0 -110,-4 -110,-10c0,-5 -5,-10 -11,-10c-6,0 -9,7 -5,15c4,11 -2,15 -22,14c-23,0 -24,-2 -8,-8c13,-5 16,-10 8,-15c-6,-3 -21,-1 -33,6c-17,10 -23,10 -26,1c-6,-18 -20,-16 -27,3c-4,12 -2,15 9,11c21,-9 28,9 10,27c-14,14 -13,16 12,22c15,4 39,14 53,23l25,15l-19,-22c-11,-12 -27,-22 -38,-22c-10,0 -18,-4 -18,-10c0,-17 39,-11 60,10c11,11 20,24 20,29c0,5 12,11 28,14c15,3 36,9 47,13c11,4 17,4 13,0c-3,-4 -24,-14 -45,-22c-28,-11 -30,-13 -8,-8c17,3 47,7 67,7c20,1 34,5 32,9c-3,4 7,8 23,9c15,0 37,4 48,9c38,16 51,10 25,-12zm3074,-99c26,1 42,-4 51,-15c7,-10 17,-14 25,-9c10,6 9,9 -1,16c-12,7 5,6 116,-6c35,-3 36,-3 10,4l-30,9l37,1c29,1 36,-2 32,-14c-4,-8 -13,-15 -22,-15c-8,0 -13,-2 -10,-5c3,-3 24,-2 47,4c22,5 41,6 41,2c0,-5 -26,-13 -57,-20c-32,-7 -70,-19 -85,-27c-16,-9 -28,-12 -28,-8c0,12 34,33 55,34c14,0 16,3 7,12c-8,8 -15,8 -24,0c-23,-18 -129,-51 -146,-45c-14,5 -13,3 2,-9c18,-14 16,-15 -22,-25c-23,-6 -39,-7 -36,-2c3,5 -2,9 -10,9c-9,0 -16,-7 -16,-15c0,-8 -8,-15 -17,-15c-13,0 -14,3 -5,12c17,17 15,28 -4,28c-8,0 -12,-4 -9,-10c3,-5 -3,-10 -15,-10c-13,0 -19,4 -14,12c4,7 3,8 -4,4c-18,-11 -14,-26 10,-35c18,-6 19,-9 5,-14c-10,-4 -17,-2 -17,4c0,7 -12,8 -30,4c-29,-6 -30,-5 -30,30c0,31 3,37 19,32c25,-6 51,10 51,33c0,21 -16,25 -40,10c-16,-10 -40,5 -40,25c0,20 27,25 100,18c36,-3 82,-5 104,-4zm-334,-154c0,-7 19,-10 48,-9c27,1 54,-1 61,-5c16,-10 -91,-34 -114,-25c-11,5 -21,1 -27,-9c-5,-10 -17,-17 -28,-17c-10,0 -21,-6 -23,-12c-4,-10 -6,-10 -6,0c-1,7 9,17 22,23c53,24 69,36 53,42c-8,3 -25,-3 -37,-14c-13,-11 -34,-19 -49,-17c-14,1 -30,-1 -35,-4c-6,-3 -27,-6 -48,-6c-21,0 -46,-7 -55,-15c-9,-8 -28,-17 -42,-20c-14,-3 -1,-5 28,-4c51,2 52,1 31,-13c-34,-23 -154,-52 -135,-33c3,4 32,13 64,20c52,12 53,13 12,8c-25,-2 -61,-7 -80,-10c-26,-5 -31,-4 -20,4c23,16 6,23 -26,10c-26,-10 -27,-12 -9,-19c19,-7 19,-7 -2,-18c-12,-7 -30,-12 -40,-13c-16,0 -16,-1 1,-8c18,-7 18,-8 -5,-14c-35,-10 -46,-8 -29,4c12,9 12,10 -4,5c-10,-4 -24,-2 -31,4c-8,7 -12,5 -12,-5c0,-8 7,-15 15,-15c9,0 13,-3 10,-6c-3,-3 -21,-1 -39,5c-19,5 -28,10 -21,10c7,1 17,13 23,27c9,25 10,26 23,9c12,-17 14,-15 25,16c8,23 8,35 1,37c-13,5 -13,39 0,47c5,3 7,12 3,20c-6,17 22,21 32,5c3,-5 13,-10 21,-10c8,0 12,5 9,10c-4,7 26,10 89,9c72,-1 96,-5 96,-15c0,-7 4,-15 8,-18c5,-3 7,7 4,22l-4,27l121,0c79,0 121,-3 121,-10zm-560,-153c-1,-14 -50,-43 -62,-36c-7,4 -8,3 -4,-4c4,-7 16,-12 27,-12c11,0 18,4 15,9c-4,5 4,6 16,3c21,-5 19,-7 -12,-15c-19,-5 -43,-13 -52,-18c-29,-15 -45,-9 -18,7l25,15l-29,-6c-26,-6 -28,-4 -16,10c11,13 10,15 -3,10c-14,-6 -31,-40 -28,-58c1,-5 -3,-6 -9,-2c-7,4 -7,13 1,27c8,15 8,23 -1,32c-8,8 -10,7 -5,-5c7,-18 -28,-33 -72,-32c-13,0 -23,-6 -23,-13c0,-8 -3,-13 -7,-13c-22,4 -60,-2 -73,-11c-13,-9 -13,-11 -1,-19c11,-7 5,-11 -22,-16c-21,-4 -40,-11 -43,-16c-3,-5 -11,-9 -17,-9c-8,0 -8,3 2,9c9,6 10,11 3,15c-6,4 -9,13 -5,21c3,10 -2,15 -16,15c-12,0 -21,5 -21,10c0,6 7,10 16,10c11,0 14,8 12,33c-2,20 -8,31 -16,29c-8,-1 -12,3 -9,10c3,9 23,12 73,9c38,-2 74,-6 79,-9c16,-10 35,-11 35,-1c0,5 42,7 94,6c66,-3 93,0 90,8c-3,7 11,11 36,12c22,1 40,-1 40,-5zm-1166,-283c28,-13 26,-29 -4,-29c-10,0 -32,-13 -50,-30c-18,-16 -37,-27 -43,-23c-7,4 -3,9 9,14c11,5 -1,6 -26,2c-56,-7 -68,-17 -62,-48c2,-15 0,-25 -7,-25c-6,0 -10,6 -8,12c3,15 -53,12 -68,-4c-7,-7 -3,-8 13,-3c13,4 22,2 22,-4c0,-6 -6,-11 -12,-11c-7,0 -24,-3 -37,-7c-21,-5 -22,-4 -12,16c10,18 9,21 -8,21c-49,0 -67,-25 -29,-39c15,-5 1,-8 -42,-6c-44,1 -73,-4 -89,-14c-30,-19 -61,-24 -61,-10c0,5 -4,8 -8,5c-13,-8 -13,47 0,56c9,6 7,10 -8,14c-15,4 -21,14 -21,35c0,26 4,29 33,29c28,0 32,-3 27,-17c-3,-10 -9,-22 -14,-28c-10,-13 15,-35 30,-26c6,4 13,22 14,39c1,18 7,32 12,33c6,0 37,2 70,4c33,3 103,1 155,-4c81,-7 97,-6 108,7c7,10 12,11 12,4c0,-7 7,-12 15,-12c19,0 55,31 55,47c0,16 3,16 34,2zm-724,-219c7,-10 12,-12 18,-4c4,6 35,11 72,11c48,0 59,-2 41,-9c-13,-4 -33,-6 -44,-2c-14,4 -17,3 -12,-6c5,-9 0,-11 -21,-8c-16,3 -24,3 -17,1c16,-6 5,-33 -13,-33c-8,0 -14,-5 -14,-10c0,-14 -51,-1 -68,17c-9,8 -19,10 -26,5c-6,-5 -20,-9 -31,-9c-35,-2 -50,-8 -62,-23c-6,-8 -14,-12 -18,-8c-4,3 -15,-2 -26,-13c-10,-10 -26,-19 -34,-19c-22,0 -18,9 8,20c17,7 13,8 -17,3c-31,-5 -37,-3 -31,8c5,8 -3,4 -17,-8c-13,-13 -28,-23 -33,-23c-5,0 1,9 13,20c12,12 22,32 22,46c0,26 15,47 39,55c7,3 69,4 137,4c100,0 127,-3 134,-15zm-708,-172c0,-13 0,-33 -1,-45c-1,-13 4,-23 11,-24c7,0 2,-5 -11,-10c-13,-5 -26,-7 -29,-4c-3,3 0,5 6,5c27,0 10,15 -18,16c-27,1 -28,0 -12,-12c16,-11 15,-13 -11,-23c-39,-15 -59,-13 -22,3c24,10 26,13 12,19c-9,3 -17,3 -17,-2c0,-5 -11,-12 -25,-15c-14,-4 -23,-11 -20,-16c3,-6 3,-10 -2,-11c-79,-6 -94,-6 -75,-2c12,2 22,9 22,14c0,6 4,8 9,5c5,-3 21,0 35,8c22,11 24,15 12,25c-15,12 -49,4 -41,-10c7,-10 -39,-23 -57,-16c-9,3 -6,7 7,12c41,14 85,40 85,49c0,5 8,15 18,23c9,8 11,12 5,8c-8,-4 -13,0 -13,9c0,13 13,16 65,16c60,0 65,-2 67,-22z" id="svg_5"/>
   <path d="m10287,9369c-3,-13 -12,-19 -24,-17c-17,3 -18,-23 -21,-632c-1,-403 -6,-638 -12,-644c-6,-6 -10,-27 -10,-48c0,-37 1,-38 34,-38c19,0 36,6 38,13c2,6 3,312 2,680c0,367 3,667 7,667c12,0 11,27 0,34c-5,3 -11,-3 -14,-15z" id="svg_6"/>
  </g>
  <path fill="none" stroke="#000000" stroke-width="7.5" id="svg_7" d="m704.5,890.37506c0,0 -0.24286,-0.98694 6,-2c1.97418,-0.32037 8.07745,-1.03888 14,-2c6.24286,-1.01306 10.03607,-3.62176 12,-4c10.57599,-2.03674 12.13202,-5.75531 16,-8c6.23694,-3.61945 12,-6 16,-8c8,-4 13.41699,-7.34521 26.00006,-12c7.73401,-2.86096 12.77374,-5.8352 18,-8c1.84778,-0.76538 4,0 6,-2c0,0 0,0 0,2c0,0 0,4 0,8c0,6 -1.75207,10.68628 -12,14c-15.69244,5.07422 -22.45673,7.70386 -28.00006,10c-2.6131,1.0824 -4,4 -4,4c0,0 0,0 8.00006,0c2,0 6,0 16,0c2,0 10,0 14,0c2,0 4,0 6,0c0,0 2,0 4,0c0,0 2,0 2,0c2,0 4,0 8,0c4,0 6,-2 12,-4c0,0 1.3869,-2.9176 4,-4c1.84778,-0.76538 2,0 2,0c4,-2 8,-4 14,-4c0,0 7.3869,-2.9176 10,-4c5.54327,-2.29608 6.58582,1.41419 8,0c1.41419,-1.41418 0,-2 2,-2c2,0 4,0 6,0c2,0 2,-2 6,-2c0,0 0,0 2,-2c0,0 0,0 -2,0c-8,0 -16.02045,-0.49487 -22,0c-12.12408,1.00342 -17.3869,2.9176 -20,4c-1.84778,0.76538 -4,2 -4,2c-2,0 -1.09833,1.91034 -8,4c-3.82837,1.15912 -4,0 -4,0c0,0 5.64752,-0.97253 10,-2c5.83948,-1.37854 13.42401,-5.96326 24,-8c3.9278,-0.75641 4,0 6,0c0,0 2,2 2,0c0,-2 -8,0 -28,12c-10,6 -18,10 -24,16c-2,2 -4,2 -4,2c4,-2 7.18799,-3.026 12,-6c5.38001,-3.32501 24.35394,-4.69037 34,-8c8.46014,-2.90277 14,-6 14,-6c0,0 0,0 0,0c0,0 0,0 -10,0c-12,0 -21.67102,3.98798 -40,6c-5.96417,0.65472 -15.13904,11.73401 -18,4c-6.20636,-16.7774 26.30756,-10.92578 42,-16c20.49579,-6.62738 42.05499,-3.29498 40,-12c-0.45953,-1.94647 -14.32617,1.7287 -36,6c-26.68957,5.25977 -32.15222,11.23462 -34,12c-2.6131,1.0824 -1.98498,2.24439 0,2c8.18445,-1.00757 22.84332,-5.81335 46,-16c18.84815,-8.29132 30,-18 38,-22l0,0l0,0l0,2"/>
  <path fill="none" stroke="#000000" stroke-width="7.5" id="svg_8" d="m734.5,748.37506c0,0 2,0 4,0c0,0 0,0 0,0c2,0 2,0 2,0c0,0 2,0 2,0c4,0 4,0 8,0c2,0 4,-2 6,-2c0,0 2,0 2,0c0,0 0,0 0,0c0,-2 0,-2 2,-2c0,0 0,0 0,0c2,0 4,-2.00006 4,-2.00006c0,0 0,0 2,0c0,0 0,0 2,0c0,0 0,0 0,-2c0,0 0,0 2,0c0,0 0,0 2,0c0,0 -2,0 -2,0c0,0 -2,0 -2,0c0,0 0,0 0,0c-2,0 -2,0 -2,0c0,0 -2,0 -2,0c0,0 -2,0 -2,0c0,0 0,0 0,0c0,0 -2,0 -2,0c0,0 -2,0 -2,0c-4,0 -4,0 -6,0c-4,0 -4,2 -4,2c-2,0 -2,0 -2,0c0,0 0,0 -2,0c-4,0 -3.75708,0.98694 -10,2.00006c-3.94836,0.64075 -6,0 -8,2c0,0 0,0 0,0c-2,0 -2,0 -2,0c0,0 0,2 0,2c0,0 0,0 2,0l4,0"/>
  <path fill="none" stroke="#000000" stroke-width="7.5" id="svg_9" d="m840.50006,714.375c0,2 0,2 0,2c0,0 0,0 0,0c2,0 2,2 2,2c2,2 4,2 6,2c2,0 2,0 2,0c0,0 0,0 2,0c2,0 2,0 4,0c0,0 2,0 2,0c0,0 2,0 4,0c4,0 4.58582,1.41418 6,0c1.41419,-1.41418 0,-2 0,-2c2,0 3.92035,-0.16797 8,-2c9.82514,-4.41211 14.13202,-5.75531 18,-8c6.23694,-3.61945 6.58582,-4.58582 8,-6c1.41419,-1.41418 0,-2 0,-2c2,0 2,0 -2,0c0,0 -2,4 -6,4c-2,0 -5.75738,-2.24262 -10,2c-1.41418,1.41418 -6.10699,1.08099 -10,2c-8.70502,2.05499 -12.15222,3.23462 -14,4c-2.6131,1.0824 -4,2 -4,2c0,0 0,0 0,0c0,0 0,2 -2,2c0,0 -0.58581,-1.41418 -2,0c-1.41418,1.41418 0,2 0,2c0,0 0,-2 0,-2c0,-2 0,-2 0,-2c2,-2 4,-2 4,-2c2,0 2,0 4,0c2,0 4,0 4,0c2,0 2,0 4,0c0,0 0,0 0,0c0,0 0,0 0,2c0,0 0,0 2,0c0,0 0,0 0,0l0,0l0,0"/>
  <path fill="none" stroke="#000000" stroke-width="7.5" id="svg_10" d="m934.50006,692.375c0,0 0,0 0,0c0,2 0,2 0,2c0,0 0,0 -4,0c-6,0 -8,2 -8,2c-2,0 -4,0 -4,0c0,0 0,0 2,0c0,0 0,0 0,0c2,0 2,0 6,0c0,0 2,0 6,0c0,0 2,0 2,0c0,0 0,0 0,0c2,0 2,2 2,2c0,0 0,0 0,0c0,0 0,0 0,0c0,2 0,2 0,2c-2,2 -2,2 -2,2c-2,0 -2,0 -4,0c-4,0 -6,0 -6,0c-2,0 -4,0 -4,0c0,0 0,0 0,0c0,0 6,0 6,0c2,0 4,0 4,0c2,0 2,0 2,0c2,0 2,0 4,0c0,0 0,0 0,0c2,0 2,0 2,0c0,0 0,0 0,0c0,0 0,-2 0,-2c0,0 0,-2 0,-2c2,0 2,0 2,-2c0,0 0,0 0,0c0,0 0,0 0,0c0,-2 0,-2 0,-2c0,0 0,0 0,0c2,-2 2,-2 2,-2c0,0 0,0 0,-2c0,0 0,0 0,0c0,0 0,0 0,-2l0,0l0,0l0,4"/>
  <path fill="none" stroke="#000000" stroke-width="8.5" id="svg_11" d="m892.50006,868.37506c10,0 9.3869,-0.9176 12,-2c5.54327,-2.29608 5.3869,-0.9176 8,-2c3.6955,-1.53076 6.05164,0.64075 10,0c6.24286,-1.01306 7.3869,-2.9176 10,-4c1.84778,-0.76538 4,0 4,0c2,-2 2,-2 4,-2c0,0 0,0 2,-2c0,0 0,-4 2,-4c2,0 2,0 4,-4c0,0 0.69238,-3.41095 4,-8c2.61493,-3.62799 2,-4 6,-8c0,0 4.58582,-2.58581 6,-4c1.41419,-1.41418 0,-2 0,-2c0,2 -2.15222,3.23462 -4,4c-7.83935,3.24719 -6.39783,9.06476 -12,12c-8.85779,4.64105 -8.31854,9.22131 -14,12c-6.47784,3.16821 -6,4 -6,4c-2,0 -12,0 -16,0c-4,0 -8,0 -8,0c-4,0 -6,0 -6,0c0,0 0,0 2,0c0,0 2,0 6,0c4,0 8,-2 18,-2c2,0 8,0 12,0c0,0 2,0 4,-2c0,0 2,0 2,0c0,0 2,0 2,-2c0,0 0,0 0,0c0,0 -6,0 -8,0c-4,0 -4,0 -12,0c-2,0 -2,0 -8,0c-2,0 -2,-2 -4,-2c0,0 -0.45673,2.29608 -6,0c-2.6131,-1.0824 -2,-2 -2,-2c-2,0 -2,0 -2,0c0,0 0,-2 0,-2c2,0 2,0 2,0c2,0 1.75714,-0.98694 8,-2c1.97418,-0.32037 2,0 2,2l0,2l0,0l0,4"/>
  <path fill="none" stroke="#000000" stroke-width="0" id="svg_12" d="m572.5,952.37506c0,0 0,0 0,-2c0,-2 0,-2 2,-2c6,0 10.58582,-2.58581 12,-4c2.82843,-2.82843 6.58582,-0.58581 8,-2c1.41418,-1.41418 2,0 2,0c2,0 2,0 2,0c6,0 6.07745,0.96112 12,0c6.24286,-1.01306 8,-2 8,-2c2,0 4,0 4,0c8,-2 7.86829,-2.28857 12,-4c5.84314,-2.42029 10.30194,1.13074 14,-4c1.16943,-1.6225 0,-4 0,-4c2,0 2,0 4,0c0,0 2,-2 2,-2c2,0 0.58582,-2.58581 2,-4c1.41418,-1.41418 2,0 2,-2c0,0 2,-2 2,-2c0,0 2,-2 0,-2c-2,0 0.94373,6.23663 0,8c-3.40259,6.35785 -11.55279,9.38153 -22,12c-17.56738,4.40308 -26,6 -28,6c-6,0 -6,0 -6,0c2,-2 2.10327,-0.71857 10,-2c6.24286,-1.01306 19.64752,-4.97253 24,-6c5.83948,-1.37854 10.58582,-2.58581 12,-4c1.41418,-1.41418 4,0 4,0c0,0 0,0 0,0c-2,2 -8.01031,1.46271 -22,2c-26.05762,1.00073 -30,2 -32,2c-2,0 0,-2 0,-2c0,0 2,0 2,0c6,-2 10.01947,-1.60583 14,-2c10.14844,-1.00488 12.45673,0.29608 18,-2c2.6131,-1.0824 4,-2 4,-2c2,0 2,0 2,0c0,0 0,0 2,-2c0,0 6,-2 6,-4c0,0 2,0 2,0c0,0 2,-2 2,-2c2,-2 2,-2 2,-2c0,0 2,0 2,-2c0,0 0,0 2,0c0,0 2,0 2,0c0,0 5.3869,-2.9176 8,-4c3.6955,-1.53076 4,0 6,0c2,0 2,0 4,-2c0,0 2,0 4,0c0,0 4.92895,7.07105 12,0c1.41418,-1.41418 4,-2 6,-2c0,0 2,0 2,0c2,0 4,0 4,0c0,0 0,0 0,0c0,0 0.35248,0.97253 -4,2c-5.83948,1.37854 -5.75714,0.98694 -12,2c-5.92255,0.96112 -6.62,0.67499 -12,4c-2.40601,1.487 -3.3869,2.9176 -6,4c-1.84778,0.76538 -2,2 -4,2c0,0 0,0 0,0c0,0 -1.91418,1.42041 0,2c6.90167,2.08966 6,-6 6,-6c6,-2 8,-2 12,-2c2,0 6,-2 6,-2c2,0 6,-2 6,-2c0,0 -0.12408,-0.99658 12,-2c1.99316,-0.16498 6,-2 4,-2c-2,0 0,2 -2,2c-2,0 -9.24005,1.34998 -20,8c-4.81201,2.974 -9.38507,4.37201 -12,8c-1.65381,2.29456 -4.58582,2.58582 -6,4c-1.41418,1.41419 0,2 0,2c0,-2 2.87872,-2.34387 4,-4c6.03815,-8.91858 15.88733,-4.37671 22,-6c9.85638,-2.61749 13.81268,-2.20679 16,-4c5.57666,-4.57178 8.3045,-2.46924 12,-4c2.6131,-1.0824 4,-2 4,-2c0,-2 2,-2 2,-2c0,0 0,0 0,0c0,-2 0,-2 0,-2c0,0 1.16943,0.3775 0,2c-3.69806,5.13074 -8.02582,1.67963 -10,2c-6.24286,1.01306 -6.15222,1.23462 -8,2c-2.6131,1.0824 -9.63873,2.44299 -12,4c-8.99152,5.92896 -9.04034,4.64734 -12,8c-4.77234,5.40601 -7.64752,4.97253 -12,6c-1.94647,0.45953 -2,0 -4,2c-2,2 -4.37201,3.38507 -8,6c-2.29456,1.65381 -1.64752,2.97253 -6,4c-1.94647,0.45953 -4,2 -6,2c0,0 -2,0 -2,0c0,0 0,0 0,0c-2,0 -2,0 -2,-2c0,0 0,-2 0,-2c8,-8 14.98383,-18.81946 20,-24c11.96777,-12.36011 23.52216,-10.83179 30,-14c5.68146,-2.77869 6,-2 6,-2l0,0l0,0l0,0"/>
  <path fill="none" stroke="#000000" stroke-width="0" id="svg_13" d="m608.5,926.37506c2,0 2,0 2,0c0,0 0,0 0,0c0,0 0.58582,-1.41418 2,0c1.41418,1.41419 0,2 2,2c0,0 0,0 0,0c2,0 2,0 2,0c0,0 2,0 2,0c2,0 0.58582,0.58582 2,2c2.82843,2.82843 4,2 4,2c0,0 4,4 4,4c2,0 2,0 2,0c2,0 2,0 2,0c2,0 2,0 4,0c2,0 6,0 6,0c2,0 2,0 2,0c0,0 0,0 0,0c0,0 8,-2 12,-2c0,0 0,0 0,0c0,0 -6,0 -10,0c-2,0 -8,0 -12,0c-4,0 -4,-2 -6,-2c0,0 0,0 0,0c2,-2 4,-2 4,-2c6,-4 8,-4 8,-4c4,0 4,-2 4,-2c2,0 2,0 2,0c0,0 0,0 2,0c0,0 -2,0 -4,0c0,0 -4.80804,-1.17688 -14,6c-2.22937,1.74066 -4,2 -6,2l0,0"/>
  <path fill="none" stroke-width="0" id="svg_14" d="m732.5,878.37506c2,0 5.47949,-2.98889 20,-10c9.69891,-4.68304 18.13751,-7.79626 36.00006,-20c20.15778,-13.77185 38.76526,-22.76367 62,-38c31.1098,-20.40045 34,-28 38,-28l0,0l0,2" stroke="#000000"/>
  <path fill="none" stroke="#000000" stroke-width="6" stroke-opacity="null" fill-opacity="null" id="svg_15" d="m618.5,932.37506c0,0 0,0 0,0c0,0 0,0 0,0c0,0 0,2 0,2c0,0 0.58582,0.58582 2,2c2.82843,2.82843 4,0 4,2c0,0 2,0 4,0c2,0 2,0 2,0c0,0 0,0 0,0c2,0 2,0 4,0c2,0 8,-2 8,-2c2,-2 2.62,-2.67499 8,-6c2.40601,-1.487 6.56055,-3.3457 16,-12c5.31531,-4.87317 4.58582,-4.58581 6,-6c1.41418,-1.41418 2,0 2,0c0,0 0,-2 0,-2c0,2 2.53595,2.90662 0,6c-6.46545,7.8866 -20.09021,5.69684 -34,10c-18.1261,5.60754 -23.62531,6.41364 -28,10c-5.57666,4.57178 -8,4 -8,4c0,2 0,2 0,2c0,-2 -0.90167,-3.91034 6,-6c5.74255,-1.73871 9.42401,-3.96326 20,-6c5.89172,-1.13464 9.81555,-0.99243 18,-2c1.98499,-0.24438 4,0 4,0c2,-2 2,-2 2,-2c-2,0 -2.02582,3.67963 -4,4c-6.24286,1.01306 -14.09021,1.69684 -28,6c-6.04205,1.8692 -8,2 -14,4l0,0l-2,0l2,0"/>
  <path fill="none" stroke="#000000" stroke-width="13" stroke-opacity="null" fill-opacity="null" id="svg_16" d="m788.50006,740.375c0,0 0,-2 0,-2c0,0 -1.41418,-0.58582 0,-2c1.41419,-1.41418 2,0 2,0c0,0 0,-2 2,-2c0,0 0,0 0,0c0,0 2,0 4,0c0,0 2,0 2,0c2,0 2.58582,-0.58582 4,-2c1.41419,-1.41418 2,0 2,0c4,0 4,0 4,0c2,0 2,0 4,0c0,0 2.58582,1.41418 4,0c1.41419,-1.41418 2.45673,0.29608 8,-2c2.6131,-1.0824 4.58582,-2.58582 6,-4c1.41419,-1.41418 2,0 4,0c0,0 0,-2 0,-2c0,0 2,0 2,0l0,0l2,0"/>
  <path fill="none" stroke="#000000" stroke-width="13" stroke-opacity="null" fill-opacity="null" id="svg_17" d="m586.5,850.37506c0,0 0,0 2,0c0,0 0,0 0,0c2,0 4,0 4,0c2,-2 2,-2 4,-2c0,0 2,0 4,-2c0,0 0,0 0,0c0,0 2,0 2,0c0,0 0.08582,0.57959 2,0c6.90167,-2.08966 6,-6 10,-6c0,0 6,0 6,0c4,-2 4,-2 10,-2c4,0 6.34314,5.65686 12,0c1.41418,-1.41418 0,-2 0,-2c2,0 2,0 2,0c-6,0 -10,0 -10,0l0,0l0,2l0,0"/>
  <path fill="none" stroke="#000000" stroke-width="13" stroke-opacity="null" fill-opacity="null" id="svg_18" d="m676.5,920.37506c0,0 0,0 0,0c2,0 2,0 2,0c0,0 2,-2 2,-2c0,0 0,0 2,0c2,0 2,0 4,0c0,0 0,0 0,0c2,0 2,-2 4,-2c0,0 0,0 2,0c2,0 2.58582,1.41419 4,0c1.41418,-1.41418 2,-2 6,-2c2,0 3.3869,-0.9176 6,-2c1.84778,-0.76538 2,0 4,0c0,0 4,-2 6,-2c4,0 8.58582,-0.58581 10,-2c1.41418,-1.41418 6,-2 6,-2c2,0 4,0 10,0c0,0 2,-2 4,-2c2,0 2,0 4,-2c0,0 0,0 0,0l8,-4"/>
  <path fill="none" stroke="#000000" stroke-width="13" stroke-opacity="null" fill-opacity="null" id="svg_19" d="m794.50006,888.37506c0,0 0,0 0,0c2,0 2,-2 2,-2c0,0 0,0 0,-2c0,0 2,0 2,0c2,0 6,0 8,0c0,0 0,0 2,0c0,0 0,0 0,0c0,0 0,0 0,0c2,0 2,0 2,0c0,0 2,0 2,0c0,0 2,0 2,0c0,-2 0,-2 2,-2c0,0 0.58582,1.41419 2,0c1.41419,-1.41418 2,-2 2,-2l2,-2"/>
  <path fill="none" stroke="#000000" stroke-width="13" stroke-opacity="null" fill-opacity="null" id="svg_20" d="m966.50006,680.375c0,4 0,4 0,4c0,0 2,0 2,0c0,0 -0.24286,0.98694 6,2c3.94836,0.64075 4,0 4,0c2,0 2,0 4,0c0,0 0,0 0,0c2,0 2,0 2,0c2,0 2,0 2,0c2,-2 2,-2 2,-2c0,0 0,0 0,0c2,-2 2,-2 2,-4c0,0 0,0 0,-2c0,0 0,0 0,-2c0,0 0,-2 0,-2c0,0 0,0 0,2c0,0 0,0 0,2l0,0"/>
  <path fill="none" stroke="#000000" stroke-width="13" stroke-opacity="null" fill-opacity="null" id="svg_21" d="m976.50006,842.37506c0,-2 0.9176,-1.3869 2,-4c0.76538,-1.84778 0,-2 2,-2c0,0 0.05353,0.45953 2,0c4.35248,-1.02747 6.15222,-1.23462 8,-2c2.6131,-1.0824 4,-2 4,-2c0,0 2,0 4,0c0,0 2,0 2,0c2,0 2,0 4,0c0,0 0,-2 2,-2c0,0 2,0 4,-2c0,0 0,-2 2,-2c2,0 2,0 4,-2c2,-2 2,-2 4,-2c0,0 -1.41418,-0.58581 0,-2c1.41419,-1.41418 2,0 3.99994,0c0,0 0,0 2,0c0,0 0,0 0,0c0,0 0,0 2,0c0,0 0,0 0,0c0,2 0,2 0,2c0,0 2,0 2,0c0,0 0,0 2,0c0,0 0,0 0,0c0,0 2,0 4,0c0,0 0,0 0,0c2,0 4.00012,0 4.00012,0c2,-2 2,-2 2,-2l0,0l4,0"/>
  <path fill="none" stroke="#000000" stroke-width="13" stroke-opacity="null" fill-opacity="null" id="svg_22" d="m546.5,960.37506c0,-2 0,-2 0,-2c0,0 0,-2 2,-2c2,0 6,-2 8,-2c6,0 7.3869,-0.9176 10,-2c3.6955,-1.53076 6,0 6,0c2,0 6,-2 8,-2c4,0 4.58582,-0.58581 6,-2c1.41418,-1.41418 2.15222,0.76538 4,0c2.6131,-1.0824 2,-2 8,-4c0,0 2,-2 2,-2c2,-2 4,-4 4,-4c2,-2 2,-2 4,-2c0,0 1.64887,-0.1958 4,-4c1.05145,-1.70129 0,-2 0,-2l2,0l0,0l0,0"/>
  <path fill="none" stroke="#000000" stroke-width="13" stroke-opacity="null" fill-opacity="null" id="svg_23" d="m718.5,574.375c0,0 0,2 0,4c0,2 1.73871,4.25745 0,10c-2.08966,6.90167 -2.58582,10.58582 -4,12c-1.41418,1.41418 -2,0 -2,0c0,0 0,0 0,6c0,0 0,2 0,2c0,2 0,2 0,4c0,2 0,2 0,2c0,0 0,2 0,2c0,2 0,2 0,4c0,0 0,0 0,0c0,2 0,4 0,4c0,4 0,4 0,6c0,2 0,2 0,4c0,0 0,0 0,4c0,2 0,2 0,6c0,4 0,6 0,6c0,0 0,2 0,6c0,0 0,2 0,2c0,2 0,6 0,6c0,2 0,6 0,6c0,2 -0.76538,4.15222 0,6c1.0824,2.6131 2,2 2,4c0,2 0,2 0,4c0,2 0.58582,2.58582 2,4c1.41418,1.41418 0,2 0,6c0,2 0,4 0,10c0,0 2,2 2,6c0,0 0,4 0,4c0,0 0,4 0,8c0,0 0,2 0,2c0,2 0,6 0,6c0,4 0,4 0,4c2,0 2,2 2,4c0,0 0,2 0,6.00006c0,0 0.58582,2.58582 2,4c1.41418,1.41419 0,4 0,4c2,2 2,6 6,10l0,6"/>
  <path fill="none" stroke="#000000" stroke-width="13" stroke-opacity="null" fill-opacity="null" id="svg_24" d="m752.5,574.375c0,-2 0,-4 0,-4c0,0 2,-2 2,-2c2,-4 2,-6 2,-6c0,0 2,0 2,0c8,-6 14,-6 14,-6c4,0 6,0 6,0c0,0 0,-2 2.00006,-2c0,0 0,0 0,0c0,0 0,0 2,0c0,0 0,0 2,0c0,0 0,0 0,0c2,0 2,0 6,0c2,0 2,0 2,0c0,2 0,2 0,4c0,0 0,0 0,2c0,4 -5.17157,5.17157 -8,8c-2.82843,2.82843 -6.30456,-1.53076 -10.00006,0c-2.6131,1.0824 -10.58582,2.58582 -12,4c-1.41418,1.41418 -4,2 -4,2c0,0 0,0 -2,0c0,0 0,0 0,-2c0,0 0,-2 0,-2c4,-8 7.17157,-5.17157 10,-8c1.41418,-1.41418 2,-2 8,-2c6.00006,0 6.00006,0 10.00006,-2c0,0 2,0 4,0c0,0 0,0 0,0c2,0 2,0 4,0c2,0 4,0 4,0c0,0 0.58582,-0.58582 2,-2c1.41419,-1.41418 2.58582,-0.58582 4,-2c1.41419,-1.41418 2.58582,1.41418 4,0c1.41419,-1.41418 0,-2 0,-2c4,-2 4,-2 4,-2c2,-2 2,-2 2,-2c0,0 0,0 0,0c2,0 2,-2 4,-2c0,0 2,0 2,0c0,0 2,0 2,0c0,0 2,0 2,0c0,0 2,0 2,0c0,0 2,0 2,0c4,0 10,0 10,0c0,0 0,0 2,0c0,0 0,0 0,-2c0,0 2,0 4,0c2,0 4.3045,1.53076 8,0c2.6131,-1.0824 6.45673,0.29608 12,-2c2.6131,-1.0824 5.75714,-2.98694 12,-4c1.97418,-0.32037 4,-2 4,-2c0,0 2,0 2,0c0,0 0.15222,0.76538 2,0c2.6131,-1.0824 2,-2 4,-2c0,0 0.58582,-0.58582 2,-2c1.41419,-1.41418 2.58582,1.41418 4,0c1.41419,-1.41418 2,-2 2,-2c0,0 2.58582,1.41418 4,0c1.41419,-1.41418 2,-2 2,-2c0,0 2,0 4,0c0,0 2,0 2,0c2,0 1.81555,-0.99243 10,-2c1.98499,-0.24438 4,0 4,0c0,0 0,0 0,0c-2,0 -2,0 -6,0c-2,0 -4,0 -10,0c0,0 -4,0 -4,0c-4,0 -8,0 -10,0c-6,0 -6,0 -8,0c-6,0 -6,0 -8,0c-4,0 -6,0 -6,0c-4,0 -8,0 -10,0c-8,0 -8.3045,-1.53076 -12,0c-2.6131,1.0824 -4,2 -4,2c0,0 0,0 0,0c0,0 2,0 2,0c0,0 2,0 2,0c14,0 22,0 28,0c2,0 2,0 6,0c0,0 0,0 6,0c2,0 2,0 6,0c0,0 2,0 2,0c2,-2 4,-2 4,-2c2,-2 4,-2 4,-2c0,0 4,0 6,-2c0,0 0.58582,1.41418 2,0c1.41419,-1.41418 0,-2 0,-2c6,0 6,0 8,0c0,0 0,0 2,0c0,0 2,0 4,-2c0,0 2,0 2,0c0,0 2,0 4,0c0,0 2,-2 4,-2c0,0 2,0 4,0c2,0 2,0 6,0c0,0 0,0 2,0c0,0 2,-2 4,-2c2,0 2,0 4,0c0,0 6,-2 6,-2c0,0 2,0 2,0c2,0 2,-2 2,-2c0,0 0,0 2,0l0,0l0,0l0,0"/>
  <path fill="none" stroke="#000000" stroke-width="13" stroke-opacity="null" fill-opacity="null" id="svg_25" d="m718.5,410.375c0,0 0,0 0,0c0,4 -0.76538,4.15225 0,6c1.0824,2.61313 2,4 2,8c0,2 -1.41418,2.58578 0,4c1.41418,1.41422 2,0 2,2c0,0 0.58582,0.58578 2,2c1.41418,1.41422 2,2 2,2c0,0 2,2 4,2c0,0 0,0 0,0c0,0 2,0 2,0c0,0 0,0 0,0c0,0 0,-4 0,-6c0,-2 0,-4 0,-4c0,0 0,0 0,0c0,0 0,0 0,-2c0,0 0,0 0,0c0,0 0,-2 0,-2c0,-2 0,-2 0,0l0,0l0,4l0,0"/>
  <path fill="none" stroke="#000000" stroke-width="13" stroke-opacity="null" fill-opacity="null" id="svg_26" d="m756.5,412.375c0,0 0,-2 0,-2c2,-2 4,-2 4,-2c0,-2 0,-2 14,-2c6.00006,0 12.00006,0 16.00006,0c2,0 2,0 2,0c0,0 0,0 0,0c0,0 2,0 2,0c0,2 0,2 0,2c0,0 0,0 0,4c0,0 -7.3869,2.9176 -10,4c-7.39111,3.06149 -14.00006,2 -14.00006,2c-4,0 -4,-2 -4,-2c6,-4 12,-4 20.00006,-4c10,0 14,0 16,0c4,0 4,0 6,0c0,0 0,0 0,0l6,6"/>
  <path fill="none" stroke="#000000" stroke-width="13" stroke-opacity="null" fill-opacity="null" id="svg_27" d="m974.50006,370.375c-2,2 -4,2 -4,2c0,0 -0.99878,5.9252 -2,26c-0.3985,7.99008 0,12 0,18c0,2 0,2 0,2c0,2 1.64887,0.19577 4,4c1.05145,1.70129 2,2 2,2c2,0 2,0 2,0c0,0 2,0 2,0c0,0 -1.41418,-0.58578 0,-2c1.41419,-1.41422 2,0 2,-2c0,0 2,-2 2,-2c0,0 0,-2 0,-2c0,0 0,-2 0,-2c0,-30 0.76538,-36.15225 0,-38c-1.0824,-2.61313 -2,-2 -2,-2c0,0 0,0 0,0c-2,0 -2,0 -2,0c0,0 0,2 0,4c0,0 -6.4331,12.74902 0,40c2.05499,8.70502 4,12 6,12c0,0 0,0 0,0c0,2 0,2 0,2c0,0 0,0 0,2c0,0 0,0 0,2c0,2 0,4 -2,4c0,0 0,0 0,2c0,0 0,2 0,2c0,2 -2,2 -2,4c0,0 0,0 0,2c0,2 0,4 0,8c0,2 0,6 0,16c0,2 0,4 0,6c0,0 0,2 0,6c0,0 0,4 0,4c0,2 0,2 0,2c0,0 0,4 0,4c0,0 0,0 0,0c0,2 0,2 0,2c0,0 0,0 0,0c0,0 0,0 0,0c0,0 0,0 0,2c0,0 0,0 0,2c0,0 0,0 0,0c0,0 0,0 0,0c0,0 0,0 0,2c0,0 0,0 0,0c0,0 0,2 0,2c0,0 -2,0 -2,0l0,0l0,0"/>
  <path fill="none" stroke="#000000" stroke-width="13" stroke-opacity="null" fill-opacity="null" id="svg_28" d="m814.50006,394.375c2,0 6,2 6,2c2,0 4,0 4,0c0,0 2,0 4,0c0,0 0,0 2,0c0,0 0,0 0,0c0,0 2,0 2,0c0,0 0,0 2,0c2,0 4,0 8,0c2,0 2,0 8,0c0,0 2,0 8,0c0,0 2,0 4,0c2,0 4,0 4,0l0,0"/>
  <path fill="none" stroke="#000000" stroke-width="13" stroke-opacity="null" fill-opacity="null" id="svg_29" d="m944.50006,362.375c2,0 2,0 2,0c6,0 6,2 8,2c2,0 4,0 4,0c0,0 0,0 2,0c0,0 0,0 0,0c0,0 0,0 6,0c2,0 2,0 4,0c0,0 2,-2 4,-2c0,0 0,-2 0,-2c2,0 2,0 2,0c0,-2 0,-2 0,-2c0,0 0,0 0,0c0,0 -2,0 -2,0c0,0 -2,0 -4,0c-2,0 -2,0 -4,0c-2,0 -2,0 -2,0c-2,0 -2,0 -2,0l0,-2"/>
  <path fill="none" stroke="#000000" stroke-width="13" stroke-opacity="null" fill-opacity="null" id="svg_30" d="m750.5,410.375c0,0 0,0 0,0c0,0 0,0 0,2c0,0 -1.41418,2.58578 0,4c1.41418,1.41422 2,0 2,0c0,0 0,0 0,0c0,0 0,0 2,0c0,0 0,0 0,0c0,0 0.58582,-1.41422 2,0c1.41418,1.41422 0,4 2,8c0,0 0,0 2,0l0,0l0,2"/>
  <path fill="none" stroke="#000000" stroke-width="13" stroke-opacity="null" fill-opacity="null" id="svg_31" d="m880.50006,378.375c0,0 0,0 0,0c0,0 0,0 0,0c0,0 0,0 2,0c0,0 0,0 2,0c0,0 2,0 2,0c2,0 4,0 4,0c0,0 2,2 2,2c0,0 2,0 2,0c0,0 0,0 0,0c0,2 2,2 2,2c0,0 2,0 2,0c0,0 0,0 0,0c2,2 2,2 4,2c0,0 0,0 0,6l6,4"/>
  <path fill="none" stroke="#000000" stroke-width="13" stroke-opacity="null" fill-opacity="null" id="svg_32" d="m768.5,248.37497c0,0 0,0 0,0c0,0 0,0 0,0c2,-2 2,-2 2,-2c0,0 -0.24286,0.98692 6,2c1.97418,0.32036 2,0 6.00006,2c0,0 0,0 2,0c0,0 2,0 2,0c0,0 0,0 0,0c0,0 2,0 2,0c2,0 2,0 2,0c2,-2 4,-2 6,-4c0,0 3.17157,2.82843 6,0c1.41419,-1.41422 -0.6131,-2.9176 2,-4c1.84778,-0.76537 2.02582,-1.67964 4,-2c6.24286,-1.01308 5.81555,-2.99245 14,-4c3.97003,-0.48874 4,-2 6,-2c0,0 4,0 4,0c2,0 2,-2 4,-2c0,0 0,0 2,0c0,0 4,0 4,0c2,0 1.3869,-0.9176 4,-2c1.84778,-0.76537 2.58582,-0.58579 4,-2c1.41419,-1.41422 4,0 4,0c2,-2 2,-2 2,-2c0,0 0,0 0,0c0,0 2,-2 2,-2c0,0 0,0 -2,0c-6,0 -10,0 -16,0c-2,0 -4,0 -10,0c-2,0 -6,0 -12,2c0,0 -3.3869,0.9176 -6,2c-1.84778,0.76536 -6,0 -8,2c0,0 -2,0 -4,0c0,0 -4,2 -4,2c-2,2 -4,6 -6,6c0,0 -2,0 -2,0c0,0 -2,2 -2,2c-2,4 -4,4 -4,4c0,0 1.41419,0.58578 0,2c-1.41418,1.41421 -2,0 -2,0c0,0 -6.00006,0 -8.00006,0c-4,0 -6,0 -6,0l0,8"/>
  <path fill="none" stroke="#000000" stroke-width="13" stroke-opacity="null" fill-opacity="null" id="svg_33" d="m896.50006,212.37497c0,0 0,0 0,0c4,0 4,0 10,0c2,0 2,0 4,0c2,0 2,0 4,0c0,0 2,0 2,0c2,0 2.58582,1.41421 4,0c1.41419,-1.41422 0,-2 2,-2c0,0 2,-4 4,-4c2,0 0.1958,-1.64887 4,-4c1.70129,-1.05147 4,-2 6,-2c0,0 2,-2 2,-2c0,0 2,0 2,0c0,0 4,0 4,0c0,-2 0,-2 0,-2c2,0 4,0 4,0c2,0 2,0 2,0c0,0 0,0 0,0c2,0 2,0 2,0c0,0 0,0 0,0c2,0 2,0 2,0c2,0 0.58582,-0.58579 2,-2c1.41419,-1.41422 2,0 2,0c0,0 0,0 2,0c0,0 0,0 2,0c0,0 2,0 2,0c0,0 0,0 2,0c2,0 2,0 2,0c0,0 2,0 2,0l0,0"/>
  <path fill="none" stroke="#000000" stroke-width="13" stroke-opacity="null" id="svg_35" d="m688.5,122.37495c0,0 0,0 0,0c0,0 0,0 0,2c0,0 -6,2 -12,2c0,0 -4,0 -4,0c0,0 -0.01501,-0.24437 -2,0c-8.18445,1.00755 -14,2 -18,2c-4,0 -4,0 -4,0c0,0 2,0 2,0c0,0 6,0 8,0c4,0 6,0 6,0c6,0 8,0 8,0c6,0 6,0 10,-2c0,0 0,0 2,0c0,0 2,0 2,0c2,0 4,-2 6,-2c2,0 2,-2 2,-2c2,0 4,0 4,0c0,0 0,-2 0,-2c0,0 0,0 0,-2c0,0 0,0 0,0c0,0 -1.41418,-0.58578 0,-2c1.41418,-1.41421 2,0 2,0c0,0 0,0 0,0c0,0 0,0 0,-2c0,0 0,0 0,0c2,0 4,0 4,0c4,-2 4,-2 4,-2c0,0 0,0 0,0l2,0" transform="rotate(-1.9700779914855957 679.5000000000002,120.37495422363202) "/>
  <path fill="none" stroke="#000000" stroke-width="13" stroke-opacity="null" id="svg_36" d="m708.5,580.375c0,0 0,0 2,0c0,0 0,0 0,0c0,0 2,0 2,0c0,0 0,-2 0,-2c2,0 2,0 2,0c0,-2 2,-2 2,-2c0,0 0,0 2,-2c0,0 0,0 0,0c2,0 2,0 2,0c0,0 2,-2 2,-2c0,0 2,0 4,0c0,0 2,0 2,0c2,0 4,0 4,0c0,0 2,0 2,0c2,0 2,0 2,0c4,0 6,0 6,0c2,-2 2,-2 6,-2c2,0 2.58582,-0.58582 4,-2c1.41418,-1.41418 5.64887,1.8042 8,-2c1.05145,-1.70129 2.58582,-4.58582 4,-6c1.41418,-1.41418 6,-4 6,-4l2,-2l2,0l0,0"/>
  <path fill="none" stroke="#000000" stroke-width="13" stroke-opacity="null" id="svg_37" d="m720.5,106.37495c0,0 2,0 2,0c2,0 4,0 4,0c2,0 4,0 10,2c0,0 2,0 2,0c4,0 8,0 10,0c6,0 6,0 10,0c4,0 6,0 8,0c0,0 0,0 0,0c2,0 2,0 2,0c2,0 2,0 2,0c0,0 2,0 2,0c2,0 2,0 2,0l0,2l0,0"/>
  <path fill="none" stroke="#000000" stroke-width="13" stroke-opacity="null" id="svg_38" d="m838.50006,74.37495c0,2 0,2 2,2c2,0 2,0 2,0c2,0 8,0 10,0c6,0 10,0 10,0c4,0 8,0 10,0c0,0 2,0 2,0c2,0 4,0 4,0c0,0 2,0 2,0c0,0 0.58582,1.41422 2,0c1.41419,-1.41421 0,-2 0,-2c0,0 0,0 0,0c0,0 0,0 0,0c0,-2 2,-2 2,-2c0,0 0,0 0,0c2,0 2,0 2,0c0,-2 0,-2 0,-2c0,0 0,-2 2,-2c2,0 4,0 4,0c2,-2 4,-2 4,-2c2,0 2,-2 2,-2c0,0 0,0 0,0c2,0 2,0 2,0c0,0 2,0 2,0c0,0 2,-2 2,-2c2,0 0.58582,-0.58578 2,-2c1.41419,-1.41421 2,0 2,0c0,0 2,0 2,0c0,0 2,-2 2,-2c0,0 2,0 2,0c2,0 2,0 2,0c0,0 0,0 2,0c0,0 2,0 2,0c0,-2 0,-2 0,0c0,0 0,2 0,2c0,2 0,4 0,4c0,0 0,0 0,2c0,0 0,0 0,0c0,0 0,0 0,2c0,0 0,0 2,0c0,0 2,0 2,0c0,0 0,0 2,0c0,0 0,0 0,-2c0,0 0,-2 0,-4c0,0 0,0 0,-2c0,0 0,0 0,0c0,-2 0,-2 0,-2c0,-2 0,-2 0,-4c0,0 0,0 0,-2c0,0 0,0 0,0c0,0 0,0 0,2l0,4"/>
  <path fill="none" stroke="#000000" stroke-width="13" stroke-opacity="null" id="svg_39" d="m966.50006,40.37495c0,6 2,6 2,6c2,0 4,0 4,0c2,0 2,0 2,0c2,0 2,0 4,0c4,0 4,0 4,0c2,0 2,0 2,0c0,0 2,0 2,0c2,0 2,0 4,-2c0,0 0,0 0,0c0,0 0,0 0,-2c0,0 0,0 0,0c0,0 0,0 0,0c-2,0 -2,0 -2,0c0,0 0,0 -2,0c0,0 0,0 -2,0c0,0 0,0 0,0c0,0 0,0 0,0c0,-2 0,-2 0,-2l-2,0"/>
  <path fill="none" stroke="#000000" stroke-width="13" stroke-opacity="null" id="svg_40" d="m774.5,98.37495c0,0 0,0 2,0c0,0 2,0 2,0c0,0 2.00006,0 4.00006,-2c0,0 2,0 2,0c2,0 4,0 4,0c2,0 4,0 4,-2c0,0 0,0 2,0c2,0 6,0 6,0c2,-2 2,-2 4,-2c2,0 2,0 2,0c0,0 0,0 0,0c2,0 2,0 2,0c0,0 0,0 0,0c0,0 0,0 2,0c0,0 2,-2 2,-2c0,0 0,0 2,0c0,0 0,0 2,0c0,0 0,0 2,0c2,0 2,0 2,0c2,0 2,0 4,0c0,0 2,2 2,2c0,0 0.58582,-1.41421 2,0c1.41419,1.41422 0,2 0,2c0,0 0,0 0,0c-6,0 -6,0 -12,0c0,0 -4,0 -4,0l0,0"/>
  <path fill="none" stroke="#000000" stroke-width="13" stroke-opacity="null" id="svg_41" d="m626.5,130.37495c0,0 0,0 2,0c0,0 0,0 0,0c0,0 2.9176,1.38688 4,4c0.76538,1.84777 0.58582,0.58579 2,2c1.41418,1.41422 -1.41418,2.58579 0,4c1.41418,1.41422 2,0 2,2c0,0 0,2 2,4c0,0 0,0 0,0c0,0 0,0 0,2c0,10 0,12.00002 0,14.00002l-2,0l0,2l0,0"/>
  <path fill="none" stroke="#000000" stroke-width="13" stroke-opacity="null" id="svg_42" d="m546.5,156.37495c0,2 0,2 0,2c0,0 2,0 2,0c2,0 4,0 4,0c2,0 2,0 4,0c0,0 0,-2 0,-2c0,0 0,0 2,0c0,0 2,0 2,0c0,0 0,0 0,0c0,0 2,0 2,0c0,0 2,0 2,0c2,0 2,0 4,0c0,0 0,0 0,0c2,0 2,0 2,0c0,0 0,0 0,0c0,0 0,2 0,2c0,0 0,2.00002 0,2.00002c0,0 0,0 0,0c0,0 0,2 0,2c0,0 0,2 0,2c0,2 0,2 0,2c0,2 0,2 0,2c0,2 0,4 0,12c0,0 0,0 0,0c0,0 0,0 0,2c0,0 0,0 0,0c0,0 0,10 0,16c0,6 0,12 0,12c0,0 0,2 0,2c0,0 0,2 0,4c0,0 0,0 0,0c0,2 0,2 0,2c0,2 0.9176,1.38687 2,4c0.76538,1.84776 2,2 2,6c0,2 2,2 2,4c0,2 0.15222,1.23463 2,2c2.6131,1.0824 2,2 2,2c0,2 2,2 2,4c0,0 0,0 0,0c0,0 0,2 0,2c0,0 0,0 0,0c0,0 0,0 0,0l0,2l0,0"/>
  <path fill="none" stroke="#000000" stroke-width="13" stroke-opacity="null" id="svg_43" d="m1030.5,670.375c-2,0 -2,0 -4,0c-5.99994,0 -5.99994,4 -5.99994,4c-2,0 -2,0 -2,0c-2,0 -2,0 -2,0c-2,0 -8,0 -8,0c-2,0 -4,2 -6,2c0,0 0,0 0,0l0,2l0,0"/>
  <path fill="none" stroke="#000000" stroke-width="13" stroke-opacity="null" id="svg_44" d="m912.50006,700.375c0,2 0,2 2,2c0,0 0,0 0,0c0,0 2,0 2,0c2,0 2,0 4,0c0,0 0,0 0,0c2,0 2,0 2,0c0,0 0,0 2,0c0,0 0,0 0,-2c0,0 2,0 2,0c0,0 2,0 2,0c0,-2 0,-2 2,-2c0,0 2,-2 2,-2c2,0 2,0 2,0c2,0 2,-2 2,-2c2,0 2,0 2,0c2,0 2,0 4,0c0,0 0,-2 0,-2c2,0 2,0 2,0c0,0 0,0 0,0c0,0 2,0 2,0c0,0 -1.41418,-0.58582 0,-2c1.41419,-1.41418 2,0 2,0c0,0 0.58582,1.41418 2,0c1.41419,-1.41418 0,-2 2,-2c0,0 0,0 0,0c0,0 2,0 2,0l0,0l0,0"/>
  <path fill="none" stroke="#000000" stroke-width="13" stroke-opacity="null" id="svg_45" d="m726.5,248.37497c0,0 0,0 0,0c0,0 0,0 0,2c0,0 0,2 0,2c0,2 0,2 0,4c0,0 0,0 0,0c0,6 0,6 0,8c0,0 -2,0 -2,2c0,0 0,0 0,2c0,6 -2,6 -2,6c0,0 0,0 0,2c0,0 -2,8 -2,8c0,0 0,0 0,0c0,8 -2,8 -2,12c0,0 0,2 0,2c0,0 0,0 0,0c0,0 0,0 0,0c0,2 0,2 -2,4c0,0 0,0 0,0c0,0 0,0 0,4c0,0 0,0 0,2c0,0 0,2 0,2c0,0 0,0 0,0c0,0 0,0 0,2c0,0 2.82843,1.17157 0,4c-1.41418,1.41421 -2,2 -2,2c0,2 0,2 0,4c0,2 0,2 0,4c0,2 0,4 0,6c0,2 0,2 0,4c0,4 0,10 0,10c0,0 0,2 0,2c0,0 0,8.00003 0,8.00003c0,2 0,2 0,4c0,0 0,0 0,0c0,0 0,0 0,0c0,8 0,8 0,8c0,2 0,2 0,2c0,2 0,2 0,4c0,2 0,2 0,2c0,0 0,0 0,0c0,2 0,2 0,8c0,2 0,4 0,6c0,4 0,4 0,6c0,4 0,6 0,18c0,6 0,14 0,18c0,4 0,10 0,14l0,6l2,6"/>
  <path fill="none" stroke="#000000" stroke-width="13" stroke-opacity="null" id="svg_46" d="m886.50006,220.37497c2,-4 4,-4 4,-4c0,0 2,0 2,0c0,-2 0,-2 2,-2c2,0 2,0 4,-2c0,0 4,0 6,0c0,0 6,-2 6,-2c2,0 4,0 6,0c6,0 8.58582,-0.58579 10,-2c1.41419,-1.41422 3.59399,-4.513 6,-6c5.38001,-3.32501 5.17157,-3.17157 8,-6c4.24262,-4.24265 8.37201,0.6149 12,-2c2.29456,-1.65381 4.15222,-3.23464 6,-4c2.6131,-1.0824 6,-2 10,-2c0,0 0,0 0,0c2,0 2,0 2,0c2,0 4,0 8,0c0,0 2,0 6,0c4,0 4,0 8,0c2,0 2,0 2,0c0,0 0,0 0,0c0,2 0,2 -2,2c-2,0 -3.3869,0.9176 -6,2c-1.84778,0.76536 -8.3045,-1.53073 -12,0c-2.6131,1.0824 -8,2 -10,2c-2,0 -4,0 -6,0c-2,0 -8,2 -8,2c0,2 0,2 0,2c0,0 0,0 -2,0c0,0 0,0 -2,2c0,0 -6,10 -8,16l-2,0l0,2l-6,10"/>
  <path fill="none" stroke="#000000" stroke-width="13" stroke-opacity="null" id="svg_47" d="m788.50006,86.37495c0,0 0,0 0,0c0,0 8,0 8,0c2,0 4,0 4,0c4,0 4,0 6,0c2,0 2,0 2,0c2,0 2,0 2,0c0,0 0,0 2,0c2,0 2.15222,0.76537 4,0c2.6131,-1.08239 4.58582,-2.58578 6,-4c4.24262,-4.24263 8,0 12,-2c4,-2 6,-2 8,-4c0,0 6,0 6,0c2,0 4,-2 4,-2c2,0 2,0 2,0c2,0 2,0 4,0c0,0 0.58582,1.41422 2,0c1.41419,-1.41421 0,-2 0,-2c2,0 4,0 4,0c2,0 2,0 4,0c2,0 0.58582,-0.58578 2,-2c1.41419,-1.41421 2,0 2,0c2,0 2.58582,1.41422 4,0c1.41419,-1.41421 0,-2 0,-2c0,0 2,0 4,0c0,0 0,0 4,0c0,0 4,-2 4,-2c0,0 0,0 2,0c0,0 6,0 6,0c2,0 5.64752,-0.97251 10,-2c3.89301,-0.91901 4,0 12,0l0,0l6,0l8,-2"/>
  <path fill="none" stroke="#000000" stroke-width="13" stroke-opacity="null" id="svg_48" d="m996.50006,24.37495c0,0 0,0 0,0c0,0 0,0 0,0c2,0 2,0 2,0c0,0 0,0 2,0c0,0 2,0 2,0c0,0 2,0 2,0c0,0 0,0 2,0c0,0 0,0 0,0c0,0 2,0 2,0c0,0 0,0 0,0c2,0 2,0 2,0c2,0 4,0 4,0c2,2 1.3869,2.91761 4,4c1.84778,0.76536 2,2 2,2c2,2 2,6 2,6c0,4 0,6 0,10c0,4 0,10 0,14c0,2 0,4 0,6c0,4 0,6 0,8c0,4 0,8 0,12l0,22l3.99994,26"/>
  <path fill="none" stroke="#000000" stroke-width="13" stroke-opacity="null" id="svg_49" d="m956.50006,48.37495c0,0 0,0 0,0c0,0 0,0 0,0c0,0 0,0 -6,0c0,0 -2,0 -4,0c-2,0 -4,0 -4,0l-2,0l0,0l0,0"/>
  <polyline fill="none" stroke-width="13" stroke-opacity="null" points="1016.500058391677,128.37495827697325 1014.5000581567004,128.37495827697325 1014.5000581567004,128.37495827697325 " id="svg_51" stroke-linecap="round" stroke="#000000"/>
  <path d="m1024.5,128.374954c0,0 0,0 0,2c0,2 0,2 0,6c0,0 0,2 0,6c0,0 0,4 0,6c0,0 0,0 0,0c0,2 0,2 0,2c0,0 0,4 0,6c0,2 0,4.000015 0,4.000015c0,4 0,8 0,8c0,8 0,18 0,20c0,0 0,0 0,0c0,2 0,0 0,0c0,-2 0,-2 0,-4c0,0 0,0 0,-2l0,0l0,-2" id="svg_34" stroke-width="7.5" stroke="#000" fill="none"/>
  <path d="m870.500061,382.375c2,0 2,0 2,0c0,0 2,0 2,0c0,0 2,0 2,0c0,-2 0,-2 0,-2c0,0 2,0 2,0c0,0 0,0 2,0c0,0 0,0 0,0l0,0l0,0" id="svg_50" stroke-width="7.5" stroke="#000" fill="none"/>
  <path d="m1018.500061,134.374954c0,0 0,0 0,0c0,2 2,2 2,2c0,0 0,2 0,4c0,6 0,8 0,12c0,4 0,6 0,6c0,0 0,0 0,0c0,0 0,2.000015 0,4.000015c0,0 0,2 0,2c0,0 0,0 0,0c0,0 0,0 0,0c0,0 0,0 0,0c0,2 0,2 0,2c0,0 0,0 0,0c0,0 0,2 0,2c0,0 0,0 0,0c0,2 0,2 0,2c0,0 0,0 0,0c0,0 0,0 0,0c0,2 0,2 0,2c0,0 0,2 0,2c0,0 0,0 0,0c0,0 0,0 0,0c0,0 0,0 0,2c0,0 0,0 0,0c0,0 0,2 0,2c0,0 0,0 0,0c0,0 0,0 0,0c-2,0 -2,0 -2,0c0,0 0,0 -2,0c0,0 0,0 0,0l0,0l0,2" id="svg_52" stroke-width="7.5" stroke="#000" fill="none"/>
  <path d="m800.500061,400.375c2,0 2,0 2,0c0,0 0,0 0,0c0,0 0,0 2,0c0,0 0,0 0,0c0,0 0,0 0,-2c0,0 0,0 0,0c0,0 2,0 2,0c0,0 0,0 0,0c0,0 2,0 2,0c0,0 0,0 0,0c0,0 2,0 2,0c0,0 2.585815,1.414215 4,0c1.414185,-1.414215 2,-2 2,-2c2,0 2,0 2,0c2,0 2,0 2,0l2,0l0,0" id="svg_53" stroke-width="7.5" stroke="#000" fill="none"/>
  <path d="m978.500061,504.375c-2,4 -2,4 -2,4c0,0 0,2 0,2c0,0 0,0 0,0c0,0 -0.585815,0.585785 -2,2c-1.414185,1.414185 -2.152222,-0.765381 -4,0c-2.613098,1.082397 -2,2 -2,2c-6,0 -6,0 -6,0l0,0" id="svg_54" stroke-width="7.5" stroke="#000" fill="none"/>
  <path d="m934.500061,364.375c-2,0 -2,0 -2,0c0,0 0,0 0,0c0,-2 0,-2 2,-2c0,0 2,0 2,0c2,0 4,0 4,0c0,0 0,0 0,0c2,0 2,0 4,0c0,0 0,0 2,0c0,0 0,0 0,0c0,0 0,0 0,0c0,0 0,2 -2,2c-6,0 -6,0 -8,0c-6,0 -8,0 -8,0c-4,0 -4,0 -4,0c-2,0 -2,0 -4,0c0,0 0,2 0,2c0,0 0,0 0,0l0,8" id="svg_55" stroke-width="7.5" stroke="#000" fill="none"/>
  <path d="m918.500061,694.375c-8,6 -10,6 -10,6c0,0 -4,2 -4,2c-2,2 -2,2 -2,2c0,0 -2,0 -8,2c0,0 -6.053528,-0.459534 -8,0c-4.352478,1.027466 -6,2 -6,4c0,0 0,0 0,0c0,0 -12,8 -12,8c-2,0 -2,0 -4,0c0,0 0,2 0,2c-2,0 -4,2 -6,4c0,0 -0.585815,-1.414185 -2,0c-1.414185,1.414185 0,2 0,2c-6,2 -12,2 -16,2c-4,0 -6,0 -12,0c-2,0 -7.875916,0.996582 -20,2c-3.986389,0.329895 -8,0 -12,0c-4,0 -6,0 -6,0c0,0 -2,0 -4,0c-2,0 -4.585815,0.585815 -6,2c-1.414246,1.414246 -2.152283,-0.765381 -4.000061,0c-2.613098,1.082397 -6.304504,2.469238 -10,4c-2.613098,1.082397 -2,2 -2,2c-2,0 -4,0 -4,0c0,2 -2,2 -4,2c0,0 -2,0 -4,2c0,0 -2,0 -4,0c-2,0 -4,0 -10,2.000061c0,0 -6,2 -6,2c-2,0 -8,0 -10,2c0,0 -4,0 -6,0c-2,0 -2.585815,-1.414185 -4,0c-1.414185,1.414185 0,2 0,2c2,0 4,0 12,0c6,0 9.757385,-4.242615 14,0c1.414185,1.414185 0,2 2,2c0,0 6,0 10,0c0,0 2,0 6,0c0,0 2,0 2,0c0,0 0,0 2,0c0,0 0,0 0,0c2,0 2,-2 2,-2c0,0 0,0 0,0c0,0 0,0 -2,0l0,0l0,0" id="svg_56" stroke-width="7.5" stroke="#000" fill="none"/>
  <path d="m1030.5,668.375c0,2 0,2 0,2c0,2 0,2 0,2c0,0 0,2 0,2c0,2 0,2 0,2c0,0 0,2 0,8c0,2 0,4 0,6c0,2 0,2 0,2c0,0 0,0 0,0c0,0 0,4 2,4c0,0 -0.765381,0.152222 0,2c1.082397,2.613098 2,2 2,4c0,0 0,2 0,2c0,0 2,0 2,0c0,0 0,0 0,0c0,-2 0,-4 0,-4c0,-2 0,-2 0,-2c2,-2 2,-2 2,-8c0,-6 0,-10 0,-14c0,-2 0,-2 0,-2c0,0 -0.42334,-1.428223 -6,-6c-4.374634,-3.586365 -6,-6 -6,-6c0,0 0,0 0,0c0,0 0,2 0,4c0,0 0,0 0,2c0,0 4,0 4,0c0,0 0,0 0,0l2,0l0,2l0,0" id="svg_57" stroke-width="7.5" stroke="#000" fill="none"/>
  <path d="m850.500061,384.375c0,0 0,0 0,0c0,-2 0,-2 0,-2c2,-2 2,-2 10,-2c0,0 4.585815,1.414215 6,0c1.414185,-1.414215 2,-2 4,-2c0,0 2,0 4,0c0,0 2,0 2,0c2,0 2,0 2,0c0,2 0.613098,2.917603 -2,4c-1.847778,0.765381 -5.815552,0.992462 -14,2c-5.955017,0.733093 -12,2 -14,2c-2,0 -2,0 0,0c6,0 12,0 12,0c6,0 10,0 10,0c6,0 8,0 12,0c2,0 2,0 4,0l0,0l0,0l0,4" id="svg_58" stroke-width="7.5" stroke="#000" fill="none"/>
  <path d="m1026.5,176.374969c0,0 -2.456665,-0.296082 -7.999939,2c-2.613098,1.082397 -4,2 -6,2c-4,0 -4,0 -6,0c0,0 0,0 0,0c0,0 -2,0 -2,0c-2,0 -8.585815,2.585785 -10,4c-1.414185,1.414215 -2,4 -4,4c0,0 0,0 0,0c0,0 0,0 0,0c0,2 0,2 2,2c8,0 10,0 12,0c0,0 0,0 0,0c2,0 2.585815,-0.585785 4,-2c1.414185,-1.414215 2,0 2,0c2,0 2,0 2,0c0,-2 0,-2 2,-2c0,0 0,0 2,-2c0,0 0,0 2,0c0,0 0,0 0,0c0,0 0,0 0,0c2,0 2,0 2,0c0,0 0,0 0,0l2,0l0,0" id="svg_59" stroke-width="7.5" stroke="#000" fill="none"/>
  <path d="m1020.500061,68.374954c0,2 0,2 0,4c0,0 0,0 0,2c0,0 0,0 0,4c0,2 0,2 0,8c0,0 0,4 0,8c0,0 0.986938,5.757111 2,12c0.320374,1.974174 0.585754,8.585785 1.999939,10c1.414185,1.414215 2,2 2,4c0,0 2,0 2,0c0,4 0,6 0,6c0,0 0,2 0,2c0,0 0,0 0,2c0,0 0,4 0,4c2,0 2,2 2,2c0,2 0,4 0,4c0,4 0,4 0,8c0,0 0,4 0,6c0,2 0,4 0,12.000015c0,4 0,6 0,10c0,2 0,2 0,6c0,0 0,2 0,6l0,0l0,0" id="svg_61" stroke-width="7.5" stroke="#000" fill="none"/>
  <path d="m950.500061,194.374969c0,2 0,2 0,2c0,0 0,2 0,2c2,2 2.585815,4.585785 4,6c1.414185,1.414215 2,0 4,0c0,0 0,0 0,0c0,0 0,0 0,0c0,0 2,0 2,0c0,0 2,0 2,0c2,0 2,-2 4,-2c0,0 0,0 0,0c0,0 0,0 0,0c2,0 2,0 2,0l0,0l2,-2l0,0" id="svg_62" stroke-width="7.5" stroke="#000" fill="none"/>
  <path d="m956.500061,44.374947c0,0 2,0 2,0c2,-2 2.585815,-2.585785 4,-4c1.414185,-1.414215 4,-2 4,-2c0,0 2,-2 2,-2c0,0 0,0 0,0c0,0 2,0 4,-2c0,0 0,0 2,0c0,0 0,0 0,0c6,-2 6,-2 8,-2c0,0 0,0 0,0c0,0 2,0 2,0c0,0 0,0 0,0c0,0 0,2 0,2c0,0 0,0 -2,2c-2,2 -2,2 -2,2c0,2 -4,4 -4,4c0,0 -2,2 -2,2c0,0 -0.585815,1.414215 -2,0c-1.414185,-1.414215 0,-2 0,-2c0,-2 0,-4 0,-6c0,-2 0,-2 0,-4c0,0 0,0 0,0l0,4l0,2l0,4" id="svg_63" stroke-width="7.5" stroke="#000" fill="none"/>
  <path d="m688.5,124.374954c2,0 2,0 2,0c0,0 2,0 2,0c0,0 0.585815,-0.585785 2,-2c1.414185,-1.414215 2.152222,0.765366 4,0c2.613098,-1.08239 2.152222,-1.234634 4,-2c2.613098,-1.08239 2,-2 4,-2c0,0 -1.414185,-0.585785 0,-2c1.414185,-1.414215 2,0 2,0c6,-2 6,-2 6,-4c0,0 0,0 2,0c0,0 0,0 0,0c0,0 0,0 0,0c0,0 2,0 2,-2c0,0 0,0 0,0c0,0 0,0 2,-2c0,0 0,0 0,0c2,0 2,0 2,0c0,0 0,0 0,0c0,0 0,0 0,-2c0,0 2,0 2,0c4,0 6,-2 6,-2c0,0 2,0 4,0c0,0 0,0 0,0c0,0 0.585815,1.414215 2,0c1.414185,-1.414215 2,-2 2,-2c0,0 2,0 2,0c0,0 1.17157,2.82843 4,0c1.414185,-1.414215 4,-4 4,-4c0,-2 2,-2 2,-2c2,0 8,0 8,-2c0,0 2,0 2,0c0,-2 0,-2 0,-2c2,0 2,0 2,0c2,0 2,0 10,0c2,0 4,0 4,0c2,-2 2,-2 2,-2c0,0 0,0 0,0c2.000061,0 2.000061,0 2.000061,0c2,0 2,0 2,0c2,0 2,0 2,0c0,0 0,0 0,0c2,-2 2,-2 4,-2c0,0 4,-2 4,-2c0,0 0,0 2,0l2,-2l2,0l0,0" id="svg_64" stroke-width="7.5" stroke="#000" fill="none"/>
  <path d="m710.5,276.374969c-2,0 -2,0 -2,0c0,0 0,-2 0,-2c0,-2 -0.187317,-2.206818 2,-4c5.57666,-4.571747 9.17157,-7.17157 12,-10c4.242615,-4.242645 0,-6 0,-6c2,-2 2,-2 8,-16c0,0 2,-2 2,-2c0,0 2,0 2,0c0,-2 0,-2 8,-6c0,0 0.585815,-0.585785 2,-2c1.414185,-1.414215 2,0 4,0c0,0 0,0 10,0c2,0 6,0 6,0c0,0 2,0 8,0c0,0 4,0 4,0c2,0 6.000061,0 8.000061,0c2,0 6,0 10,0c6,0 10,0 16,0l0,0l0,0l0,0" id="svg_65" stroke-width="7.5" stroke="#000" fill="none"/>
  <path d="m724.5,574.375c-2,0 -2,0 -2,0c0,0 0,10 0,10c-2,0 -2,4 -2,4c0,0 -2,6 -2,6c0,4 0,4 -2,4c0,0 0.640747,0.051636 0,4c-1.013062,6.242859 -1.359253,6.051636 -2,10c-1.013062,6.242859 -4,8 -4,8c0,0 0,2 0,0c0,0 0,0 0,0l0,-2" id="svg_66" stroke-width="7.5" stroke="#000" fill="none"/>
  <path d="m912.500061,368.375c0,0 0,2 0,2c2,0 4,0 6,0c4,0 6,0 6,0c2,0 4,0 6,0c6,0 6,0 8,0c2,0 2,0 2,0c2,0 2,0 4,0c0,0 2,0 4,0c0,0 2,0 4,0c0,0 2,0 2,0c0,0 0,0 0,0c-8,2 -12,2 -20,2c-2,0 -4,0 -4,0c0,0 0,0 -12,0c-4,0 -6,0 -6,0c0,0 0,0 0,0c-2,0 -2,0 -2,0c0,0 -2,0 -2,0c0,0 -2,2 -2,2c-2,0 -8,2 -10,2l0,0l0,0l0,2" id="svg_67" stroke-width="7.5" stroke="#000" fill="none"/>
  <path d="m998.500061,32.374947c0,0 0,0 0,0c2,0 2,0 2,0c0,0 0,0 0,0c2,0 2,0 2,0c0,-2 0,-2 2,-2c2,0 4,0 8,0c2,0 2.585815,1.414213 4,0c1.414185,-1.414213 0,-2 0,-2c0,0 0,0 0,0c0,2 -2,2 -4,2c-4,0 -4.585815,0.585787 -6,2c-1.414185,1.414215 -2,0 -2,0l0,0l0,0" id="svg_68" stroke-width="7.5" stroke="#000" fill="none"/>
  <path d="m1030.5,72.374954c0,0 0,2 0,2c0,0 2,4 2,4c0,2 0,2 0,2c0,2 0,4 0,6c0,0 0,2 0,4c0,0 0,0 0,0c0,8 0,12 0,12c0,4 0,4 0,6c0,6 -2,6 -2,6c0,6 0.919067,6.107002 0,10c-1.027466,4.352509 -1.080933,6.10701 -2,10c-1.027466,4.352509 -2,4 -2,6c0,0 0,0 0,0l0,10l0,8l0,4.000015" id="svg_69" stroke-width="7.5" stroke="#000" fill="none"/>
  <path d="m1026.5,30.374947c0,0 0,0 0,0c2,2 2,2 2,2c0,0 0,2 0,2c0,6 0,6 0,8c0,0 0,4.000004 0,4.000004l0,4" id="svg_70" stroke-width="7.5" stroke="#000" fill="none"/>
 </g>
</svg>