<?xml version="1.0" standalone="no"?>
<!DOCTYPE svg PUBLIC "-//W3C//DTD SVG 20010904//EN"
 "http://www.w3.org/TR/2001/REC-SVG-20010904/DTD/svg10.dtd">
<svg version="1.0" xmlns="http://www.w3.org/2000/svg"
 width="2681.000000pt" height="1229.000000pt" viewBox="0 0 2681.000000 1229.000000"
 preserveAspectRatio="xMidYMid meet">
<metadata>
Created by potrace 1.15, written by Peter Selinger 2001-2017
</metadata>
<g transform="translate(0.000000,1229.000000) scale(0.100000,-0.100000)"
fill="#000000" stroke="none">
<path d="M17950 10940 l0 -1350 -410 0 -410 0 0 -795 0 -795 410 0 409 0 4
-1192 c3 -1169 4 -1196 25 -1332 104 -665 352 -1054 816 -1280 301 -147 625
-208 1106 -208 399 -1 680 27 1113 108 l137 26 0 869 c0 478 -1 869 -3 869 -1
0 -34 -9 -73 -20 -260 -72 -560 -100 -693 -66 -195 50 -263 118 -307 306 -16
68 -18 158 -21 998 l-4 922 551 0 550 0 0 795 0 795 -550 0 -550 0 0 1350 0
1350 -1050 0 -1050 0 0 -1350z"/>
<path d="M21390 8175 l0 -4115 1090 0 1090 0 0 1938 c0 1928 3 2119 35 2227
30 104 141 241 257 316 81 52 167 80 270 86 255 16 402 -87 463 -325 50 -193
48 -137 52 -2259 l4 -1983 1079 0 1080 0 0 2273 c0 1445 -4 2323 -10 2412 -21
290 -59 442 -161 655 -120 249 -267 437 -449 574 -294 222 -612 329 -1020 343
-494 17 -902 -125 -1257 -436 -90 -80 -235 -239 -303 -335 l-35 -48 -3 1396
-2 1396 -1090 0 -1090 0 0 -4115z"/>
<path d="M3118 10661 c-76 -25 -118 -52 -177 -116 -169 -186 -134 -562 65
-694 170 -112 413 -103 551 23 54 48 103 143 110 211 l6 55 -137 0 c-98 0
-136 -3 -136 -12 0 -28 -44 -100 -71 -113 -39 -21 -98 -19 -136 5 -101 61
-113 308 -20 398 70 68 172 49 211 -40 l21 -48 133 0 134 0 -7 43 c-24 142
-110 249 -230 286 -87 27 -235 28 -317 2z"/>
<path d="M60 10225 l0 -435 370 0 370 0 0 115 0 115 -230 0 -230 0 0 50 0 50
205 0 205 0 0 110 0 110 -205 0 -205 0 0 45 0 45 225 0 225 0 0 115 0 115
-365 0 -365 0 0 -435z"/>
<path d="M950 10226 l0 -436 213 0 c320 0 410 21 508 119 87 87 104 140 104
321 0 128 -3 152 -23 203 -37 90 -90 150 -169 189 l-67 33 -283 3 -283 3 0
-435z m456 185 c99 -45 134 -192 72 -303 -31 -55 -80 -80 -174 -86 l-74 -5 0
207 0 206 68 0 c44 0 81 -7 108 -19z"/>
<path d="M1910 10377 c0 -364 11 -427 92 -508 76 -75 236 -112 394 -91 152 20
242 80 286 191 21 53 23 72 26 374 l3 317 -140 0 -141 0 0 -280 c0 -301 -4
-331 -51 -364 -30 -21 -108 -21 -138 0 -47 33 -51 63 -51 364 l0 280 -140 0
-140 0 0 -283z"/>
<path d="M4007 10648 c-71 -189 -307 -838 -307 -846 0 -9 35 -12 137 -10 l137
3 19 63 19 62 134 0 c90 0 134 -4 134 -11 0 -6 7 -35 16 -65 l15 -54 146 0
c79 0 143 4 141 9 -1 5 -73 200 -158 435 l-155 426 -136 0 c-100 0 -138 -3
-142 -12z m162 -360 c6 -24 19 -73 30 -110 l20 -68 -73 0 -73 0 35 115 c20 63
39 112 42 110 4 -3 12 -24 19 -47z"/>
<path d="M4540 10545 l0 -115 125 0 125 0 0 -320 0 -320 135 0 135 0 0 320 0
320 120 0 120 0 0 115 0 115 -380 0 -380 0 0 -115z"/>
<path d="M5410 10225 l0 -435 365 0 365 0 0 115 0 115 -230 0 -230 0 0 50 0
50 205 0 205 0 0 110 0 110 -205 0 -205 0 0 45 0 45 225 0 225 0 0 115 0 115
-360 0 -360 0 0 -435z"/>
<path d="M7880 10225 l0 -435 370 0 370 0 0 115 0 115 -230 0 -230 0 0 50 0
50 200 0 200 0 0 110 0 110 -200 0 -200 0 0 45 0 45 220 0 220 0 0 115 0 115
-360 0 -360 0 0 -435z"/>
<path d="M8770 10225 l0 -435 130 0 130 0 2 225 3 225 125 -225 125 -225 133
0 132 0 0 435 0 435 -130 0 -130 0 -2 -215 -3 -215 -115 213 -116 212 -142 3
-142 3 0 -436z"/>
<path d="M9660 10545 l0 -115 120 0 120 0 0 -320 0 -320 135 0 135 0 0 320 0
320 120 0 120 0 0 115 0 115 -375 0 -375 0 0 -115z"/>
<path d="M10520 10225 l0 -435 365 0 365 0 0 115 0 115 -230 0 -230 0 0 50 0
50 205 0 205 0 0 110 0 110 -205 0 -205 0 0 45 0 45 225 0 225 0 0 115 0 115
-360 0 -360 0 0 -435z"/>
<path d="M11400 10226 l0 -436 140 0 140 0 0 150 0 150 86 0 c47 0 94 -5 105
-10 30 -17 47 -61 59 -156 18 -149 0 -134 161 -134 76 0 139 3 139 6 0 3 -4
13 -9 22 -5 9 -14 66 -20 125 -12 123 -39 196 -84 231 l-30 24 27 17 c15 10
39 39 54 64 24 40 27 57 27 132 0 78 -3 90 -30 134 -21 33 -47 57 -85 79 l-55
31 -312 3 -313 3 0 -435z m474 210 c40 -17 47 -26 48 -68 1 -22 -7 -38 -26
-55 -24 -21 -37 -23 -122 -23 l-94 0 0 80 0 80 80 0 c46 0 95 -6 114 -14z"/>
<path d="M12290 10545 l0 -115 120 0 120 0 0 -320 0 -320 140 0 140 0 0 320 0
320 120 0 120 0 0 115 0 115 -380 0 -380 0 0 -115z"/>
<path d="M13301 10638 c-5 -13 -74 -201 -154 -418 -80 -217 -148 -403 -152
-412 -7 -17 4 -18 133 -18 l140 0 22 65 22 66 130 -3 130 -3 20 -62 19 -63
139 0 c106 0 140 3 140 13 0 6 -69 201 -153 432 l-153 420 -137 3 c-135 3
-137 2 -146 -20z m184 -420 l32 -108 -74 0 c-67 0 -74 2 -69 17 4 10 21 64 39
121 17 57 33 98 36 90 2 -7 19 -61 36 -120z"/>
<path d="M13980 10225 l0 -435 135 0 135 0 0 435 0 435 -135 0 -135 0 0 -435z"/>
<path d="M14420 10225 l0 -435 130 0 130 0 2 225 3 226 125 -225 125 -225 133
-1 132 0 0 435 0 435 -130 0 -130 0 -2 -214 -3 -214 -115 211 -115 212 -143 3
-142 3 0 -436z"/>
<path d="M6910 10425 l0 -105 -110 0 -110 0 0 -100 0 -100 110 0 110 0 0 -105
0 -105 95 0 95 0 0 105 0 105 105 0 105 0 0 100 0 100 -105 0 -105 0 0 105 0
105 -95 0 -95 0 0 -105z"/>
<path d="M7975 9693 c-478 -38 -838 -128 -1185 -294 -311 -150 -525 -303 -775
-553 -224 -225 -383 -440 -512 -696 -198 -389 -287 -760 -300 -1240 -13 -496
69 -914 256 -1313 177 -378 491 -782 801 -1031 511 -410 1157 -616 1929 -616
816 0 1486 212 2021 638 126 100 337 312 440 442 243 306 422 665 516 1034 90
354 116 803 69 1186 -80 649 -346 1186 -811 1641 -153 148 -247 225 -409 331
-493 324 -1092 482 -1799 476 -111 -1 -219 -3 -241 -5z m430 -1379 c266 -63
416 -275 485 -684 36 -209 41 -282 47 -627 7 -452 -13 -723 -82 -1097 -45
-245 -97 -368 -200 -471 -112 -113 -236 -159 -430 -159 -191 -1 -307 45 -432
171 -201 202 -277 578 -277 1363 0 736 83 1120 291 1351 133 148 367 208 598
153z"/>
<path d="M2 9568 c3 -13 456 -1188 1007 -2611 551 -1424 1013 -2631 1027
-2683 44 -166 35 -269 -34 -359 -72 -94 -238 -166 -463 -202 -93 -15 -171 -18
-424 -17 -311 0 -322 1 -713 50 l-52 7 0 -771 0 -770 68 -6 c444 -40 1251 -52
1481 -23 367 47 654 137 863 272 323 209 625 606 801 1055 61 154 2197 6056
2197 6070 0 7 -248 10 -793 10 l-794 0 -474 -1466 c-260 -806 -475 -1462 -476
-1457 -1 4 -203 656 -448 1448 -245 792 -448 1448 -451 1458 -5 16 -69 17
-1166 17 l-1160 0 4 -22z"/>
<path d="M11513 7458 l3 -2133 22 -115 c48 -251 121 -443 232 -613 243 -374
632 -587 1160 -638 154 -14 473 -6 620 16 595 91 1007 371 1262 860 l58 110 0
-442 0 -443 1005 0 1005 0 0 2765 0 2765 -1075 0 -1075 0 0 -1704 c0 -1166 -3
-1729 -11 -1783 -39 -286 -210 -496 -454 -558 -73 -19 -242 -20 -310 -1 -116
30 -187 91 -224 191 -51 137 -51 115 -51 2053 l0 1802 -1085 0 -1085 0 3
-2132z"/>
<path d="M5035 3573 c-43 -175 -80 -324 -82 -330 -4 -10 74 -13 371 -13 l375
0 10 38 c32 121 151 603 151 612 0 7 -125 10 -374 10 l-374 0 -77 -317z"/>
<path d="M26062 3858 c-5 -18 -69 -275 -143 -570 l-133 -537 -51 48 c-92 87
-180 124 -325 136 -151 13 -350 -31 -477 -106 -92 -55 -217 -181 -294 -298
-247 -373 -410 -876 -409 -1260 1 -295 61 -472 195 -573 73 -55 150 -79 280
-85 217 -10 365 35 550 169 50 36 91 64 93 63 3 -2 -29 -136 -44 -187 -5 -17
16 -18 350 -18 l355 0 11 38 c50 188 790 3174 790 3191 l0 21 -370 0 -369 0
-9 -32z m-445 -1372 c99 -46 104 8 -66 -672 l-150 -599 -50 -47 c-70 -64 -165
-110 -234 -112 -66 -1 -101 16 -123 62 -35 74 -1 304 107 736 70 279 135 447
216 558 68 94 191 124 300 74z"/>
<path d="M21484 3353 l-100 -408 -152 -3 -151 -3 -10 -37 c-21 -80 -121 -482
-121 -487 0 -3 68 -5 151 -5 139 0 150 -1 145 -17 -3 -10 -78 -308 -166 -663
-119 -477 -163 -667 -167 -730 -15 -226 89 -355 325 -405 132 -28 478 -14 671
28 l55 12 68 270 c37 149 68 273 68 276 0 3 -35 -1 -77 -8 -89 -16 -190 -10
-240 14 -43 20 -56 64 -43 152 7 51 194 822 251 1034 l10 37 204 0 203 0 65
263 64 262 -202 3 -202 2 98 393 c54 215 99 400 99 410 0 16 -24 17 -373 17
l-373 0 -100 -407z"/>
<path d="M14508 2980 c-125 -36 -259 -109 -369 -201 l-47 -38 29 112 c16 62
29 115 29 120 0 4 -162 7 -360 7 l-359 0 -10 -37 c-33 -126 -731 -2925 -731
-2933 0 -6 137 -10 374 -10 l374 0 107 430 108 430 53 -50 c123 -116 293 -154
519 -115 281 49 466 204 673 565 177 309 298 705 318 1039 22 375 -125 634
-394 690 -82 17 -237 13 -314 -9z m-99 -415 c47 -24 65 -75 58 -169 -7 -100
-53 -330 -118 -587 -85 -340 -161 -553 -223 -626 -81 -96 -261 -113 -357 -34
l-36 30 153 617 c147 596 153 617 186 651 103 108 254 161 337 118z"/>
<path d="M7015 2979 c-183 -26 -370 -119 -546 -270 -38 -33 -69 -57 -69 -54 0
6 57 237 66 268 5 16 -16 17 -373 15 l-378 -3 -282 -1135 c-155 -624 -283
-1141 -283 -1147 0 -10 81 -13 373 -13 l372 0 209 835 208 834 54 51 c58 55
114 84 180 95 51 8 115 -8 139 -35 41 -45 37 -64 -179 -927 -113 -453 -206
-830 -206 -838 0 -13 47 -15 373 -15 l373 0 234 938 235 937 0 115 c0 105 -3
120 -28 172 -73 148 -238 211 -472 177z"/>
<path d="M8598 2979 c-270 -31 -521 -158 -713 -361 -249 -261 -410 -549 -497
-888 -54 -209 -50 -457 9 -645 67 -214 171 -347 329 -424 238 -116 641 -101
920 34 258 125 449 345 574 661 17 42 29 79 26 81 -5 5 -559 84 -561 80 -1 -1
-12 -36 -25 -77 -45 -153 -138 -288 -227 -331 -70 -34 -184 -34 -232 0 -99 71
-99 246 0 648 74 302 170 559 245 650 19 23 56 55 82 70 40 24 58 28 124 28
86 0 117 -15 153 -76 16 -28 20 -51 19 -124 -1 -78 -15 -180 -31 -222 -4 -10
60 -13 315 -13 297 0 321 1 326 18 28 92 33 281 11 399 -33 174 -165 365 -297
426 -139 65 -342 89 -550 66z"/>
<path d="M10611 2979 c-441 -47 -801 -323 -1032 -794 -134 -274 -208 -604
-196 -880 16 -372 176 -601 479 -685 118 -33 287 -45 436 -32 315 28 545 132
752 342 215 217 366 497 455 844 47 186 58 287 52 467 -5 181 -25 270 -89 399
-131 264 -431 383 -857 339z m129 -487 c53 -28 80 -89 80 -182 0 -216 -140
-782 -251 -1016 -89 -188 -235 -281 -348 -222 -64 33 -85 79 -89 193 -9 218
141 818 260 1048 45 85 123 166 179 184 54 17 130 15 169 -5z"/>
<path d="M13213 2979 c-146 -14 -344 -81 -461 -155 -67 -43 -155 -125 -183
-171 -12 -19 -23 -32 -26 -30 -2 3 12 68 32 145 19 78 35 148 35 156 0 14 -42
16 -365 16 l-364 0 -10 -37 c-22 -83 -561 -2249 -561 -2255 0 -5 168 -8 374
-8 l374 0 183 738 c206 827 180 754 302 833 98 64 142 74 307 73 129 0 154 -3
225 -27 43 -14 81 -24 83 -22 3 3 190 737 192 753 0 3 -42 1 -137 -9z"/>
<path d="M16385 2979 c-326 -34 -605 -193 -828 -469 -219 -272 -362 -641 -398
-1027 -29 -310 55 -591 218 -732 57 -49 183 -113 268 -135 236 -62 580 -35
816 63 136 57 235 126 360 250 188 189 321 412 413 693 134 408 137 752 9
1014 -128 264 -437 387 -858 343z m124 -487 c95 -48 108 -169 50 -462 -75
-380 -188 -720 -285 -851 -95 -129 -244 -164 -322 -75 -77 87 -67 265 39 688
82 329 161 532 242 625 74 83 195 117 276 75z"/>
<path d="M18990 2980 c-145 -14 -324 -72 -446 -146 -86 -52 -141 -100 -192
-168 -24 -34 -42 -52 -39 -41 10 33 77 304 77 309 0 4 -166 6 -368 6 l-368 0
-283 -1137 c-156 -626 -286 -1144 -289 -1151 -3 -10 73 -12 374 -10 l378 3
182 735 182 735 46 42 c105 95 213 133 377 133 86 0 228 -26 299 -54 13 -5 32
60 108 366 51 205 92 376 92 381 0 8 -21 7 -130 -3z"/>
<path d="M20005 2984 c-95 -10 -237 -39 -319 -65 -237 -77 -403 -188 -524
-347 -71 -95 -131 -208 -117 -220 10 -9 606 -146 609 -140 75 162 131 234 211
273 46 23 65 27 110 23 121 -10 150 -99 99 -303 l-26 -105 -57 0 c-139 0 -375
-43 -555 -101 -140 -45 -362 -150 -451 -214 -199 -142 -326 -373 -354 -646
-30 -279 81 -462 324 -535 82 -25 283 -25 380 0 96 25 254 102 348 169 65 47
76 53 72 34 -9 -41 -25 -141 -25 -154 0 -10 74 -13 386 -13 364 0 386 1 379
18 -15 39 -17 85 -5 164 6 46 93 407 193 803 l180 720 1 125 c1 120 0 128 -30
190 -17 36 -50 84 -74 108 -86 85 -248 162 -415 197 -79 16 -265 27 -340 19z
m-55 -1266 c-1 -7 -27 -121 -59 -253 -65 -264 -56 -248 -166 -320 -118 -77
-215 -84 -280 -20 -46 47 -53 98 -27 201 38 151 98 253 179 304 95 60 354 124
353 88z"/>
<path d="M23420 2979 c-271 -29 -517 -153 -716 -361 -281 -294 -455 -678 -495
-1094 -21 -214 14 -432 98 -604 44 -92 149 -201 238 -247 167 -88 457 -116
694 -67 225 47 451 175 638 364 77 77 183 216 183 238 0 6 -89 45 -197 88
-109 42 -212 83 -230 90 l-31 14 -33 -58 c-124 -220 -444 -336 -573 -207 -68
68 -90 242 -52 408 l17 77 619 0 618 0 32 130 c74 308 79 545 15 788 -34 127
-67 193 -136 266 -137 147 -374 207 -689 175z m140 -491 c65 -33 80 -70 79
-188 0 -52 -6 -124 -13 -160 l-12 -65 -272 -3 -271 -2 25 67 c66 181 155 306
249 349 68 32 154 32 215 2z"/>
<path d="M4875 2928 c-11 -32 -565 -2260 -565 -2273 0 -13 47 -15 373 -15
l373 0 282 1138 c155 625 282 1143 282 1150 0 18 -739 18 -745 0z"/>
</g>
</svg>
